<?xml version="1.0" encoding="iso-8859-1"?>
<!-- Generator: Adobe Illustrator 19.0.0, SVG Export Plug-In . SVG Version: 6.00 Build 0)  -->
<svg xmlns="http://www.w3.org/2000/svg" xmlns:xlink="http://www.w3.org/1999/xlink" version="1.1" id="Layer_1" x="0px" y="0px" viewBox="0 0 216.837 216.837" style="enable-background:new 0 0 216.837 216.837;" xml:space="preserve" width="512px" height="512px">
<g>
	<g>
		<g>
			<path d="M210.11,48.914c-13.344-33.361-37.267-33.108-58.298-32.911c-1.673,0.018-3.338,0.034-4.995,0.034     c-14.603,0-27.434,7.236-31.211,17.598c-2.596,7.134-0.331,14.378,6.215,19.874c6.68,5.611,12.255,7.169,16.738,8.424     c5.788,1.62,9.616,2.691,14.678,12.425c1.914,3.679,2.367,7.479,2.089,11.315c-3.901-0.302-10.488,0.083-17.347,4.582     c-11.399,7.473-18.722,22.922-21.773,45.918c-7.568,57.084,11.139,63.948,13.297,64.542c0.359,0.101,0.722,0.148,1.077,0.148     c1.772-0.002,3.397-1.178,3.891-2.969c0.592-2.15-0.671-4.376-2.821-4.968c-0.142-0.04-13.889-6.98-7.434-55.692     c2.671-20.143,8.901-34.012,18.024-40.11c4.577-3.061,8.933-3.556,11.651-3.471c-0.577,2.125-1.253,4.245-1.925,6.347     c-2.805,8.783-5.989,18.738,2.454,24.988c3.524,2.61,7.939,3.689,12.713,3.689c14.859,0,33.183-10.45,38.905-17.673     C210.785,105.008,225.242,86.757,210.11,48.914z M199.902,105.729c-5.538-5.768-9.332-9.248-21.255-9.248     c-2.233,0-4.04,1.809-4.04,4.04c0,2.231,1.807,4.04,4.04,4.04c8.391,0,10.411,1.56,15.126,6.453     c-9.716,6.524-26.905,13.131-34.547,7.48c-3.448-2.553-2.568-6.635,0.438-16.032c2.936-9.178,6.585-20.598,0.742-31.834     c-3.6-6.923-7.179-10.637-10.714-12.883c2.055-4.939,3.928-6.883,9.605-9.164c2.072-0.833,3.074-3.184,2.241-5.256     c-0.829-2.072-3.192-3.082-5.256-2.241c-8.139,3.271-11.284,6.998-14.015,13.502c-0.513-0.149-1.025-0.295-1.535-0.438     c-4.116-1.152-8.373-2.342-13.715-6.828c-2.722-2.286-5.595-6.037-3.815-10.924c2.221-6.102,11.048-12.281,23.615-12.281     c1.685,0,3.377-0.018,5.074-0.034c1.705-0.018,3.393-0.034,5.078-0.034c12.859,0,25.014,1.021,34.701,10.501     c-1.727,3.473-2.753,6.622-3.632,9.42c-1.345,4.281-2.32,7.375-5.331,10.34c-1.59,1.566-1.606,4.125-0.04,5.714     c0.789,0.803,1.831,1.205,2.876,1.205c1.026,0,2.048-0.387,2.837-1.162c4.443-4.38,5.931-9.105,7.366-13.674     c0.486-1.546,0.989-3.124,1.611-4.752c1.888,2.931,3.654,6.288,5.247,10.272C215.797,84.913,204.109,100.411,199.902,105.729z" fill="#000000"/>
			<path d="M79.14,90.255c-7.034-4.613-13.771-4.898-17.626-4.554c-0.283-3.846,0.166-7.656,2.084-11.344     c5.066-9.734,8.894-10.805,14.682-12.425c4.482-1.255,10.058-2.813,16.742-8.424c6.542-5.497,8.807-12.741,6.211-19.874     c-3.776-10.362-16.607-17.598-31.211-17.598c-1.657,0-3.322-0.016-4.995-0.034c-14.05-0.134-29.357-0.233-41.963,9.603     c-1.12,0.322-2.105,1.07-2.608,2.222c-0.003,0.006-0.004,0.012-0.007,0.018c-5.219,4.829-9.91,11.545-13.72,21.07     C-5.81,80.278,1.962,98.153,7.697,106.779c0.237,0.657,0.627,1.231,1.17,1.691c0.727,1,1.397,1.857,1.933,2.533     c5.721,7.225,24.045,17.675,38.905,17.675c4.774,0,9.189-1.079,12.713-3.689c8.444-6.25,5.259-16.205,2.454-24.988     c-0.669-2.093-1.342-4.204-1.917-6.319c2.663-0.116,7.109,0.285,11.753,3.33c9.213,6.041,15.507,19.949,18.194,40.223     c6.581,49.647-7.469,55.692-7.434,55.692c-2.15,0.592-3.413,2.817-2.821,4.968c0.493,1.793,2.119,2.969,3.891,2.969     c0.355,0,0.718-0.047,1.077-0.148c2.158-0.594,20.865-7.457,13.297-64.542C97.862,113.179,90.539,97.729,79.14,90.255z      M57.612,118.494c-9.699,7.175-34.864-5.419-40.475-12.506c0,0,0,0,0-0.002c-0.281-0.355-0.61-0.775-0.96-1.233     c2.573-5.001,6.18-6.28,11.345-8.081c2.778-0.968,5.922-2.067,9.146-3.91c1.937-1.107,2.612-3.575,1.503-5.512     c-1.109-1.937-3.579-2.612-5.512-1.503c-2.581,1.474-5.232,2.401-7.801,3.297c-4.681,1.633-9.462,3.354-13.257,8.019     c-3.823-8.583-6.278-22.861,2.632-45.146c1.821-4.552,3.856-8.33,6.058-11.523c0.446,1.138,0.955,2.2,1.435,3.198     c1.464,3.052,2.853,5.933,2.446,10.227c-0.205,2.222,1.424,4.191,3.646,4.4c0.13,0.012,0.257,0.018,0.383,0.018     c2.063,0,3.823-1.571,4.021-3.663c0.612-6.528-1.511-10.937-3.216-14.483c-1.543-3.21-2.236-5.065-1.598-7.534     c9.293-7.619,20.573-8.506,32.462-8.506c1.681,0,3.377,0.016,5.078,0.034c1.697,0.016,3.389,0.034,5.074,0.034     c12.567,0,21.394,6.179,23.615,12.281c1.779,4.887-1.093,8.637-3.812,10.924c-4.264,3.578-7.832,5.051-11.191,6.089     c-0.667-0.348-1.404-0.578-2.225-0.502c-5.027,0.476-9.016-0.994-13.242-2.545c-4.092-1.503-8.325-3.058-13.636-3.058     c-2.233,0-4.04,1.809-4.04,4.04s1.807,4.04,4.04,4.04c3.875,0,7.264,1.245,10.851,2.563c1.402,0.514,2.891,1.028,4.432,1.507     c-2.775,2.325-5.573,5.768-8.385,11.172c-5.84,11.236-2.19,22.656,0.746,31.834C60.181,111.861,61.061,115.942,57.612,118.494z" fill="#000000"/>
		</g>
	</g>
</g>
<g>
</g>
<g>
</g>
<g>
</g>
<g>
</g>
<g>
</g>
<g>
</g>
<g>
</g>
<g>
</g>
<g>
</g>
<g>
</g>
<g>
</g>
<g>
</g>
<g>
</g>
<g>
</g>
<g>
</g>
</svg>
