<?xml version="1.0" encoding="iso-8859-1"?>
<!-- Generator: Adobe Illustrator 19.0.0, SVG Export Plug-In . SVG Version: 6.00 Build 0)  -->
<svg xmlns="http://www.w3.org/2000/svg" xmlns:xlink="http://www.w3.org/1999/xlink" version="1.1" id="Layer_1" x="0px" y="0px" viewBox="0 0 512 512" style="enable-background:new 0 0 512 512;" xml:space="preserve" width="512px" height="512px">
<g>
	<g>
		<path d="M461.913,100.174h-83.478V50.087C378.435,22.469,355.966,0,328.348,0H183.652c-27.618,0-50.087,22.469-50.087,50.087    v50.087H50.087C22.469,100.174,0,122.643,0,150.261c0,13.601,0,295.377,0,311.652C0,489.531,22.469,512,50.087,512    c14.964,0,397.152,0,411.826,0C489.531,512,512,489.531,512,461.913c0-16.281,0-298.041,0-311.652    C512,122.643,489.531,100.174,461.913,100.174z M166.957,50.087c0-9.206,7.49-16.696,16.696-16.696h144.696    c9.206,0,16.696,7.49,16.696,16.696v50.087H166.957V50.087z M83.478,478.609H50.087c-9.206,0-16.696-7.49-16.696-16.696V211.478    h50.087V478.609z M395.13,478.609H116.87v-267.13H395.13V478.609z M478.609,461.913c0,9.206-7.49,16.696-16.696,16.696h-33.391    v-267.13h50.087V461.913z M478.609,178.087c-16.603,0-421.328,0-445.217,0v-27.826c0-9.206,7.49-16.696,16.696-16.696    c10.753,0,400.542,0,411.826,0c9.206,0,16.696,7.49,16.696,16.696V178.087z" fill="#000000"/>
	</g>
</g>
<g>
	<g>
		<path d="M339.478,294.957h-33.391v-33.391c0-9.22-7.475-16.696-16.696-16.696h-66.783c-9.22,0-16.696,7.475-16.696,16.696v33.391    h-33.391c-9.22,0-16.696,7.475-16.696,16.696v66.783c0,9.22,7.475,16.696,16.696,16.696h33.391v33.391    c0,9.22,7.475,16.696,16.696,16.696h66.783c9.22,0,16.696-7.475,16.696-16.696V395.13h33.391c9.22,0,16.696-7.475,16.696-16.696    v-66.783C356.174,302.432,348.699,294.957,339.478,294.957z M322.783,361.739h-33.391c-9.22,0-16.696,7.475-16.696,16.696v33.391    h-33.391v-33.391c0-9.22-7.475-16.696-16.696-16.696h-33.391v-33.391h33.391c9.22,0,16.696-7.475,16.696-16.696v-33.391h33.391    v33.391c0,9.22,7.475,16.696,16.696,16.696h33.391V361.739z" fill="#000000"/>
	</g>
</g>
<g>
</g>
<g>
</g>
<g>
</g>
<g>
</g>
<g>
</g>
<g>
</g>
<g>
</g>
<g>
</g>
<g>
</g>
<g>
</g>
<g>
</g>
<g>
</g>
<g>
</g>
<g>
</g>
<g>
</g>
</svg>
