<?xml version="1.0" encoding="iso-8859-1"?>
<!-- Generator: Adobe Illustrator 19.0.0, SVG Export Plug-In . SVG Version: 6.00 Build 0)  -->
<svg xmlns="http://www.w3.org/2000/svg" xmlns:xlink="http://www.w3.org/1999/xlink" version="1.1" id="Layer_1" x="0px" y="0px" viewBox="0 0 360.33 360.33" style="enable-background:new 0 0 360.33 360.33;" xml:space="preserve" width="512px" height="512px">
<g>
	<g>
		<path d="M308.689,54.053c-16.571-16.935-35.963-30.241-57.64-39.546c-22.424-9.625-46.273-14.506-70.884-14.506    c-24.612,0-48.461,4.88-70.885,14.506c-21.677,9.305-41.069,22.61-57.628,39.534C18.344,87.85,0,132.642,0,180.165    s18.343,92.316,51.64,126.112c16.571,16.937,35.964,30.242,57.64,39.547c22.424,9.625,46.273,14.506,70.885,14.506    c24.612,0,48.461-4.88,70.884-14.506c21.677-9.305,41.071-22.61,57.628-39.534c33.308-33.809,51.653-78.601,51.653-126.125    S341.985,87.85,308.689,54.053z M301.296,299.043c-32.14,32.851-75.159,50.943-121.131,50.943    c-45.972,0-88.99-18.092-121.145-50.956c-31.39-31.862-48.677-74.076-48.677-118.865s17.288-87.004,48.69-118.878    c32.143-32.851,75.162-50.943,121.132-50.943c45.971,0,88.989,18.091,121.144,50.955c31.391,31.862,48.678,74.075,48.678,118.865    C349.987,224.954,332.699,267.168,301.296,299.043z" fill="#000000"/>
	</g>
</g>
<g>
	<g>
		<path d="M301.296,54.054c-32.141,32.851-75.159,50.943-121.131,50.943c-45.971,0-88.99-18.092-121.132-50.943l-7.394,7.233    c16.571,16.937,35.964,30.242,57.64,39.547c22.424,9.625,46.273,14.506,70.885,14.506s48.461-4.881,70.885-14.506    c21.677-9.305,41.07-22.611,57.64-39.547L301.296,54.054z" fill="#000000"/>
	</g>
</g>
<g>
	<g>
		<path d="M251.048,259.497c-22.424-9.625-46.273-14.506-70.884-14.506c-24.612,0-48.461,4.88-70.885,14.506    c-21.676,9.305-41.069,22.61-57.64,39.546l7.394,7.233c32.143-32.851,75.162-50.943,121.131-50.943    c45.971,0,88.989,18.092,121.131,50.943l7.393-7.233C292.118,282.107,272.725,268.803,251.048,259.497z" fill="#000000"/>
	</g>
</g>
<g>
	<g>
		<path d="M250.722,53.993C232.153,19.175,207.095,0,180.165,0c-26.93,0-51.988,19.175-70.557,53.993    C91.588,87.78,81.664,132.59,81.664,180.165c0,47.576,9.924,92.385,27.944,126.172c18.57,34.818,43.627,53.993,70.557,53.993    c26.93,0,51.988-19.175,70.557-53.992c18.02-33.787,27.945-78.596,27.945-126.172S268.742,87.78,250.722,53.993z M241.595,301.47    c-16.687,31.286-38.503,48.516-61.431,48.516c-22.927,0-44.744-17.23-61.43-48.516c-17.235-32.317-26.727-75.397-26.727-121.305    c0-45.908,9.491-88.988,26.727-121.305c16.686-31.286,38.502-48.517,61.43-48.517s44.744,17.23,61.43,48.516    c17.235,32.317,26.727,75.396,26.727,121.305S258.831,269.154,241.595,301.47z" fill="#000000"/>
	</g>
</g>
<g>
	<g>
		<rect x="174.99" y="5.172" width="10.343" height="349.98" fill="#000000"/>
	</g>
</g>
<g>
	<g>
		<rect x="5.172" y="174.99" width="349.98" height="10.343" fill="#000000"/>
	</g>
</g>
<g>
</g>
<g>
</g>
<g>
</g>
<g>
</g>
<g>
</g>
<g>
</g>
<g>
</g>
<g>
</g>
<g>
</g>
<g>
</g>
<g>
</g>
<g>
</g>
<g>
</g>
<g>
</g>
<g>
</g>
</svg>
