<?xml version="1.0" encoding="iso-8859-1"?>
<!-- Generator: Adobe Illustrator 18.0.0, SVG Export Plug-In . SVG Version: 6.00 Build 0)  -->
<!DOCTYPE svg PUBLIC "-//W3C//DTD SVG 1.1//EN" "http://www.w3.org/Graphics/SVG/1.1/DTD/svg11.dtd">
<svg xmlns="http://www.w3.org/2000/svg" xmlns:xlink="http://www.w3.org/1999/xlink" version="1.1" id="Capa_1" x="0px" y="0px" viewBox="0 0 60 60" style="enable-background:new 0 0 60 60;" xml:space="preserve" width="512px" height="512px">
<g>
	<circle cx="31" cy="23" r="1" fill="#000000"/>
	<circle cx="28" cy="21" r="1" fill="#000000"/>
	<circle cx="34" cy="21" r="1" fill="#000000"/>
	<circle cx="34" cy="18" r="1" fill="#000000"/>
	<circle cx="31" cy="20" r="1" fill="#000000"/>
	<circle cx="34" cy="24" r="1" fill="#000000"/>
	<circle cx="28" cy="24" r="1" fill="#000000"/>
	<circle cx="31" cy="17" r="1" fill="#000000"/>
	<circle cx="28" cy="18" r="1" fill="#000000"/>
	<path d="M52.459,10.142c-0.017-0.022-0.024-0.049-0.043-0.07c-0.014-0.015-0.032-0.02-0.047-0.034C46.871,3.884,38.882,0,30,0   C22.009,0,14.744,3.146,9.362,8.257C9.341,8.276,9.315,8.283,9.295,8.303C9.28,8.318,9.275,8.338,9.261,8.354   C3.56,13.818,0,21.499,0,30c0,16.542,13.458,30,30,30s30-13.458,30-30C60,22.389,57.146,15.436,52.459,10.142z M28.457,32.928   C28.977,32.97,29.494,33,30,33c0.28,0,0.561-0.02,0.841-0.032C30.895,32.977,30.944,33,31,33c0.082,0,0.156-0.028,0.232-0.047   c0.749-0.047,1.498-0.143,2.246-0.276C32.513,34.401,32,36.291,32,38.178v19.743C31.339,57.968,30.673,58,30,58V38.914   C30,36.858,29.455,34.802,28.457,32.928z M34,57.71V38.178c0-1.692,0.504-3.398,1.458-4.933c0.228-0.366,0.491-0.785,0.782-1.242   l0.002,0l0.198-0.312c0.54-0.846,1.089-1.687,1.642-2.518c0.026-0.039,0.052-0.078,0.078-0.116   c0.551-0.827,1.106-1.645,1.662-2.446c0,0,0-0.001,0-0.001c0.009-0.013,0.018-0.026,0.027-0.039   c0.315-0.454,0.203-1.077-0.251-1.392c-0.454-0.316-1.076-0.202-1.392,0.251c-0.566,0.815-1.096,1.597-1.594,2.342   c-0.038,0.057-0.076,0.114-0.114,0.172c-0.567,0.851-1.084,1.643-1.543,2.356c-0.982,0.279-1.966,0.451-2.955,0.563V27   c0-0.553-0.447-1-1-1s-1,0.447-1,1v3.975c-0.909-0.002-1.824-0.049-2.762-0.197c-0.019-0.032-0.041-0.068-0.06-0.1   c-0.121-0.205-0.253-0.424-0.381-0.638c-0.076-0.126-0.146-0.245-0.224-0.375c-0.23-0.382-0.469-0.777-0.719-1.185   c-0.288-0.47-0.902-0.618-1.375-0.33c-0.353,0.216-0.525,0.617-0.467,1.002c0.019,0.129,0.064,0.256,0.136,0.374   c0.286,0.468,0.559,0.918,0.819,1.352c0.031,0.052,0.061,0.102,0.092,0.153c0.21,0.351,0.41,0.688,0.602,1.012   c0.312,0.529,0.605,1.03,0.863,1.477C27.489,35.195,28,37.061,28,38.914v19.007C13.491,56.891,2,44.766,2,30   c0-7.608,3.054-14.513,7.996-19.565c1.577,1.624,3.229,3.529,4.936,5.696c0.382,0.485,0.762,0.962,1.148,1.472   c0,0,0.001,0.001,0.001,0.001c0,0,0,0.001,0,0.001C16.278,17.863,16.577,18,16.88,18c0.21,0,0.423-0.066,0.604-0.203   c0.439-0.334,0.526-0.961,0.192-1.401c-0.436-0.575-0.865-1.115-1.295-1.659c-1.701-2.151-3.352-4.049-4.936-5.68   C16.389,4.671,22.887,2,30,2c7.973,0,15.172,3.355,20.276,8.72c-1.406,1.363-2.862,2.915-4.36,4.654   c-1.074,1.246-2.168,2.585-3.278,4.012c-0.339,0.437-0.261,1.064,0.175,1.403C42.995,20.932,43.212,21,43.426,21   c0.298,0,0.593-0.133,0.79-0.386l0-0.001l0.001,0c2.581-3.318,5.062-6.135,7.392-8.401C55.6,17.053,58,23.251,58,30   C58,44.081,47.551,55.763,34,57.71z" fill="#000000"/>
</g>
<g>
</g>
<g>
</g>
<g>
</g>
<g>
</g>
<g>
</g>
<g>
</g>
<g>
</g>
<g>
</g>
<g>
</g>
<g>
</g>
<g>
</g>
<g>
</g>
<g>
</g>
<g>
</g>
<g>
</g>
</svg>
