<?xml version="1.0" encoding="iso-8859-1"?>
<!-- Generator: Adobe Illustrator 19.0.0, SVG Export Plug-In . SVG Version: 6.00 Build 0)  -->
<svg xmlns="http://www.w3.org/2000/svg" xmlns:xlink="http://www.w3.org/1999/xlink" version="1.1" id="Layer_1" x="0px" y="0px" viewBox="0 0 512 512" style="enable-background:new 0 0 512 512;" xml:space="preserve" width="512px" height="512px">
<g>
	<g>
		<g>
			<path d="M70.767,326.767L53.7,343.834c-3.337,3.336-3.337,8.73,0,12.066c1.664,1.664,3.849,2.5,6.033,2.5s4.369-0.836,6.033-2.5     l17.067-17.067c3.337-3.336,3.337-8.73,0-12.066C79.497,323.43,74.103,323.43,70.767,326.767z" fill="#000000"/>
			<path d="M230.4,162.133c-4.71,0-8.533,3.823-8.533,8.533V284.86l-21.786-10.897c-4.224-2.116-9.335-0.393-11.452,3.823     c-2.108,4.215-0.393,9.335,3.823,11.452l29.414,14.703V409.6h-5.001l-31.633-31.633c-3.337-3.336-8.73-3.336-12.066,0     c-3.337,3.337-3.337,8.73,0,12.066l19.567,19.567H179.2c-4.71,0-8.533,3.823-8.533,8.533s3.823,8.533,8.533,8.533h42.667v8.533     c0,24.064-7.322,46.234-77.653,55.347L116.966,463.3c-3.337-3.337-8.73-3.337-12.066,0c-3.337,3.336-3.337,8.73,0,12.066     l17.425,17.425c-17.613,1.382-38.263,2.142-62.592,2.142c-29.107,0-42.667-37.965-42.667-119.467     c0-74.889,32.418-146.637,52.096-183.296L79.3,202.3c1.664,1.664,3.849,2.5,6.033,2.5c2.185,0,4.369-0.836,6.033-2.5     c3.337-3.337,3.337-8.73,0-12.066L77.85,176.708c3.635-6.17,5.931-9.66,6.05-9.847c0.188-0.282,0.367-0.597,0.529-0.896     c0.316-0.64,32.734-63.565,94.771-63.565c9.387,0,17.57,3.132,24.303,9.301c3.473,3.174,8.883,2.944,12.058-0.538     c3.183-3.473,2.944-8.875-0.529-12.058c-9.847-9.011-22.238-13.773-35.831-13.773c-70.366,0-106.197,65.562-109.781,72.491     C63.932,166.161,0,265.719,0,375.467C0,439.031,6.784,512,59.733,512c132.309,0,179.2-20.096,179.2-76.8V170.667     C238.933,165.956,235.11,162.133,230.4,162.133z" fill="#000000"/>
			<path d="M332.8,187.733c2.185,0,4.369-0.836,6.033-2.5c3.337-3.337,3.337-8.73,0-12.066l-74.3-74.3V8.533     C264.533,3.823,260.71,0,256,0s-8.533,3.823-8.533,8.533v90.334l-74.3,74.3c-3.337,3.337-3.337,8.73,0,12.066     c3.337,3.336,8.73,3.336,12.066,0L256,114.466l70.767,70.767C328.431,186.897,330.615,187.733,332.8,187.733z" fill="#000000"/>
			<path d="M442.581,157.824c-3.593-6.929-39.424-72.491-109.781-72.491c-13.833,0-26.394,4.932-36.335,14.251     c-3.439,3.226-3.618,8.627-0.393,12.058c3.243,3.447,8.636,3.61,12.058,0.393c6.818-6.391,15.121-9.634,24.67-9.634     c62.037,0,94.447,62.925,94.771,63.565c0.154,0.307,0.341,0.614,0.529,0.905c0.119,0.179,2.415,3.669,6.059,9.839l-13.525,13.525     c-3.336,3.337-3.336,8.73,0,12.066c1.664,1.664,3.849,2.5,6.033,2.5s4.369-0.836,6.033-2.5l10.146-10.138     c19.678,36.634,52.087,108.314,52.087,183.305c0,81.502-13.559,119.467-42.667,119.467c-24.337,0-44.979-0.759-62.592-2.142     l17.425-17.425c3.337-3.337,3.337-8.73,0-12.066c-3.336-3.337-8.73-3.337-12.066,0l-27.238,27.247     c-70.34-9.114-77.662-31.283-77.662-55.347v-8.533H332.8c4.719,0,8.533-3.823,8.533-8.533s-3.814-8.533-8.533-8.533h-13.534     l19.567-19.567c3.337-3.336,3.337-8.73,0-12.066c-3.336-3.336-8.73-3.336-12.066,0L295.134,409.6h-5V303.94l29.414-14.703     c4.216-2.116,5.931-7.236,3.823-11.452c-2.125-4.216-7.245-5.931-11.452-3.823l-21.786,10.897V170.667     c0-4.71-3.814-8.533-8.533-8.533c-4.719,0-8.533,3.823-8.533,8.533V435.2c0,56.704,46.891,76.8,179.2,76.8     C505.207,512,512,439.031,512,375.467C512,265.719,448.068,166.161,442.581,157.824z" fill="#000000"/>
			<path d="M452.267,358.4c2.185,0,4.369-0.836,6.033-2.5c3.337-3.337,3.337-8.73,0-12.066l-17.067-17.067     c-3.337-3.337-8.73-3.337-12.066,0c-3.336,3.336-3.336,8.73,0,12.066l17.067,17.067C447.898,357.564,450.082,358.4,452.267,358.4     z" fill="#000000"/>
		</g>
	</g>
</g>
<g>
</g>
<g>
</g>
<g>
</g>
<g>
</g>
<g>
</g>
<g>
</g>
<g>
</g>
<g>
</g>
<g>
</g>
<g>
</g>
<g>
</g>
<g>
</g>
<g>
</g>
<g>
</g>
<g>
</g>
</svg>
