<?xml version="1.0" encoding="iso-8859-1"?>
<!-- Generator: Adobe Illustrator 19.0.0, SVG Export Plug-In . SVG Version: 6.00 Build 0)  -->
<svg xmlns="http://www.w3.org/2000/svg" xmlns:xlink="http://www.w3.org/1999/xlink" version="1.1" id="Layer_1" x="0px" y="0px" viewBox="0 0 512.005 512.005" style="enable-background:new 0 0 512.005 512.005;" xml:space="preserve" width="512px" height="512px">
<g>
	<g>
		<path d="M411.324,322.86c2.483-11.154,3.762-22.654,3.799-34.179c0.167-51.29-25.574-100.102-69.06-131.417    c-0.078-10.777-1.027-21.254-2.825-31.26c7.477-4.141,12.553-12.112,12.553-21.247c0-13.385-10.888-24.273-24.273-24.273    c-1.503,0-2.998,0.058-4.486,0.159c-3.779-6.34-8.018-11.947-12.681-16.731l6.515-13.029c5.985-11.971,1.115-26.579-10.855-32.565    c-5.799-2.9-12.379-3.368-18.531-1.317c-4.467,1.489-8.319,4.177-11.203,7.757v-0.912h-0.01C280.064,10.664,269.282,0,256.051,0    c-13.231,0-24.013,10.664-24.216,23.848h-0.105v1.368c-2.886-3.589-6.729-6.294-11.203-7.785    c-6.151-2.051-12.732-1.584-18.53,1.317c-11.97,5.985-16.84,20.594-10.856,32.565c0.001,0.003,0.003,0.005,0.004,0.009    l9.118,18.236c-0.064,0.065-0.127,0.133-0.191,0.197c-3.686,3.765-7.13,7.893-10.269,12.347c-0.168,0.238-0.324,0.489-0.49,0.729    c-5.655-1.551-11.5-2.345-17.455-2.345c-13.385,0-24.273,10.888-24.273,24.273c0,12.77,9.914,23.261,22.449,24.197    c-1.985,9.596-3.03,19.58-3.03,29.742c0,8.265,3.487,16.217,9.567,21.82c1.555,1.434,3.52,2.141,5.481,2.141    c2.181,0,4.357-0.877,5.952-2.607c3.028-3.286,2.819-8.405-0.467-11.433c-2.806-2.585-4.351-6.109-4.351-9.921    c0-25.234,7.047-49.124,19.843-67.271c1.836-2.604,3.79-5.074,5.845-7.394l0.002,0.002l0.371-0.413    c0.398-0.443,0.798-0.88,1.199-1.306l0.325-0.343c0.436-0.458,0.876-0.912,1.324-1.361l0.229-0.23    c0.484-0.482,0.973-0.956,1.463-1.419l-0.004-0.004c0.043-0.041,0.087-0.082,0.13-0.123l0.003,0.004    c0.538-0.506,1.081-1.002,1.629-1.489c0.046-0.041,0.081-0.09,0.126-0.132c0.236-0.219,0.455-0.451,0.66-0.691    c0.079-0.093,0.159-0.185,0.233-0.281c0.217-0.279,0.414-0.57,0.59-0.87c0.055-0.095,0.104-0.191,0.155-0.288    c0.149-0.281,0.284-0.567,0.398-0.861c0.031-0.08,0.064-0.157,0.093-0.237c0.112-0.318,0.198-0.643,0.27-0.971    c0.024-0.111,0.049-0.22,0.068-0.332c0.059-0.339,0.098-0.681,0.113-1.025c0.005-0.108,0.003-0.216,0.004-0.325    c0.002-0.334-0.012-0.668-0.051-1.001c-0.008-0.066-0.015-0.131-0.025-0.196c-0.051-0.358-0.132-0.712-0.232-1.064    c-0.022-0.076-0.041-0.152-0.065-0.228c-0.117-0.37-0.262-0.732-0.435-1.086c-0.014-0.029-0.021-0.059-0.036-0.089l-11.796-23.591    c-0.001-0.002-0.002-0.005-0.003-0.009c-1.996-3.99-0.372-8.86,3.618-10.856c1.932-0.967,4.126-1.123,6.176-0.439    c2.051,0.684,3.712,2.124,4.678,4.057c1.328,2.657,1.096,5.823-0.608,8.265c-0.477,0.684-1.056,1.287-1.722,1.792    c-3.559,2.701-4.254,7.777-1.552,11.336c1.591,2.097,4.007,3.2,6.45,3.2c1.705,0,3.424-0.537,4.886-1.647    c0.994-0.754,1.922-1.581,2.783-2.474l0.886,1.771c1.398,2.796,4.234,4.474,7.237,4.474c0.738,0,1.487-0.101,2.227-0.314    c0.442-0.126,0.886-0.247,1.331-0.364c3.941-1.024,6.506-4.817,5.991-8.856c-0.056-0.44-0.082-0.772-0.082-1.047V25.4    c0.056-0.384,0.095-0.775,0.095-1.175c0-4.435,3.609-8.043,8.043-8.043c4.435,0,8.043,3.609,8.043,8.043    c0,3.712-2.618,7.01-6.226,7.84c-4.355,1.001-7.074,5.343-6.071,9.698c0.861,3.744,4.192,6.28,7.877,6.28    c0.601,0,1.21-0.067,1.821-0.207c0.892-0.205,1.754-0.473,2.6-0.768v5.91c0,4.468,3.623,8.091,8.091,8.091    c0.655,0,1.305,0.024,1.955,0.058c3.217,0.156,6.216-1.586,7.653-4.462l10.125-20.25c0.966-1.933,2.628-3.373,4.679-4.057    c2.05-0.684,4.243-0.528,6.176,0.439c3.99,1.996,5.614,6.865,3.619,10.856l-9.201,18.402c-1.656,3.311-0.853,7.323,1.948,9.741    c3.931,3.394,7.571,7.511,10.887,12.289c-5.726,1.977-11.186,4.746-16.24,8.282c-1.893,1.326-4.233,1.594-6.282,0.725    c-4.159-2-8.627-3.624-13.28-4.828l-0.997-0.258h-1.03c-22.149,0-45.863,28.407-45.863,70.695c0,7.436-6.049,13.485-13.485,13.485    c-4.468,0-8.091,3.623-8.091,8.091c0,4.468,3.623,8.091,8.091,8.091c16.359,0,29.667-13.308,29.667-29.667    c0-7.436,6.049-13.485,13.485-13.485s13.485,6.049,13.485,13.485c0,7.954,3.105,15.423,8.744,21.033    c5.601,5.572,13.024,8.634,20.92,8.634c0.053,0,0.108,0,0.16,0c7.806-0.041,15.168-3.194,20.728-8.878    c3.986-4.076,6.742-9.22,8-14.733c1.724,0.88,3.295,1.961,4.775,2.979l0.611,0.42c41.18,28.151,65.671,73.19,65.517,120.479    c-0.033,10.363-1.182,20.697-3.413,30.715c-8.037,36.097-7.559,72.322,1.384,104.756c1.427,5.176,2.108,10.556,2.023,15.99    c-0.48,30.729-26.314,55.729-57.587,55.729H320.73c-114.508,0-207.667-93.159-207.667-207.667    c0-38.731,15.238-74.992,42.906-102.103c3.191-3.127,3.244-8.25,0.117-11.442c-3.126-3.191-8.25-3.245-11.442-0.117    c-30.8,30.18-47.762,70.545-47.762,113.661c0,123.431,100.418,223.849,223.849,223.849h20.618    c40.059,0,73.151-32.146,73.767-71.659c0.109-6.972-0.767-13.884-2.603-20.542C404.271,389.906,403.86,356.385,411.324,322.86z     M174.343,112.948c-0.825-0.06-1.654-0.1-2.486-0.1c-4.462,0-8.091-3.629-8.091-8.091c0-4.462,3.629-8.091,8.091-8.091    c3.005,0,5.971,0.269,8.88,0.792C178.297,102.409,176.152,107.582,174.343,112.948z M327.967,147.58    c-0.939-6.218-2.635-12.331-5.063-18.052c1.407-0.181,2.891-0.307,4.458-0.389c1.085,6.103,1.825,12.408,2.211,18.873    C329.05,147.856,328.515,147.711,327.967,147.58z M331.519,112.85c-4.16,0-7.871,0.235-11.345,0.719    c-4.951,0.688-9.187,3.57-11.624,7.906c-2.428,4.322-2.687,9.419-0.71,13.984c2.637,6.087,4.233,12.758,4.673,19.453    c0,0.004-0.001,0.01,0,0.014c0,0.016,0.003,0.031,0.003,0.047c0.059,0.914,0.099,1.827,0.115,2.74    c0.066,3.874-1.451,7.685-4.161,10.457c-2.513,2.569-5.795,3.994-9.243,4.011c-3.597,0.021-7.02-1.374-9.583-3.924    c-2.563-2.55-3.975-5.945-3.975-9.56c0-16.359-13.308-29.667-29.667-29.667c-3.017,0-5.931,0.456-8.677,1.298    c5.847-15.872,15.929-25.418,23.953-26.104c3.277,0.915,6.41,2.091,9.327,3.503l0.244,0.113    c7.189,3.188,15.701,2.338,22.212-2.218c1.38-0.966,2.802-1.847,4.256-2.661c-0.044,0.594-0.073,1.192-0.073,1.797    c0,4.468,3.623,8.091,8.091,8.091c4.468,0,8.091-3.623,8.091-8.091c0-4.462,3.629-8.091,8.091-8.091s8.091,3.629,8.091,8.091    C339.61,109.221,335.981,112.85,331.519,112.85z" fill="#000000"/>
	</g>
</g>
<g>
	<g>
		<circle cx="202.071" cy="315.125" r="16.182" fill="#000000"/>
	</g>
</g>
<g>
	<g>
		<circle cx="309.95" cy="315.125" r="16.182" fill="#000000"/>
	</g>
</g>
<g>
</g>
<g>
</g>
<g>
</g>
<g>
</g>
<g>
</g>
<g>
</g>
<g>
</g>
<g>
</g>
<g>
</g>
<g>
</g>
<g>
</g>
<g>
</g>
<g>
</g>
<g>
</g>
<g>
</g>
</svg>
