<?xml version="1.0" encoding="iso-8859-1"?>
<!-- Generator: Adobe Illustrator 16.0.0, SVG Export Plug-In . SVG Version: 6.00 Build 0)  -->
<!DOCTYPE svg PUBLIC "-//W3C//DTD SVG 1.1//EN" "http://www.w3.org/Graphics/SVG/1.1/DTD/svg11.dtd">
<svg xmlns="http://www.w3.org/2000/svg" xmlns:xlink="http://www.w3.org/1999/xlink" version="1.1" id="Capa_1" x="0px" y="0px" width="512px" height="512px" viewBox="0 0 342.694 342.694" style="enable-background:new 0 0 342.694 342.694;" xml:space="preserve">
<g>
	<path d="M140.551,239.964h70.277c3.075,0,5.561-2.486,5.561-5.561v-61.226h66.798c3.074,0,3.915-1.867,1.873-4.173L179.724,50.023   c-2.039-2.306-5.341-2.312-7.389-0.012L66.329,169.018c-2.048,2.305-1.213,4.161,1.861,4.161h66.797v61.237   C134.988,237.478,137.477,239.964,140.551,239.964z" fill="#000000"/>
	<path d="M318.759,57.743h-44.363c-13.211,0-23.936,9.376-23.936,20.941c0,11.565,0,20.945,0,20.945h50.345v152.885H41.887V99.629   h59.042V78.684c0-11.565-10.719-20.941-23.938-20.941H23.938C10.719,57.743,0,68.458,0,81.672v188.791   c0,13.217,10.719,23.941,23.938,23.941h294.82c13.211,0,23.936-10.713,23.936-23.941V81.672   C342.694,68.458,331.97,57.743,318.759,57.743z" fill="#000000"/>
</g>
<g>
</g>
<g>
</g>
<g>
</g>
<g>
</g>
<g>
</g>
<g>
</g>
<g>
</g>
<g>
</g>
<g>
</g>
<g>
</g>
<g>
</g>
<g>
</g>
<g>
</g>
<g>
</g>
<g>
</g>
</svg>
