<?xml version="1.0" encoding="iso-8859-1"?>
<!-- Generator: Adobe Illustrator 19.0.0, SVG Export Plug-In . SVG Version: 6.00 Build 0)  -->
<svg xmlns="http://www.w3.org/2000/svg" xmlns:xlink="http://www.w3.org/1999/xlink" version="1.1" id="Layer_1" x="0px" y="0px" viewBox="0 0 480 480" style="enable-background:new 0 0 480 480;" xml:space="preserve" width="512px" height="512px">
<g id="XMLID_521_">
	<g>
		<g>
			<path d="M470,460h-40v-20c0-11.028-8.972-20-20-20h-10V189.889c11.215-1.125,20-10.618,20-22.124     c0-8.572-5.011-16.469-12.768-20.119L250,73.654V50h10c5.523,0,10-4.477,10-10s-4.477-10-10-10h-10V10c0-5.523-4.477-10-10-10     s-10,4.477-10,10v20h-10c-5.523,0-10,4.477-10,10s4.477,10,10,10h10v23.654L72.767,147.646C65.011,151.296,60,159.193,60,167.765     c0,11.506,8.785,21,20,22.124V420H70c-11.028,0-20,8.972-20,20v20H10c-5.523,0-10,4.477-10,10s4.477,10,10,10h460     c5.523,0,10-4.477,10-10S475.523,460,470,460z M81.283,165.742L240,91.052l158.716,74.69c0.78,0.367,1.284,1.161,1.284,2.023     c0,1.232-1.003,2.235-2.235,2.235H390c-5.523,0-10,4.477-10,10v240h-30v-20c0-11.028-8.972-20-20-20V260c0-11.028-8.972-20-20-20     H170c-11.028,0-20,8.972-20,20v120c-11.028,0-20,8.972-20,20v20h-30V180c0-5.523-4.477-10-10-10h-7.765     c-1.232,0-2.235-1.003-2.235-2.235C80,166.903,80.504,166.109,81.283,165.742z M310,260v120h-60V260H310z M230,260v120h-60V260     H230z M410,460H70v-20h70c5.523,0,10-4.477,10-10v-30h180v30c0,5.523,4.477,10,10,10h70V460z" fill="#000000"/>
			<path d="M240,210c19.299,0,35-15.701,35-35s-15.701-35-35-35s-35,15.701-35,35S220.701,210,240,210z M240,160     c8.271,0,15,6.729,15,15s-6.729,15-15,15s-15-6.729-15-15S231.729,160,240,160z" fill="#000000"/>
		</g>
	</g>
</g>
<g>
</g>
<g>
</g>
<g>
</g>
<g>
</g>
<g>
</g>
<g>
</g>
<g>
</g>
<g>
</g>
<g>
</g>
<g>
</g>
<g>
</g>
<g>
</g>
<g>
</g>
<g>
</g>
<g>
</g>
</svg>
