<?xml version="1.0" encoding="iso-8859-1"?>
<!-- Generator: Adobe Illustrator 19.0.0, SVG Export Plug-In . SVG Version: 6.00 Build 0)  -->
<svg xmlns="http://www.w3.org/2000/svg" xmlns:xlink="http://www.w3.org/1999/xlink" version="1.1" id="Layer_1" x="0px" y="0px" viewBox="0 0 448 448" style="enable-background:new 0 0 448 448;" xml:space="preserve" width="512px" height="512px">
<g>
	<g>
		<path d="M248,315.996v24c0,13.236-10.764,24-24,24c-13.236,0-24-10.764-24-24v-24h-24v24c0,26.468,21.532,48,48,48    c26.464,0,48-21.532,48-48v-24H248z" fill="#000000"/>
	</g>
</g>
<g>
	<g>
		<path d="M149.588,286.02c-16.252,10.296-36.924,16.212-61.58,17.632L88.004,170.16c0.028-2.008,0.076-4.336,0.132-6.092    l0.224-3.296c2.036-29.992,13.968-58.692,33.592-80.812L104,64.032c-23.132,26.072-37.192,59.852-39.588,95.116l0.16,0.008    c-0.464,3.176-0.516,6.86-0.572,10.84v158h12c34.62,0,63.696-7.3,86.432-21.704L149.588,286.02z" fill="#000000"/>
	</g>
</g>
<g>
	<g>
		<path d="M379.996,169.832c-0.056-3.904-0.108-7.532-0.564-10.672l0.156-0.008c-2.28-33.58-15.272-65.04-37.564-90.976    l-18.2,15.648c18.892,21.972,29.892,48.58,31.82,76.952l0.224,3.304c0.056,1.74,0.104,4.016,0.132,5.916v133.66    c-24.656-1.42-45.328-7.336-61.572-17.628L281.58,306.3c22.72,14.396,51.796,21.696,86.42,21.696h12L379.996,169.832z" fill="#000000"/>
	</g>
</g>
<g>
	<g>
		<path d="M335.408,158.016c-0.9-2.208-23.092-54.02-115.408-54.02c-93.124,0-111.572,67.456-111.748,68.14    c-0.168,0.652-0.252,1.324-0.252,1.996v38.444c0,62.86,51.14,114,114,114c62.856,0,114-51.144,114-114v-51.54    C336,160,335.8,158.972,335.408,158.016z M320,212.572c0,54.04-43.964,98-98,98s-98-43.96-98-98v-37.284    c2.256-6.996,20.608-55.292,96-55.292c74.128,0,96.252,35.552,100,42.824V212.572z" fill="#000000"/>
	</g>
</g>
<g>
	<g>
		<circle cx="168" cy="212" r="12" fill="#000000"/>
	</g>
</g>
<g>
	<g>
		<circle cx="280" cy="212" r="12" fill="#000000"/>
	</g>
</g>
<g>
	<g>
		<path d="M192,251.996c0,16.572,13.428,32,30,32s30-15.428,30-32H192z" fill="#000000"/>
	</g>
</g>
<g>
	<g>
		<path d="M185.264,343.976c-1.052-0.048-101.8-3.284-136.476,87.748c-2.36,6.196,0.748,13.128,6.94,15.488    c1.404,0.536,2.848,0.788,4.268,0.788c4.836,0,9.392-2.944,11.216-7.732c28.44-74.656,109.576-72.424,113.052-72.316    c6.544,0.364,12.192-4.86,12.476-11.476C197.02,349.856,191.884,344.256,185.264,343.976z" fill="#000000"/>
	</g>
</g>
<g>
	<g>
		<path d="M399.212,431.72c-34.68-91.032-133.508-87.82-134.484-87.776c-6.62,0.284-11.756,5.888-11.468,12.508    c0.288,6.62,5.98,11.836,12.508,11.468c0.844-0.024,82.432-2.684,111.016,72.348c1.824,4.788,6.38,7.732,11.216,7.732    c1.42,0,2.864-0.252,4.272-0.792C398.464,444.848,401.572,437.916,399.212,431.72z" fill="#000000"/>
	</g>
</g>
<g>
	<g>
		<path d="M328,7.996H116c-4.42,0-8,3.584-8,8v158.132c0,4.22,3.276,7.716,7.488,7.984c0.172,0.012,0.344,0.016,0.516,0.016    c3.992,0,7.412-2.964,7.928-6.976c0.072-0.556,8.12-55.156,96.068-55.156c87.66,0,99.708,49.572,100.168,51.62    c0.832,4.016,4.576,6.808,8.648,6.336c4.08-0.416,7.184-3.856,7.184-7.956v-154C336,11.58,332.416,7.996,328,7.996z M320,139.68    c-15.236-17.18-44.524-35.684-100-35.684c-53.088,0-81.22,18.584-96,36.48V23.996h196V139.68z" fill="#000000"/>
	</g>
</g>
<g>
	<g>
		<path d="M220,39.996c-4.4,0-8,5.4-8,12v24c0,6.6,3.6,12,8,12c4.4,0,8-5.4,8-12v-24C228,45.396,224.4,39.996,220,39.996z" fill="#000000"/>
	</g>
</g>
<g>
	<g>
		<path d="M232,55.996h-24c-6.6,0-12,3.6-12,8c0,4.4,5.4,8,12,8h24c6.6,0,12-3.6,12-8C244,59.596,238.6,55.996,232,55.996z" fill="#000000"/>
	</g>
</g>
<g>
	<g>
		<path d="M332,0H112c-6.628,0-12,5.372-12,12v64c0,6.628,5.372,12,12,12c6.624,0,12-5.372,12-12V24h196v44c0,6.628,5.372,12,12,12    s12-5.372,12-12V12C344,5.372,338.628,0,332,0z" fill="#000000"/>
	</g>
</g>
<g>
</g>
<g>
</g>
<g>
</g>
<g>
</g>
<g>
</g>
<g>
</g>
<g>
</g>
<g>
</g>
<g>
</g>
<g>
</g>
<g>
</g>
<g>
</g>
<g>
</g>
<g>
</g>
<g>
</g>
</svg>
