<?xml version="1.0" encoding="iso-8859-1"?>
<!-- Generator: Adobe Illustrator 19.0.0, SVG Export Plug-In . SVG Version: 6.00 Build 0)  -->
<svg xmlns="http://www.w3.org/2000/svg" xmlns:xlink="http://www.w3.org/1999/xlink" version="1.1" id="Layer_1" x="0px" y="0px" viewBox="0 0 364.626 364.626" style="enable-background:new 0 0 364.626 364.626;" xml:space="preserve" width="512px" height="512px">
<g>
	<g>
		<g>
			<path d="M364.528,164.785L347.807,62.761c-2.361-14.408-14.672-24.866-29.272-24.866h-55.259l-1.101-15.016     c-0.862-11.767-10.779-20.984-22.578-20.984H125.029c-11.798,0-21.715,9.217-22.578,20.983l-1.101,15.017H46.092     c-14.6,0-26.911,10.458-29.272,24.866L0.099,164.785C0.033,165.186,0,165.592,0,165.998v142.959c0,4.142,3.358,7.5,7.5,7.5h6.923     v29.875c0,9.042,7.356,16.399,16.399,16.399h52.87c9.042,0,16.399-7.356,16.399-16.399v-29.875h29.414     c1.486,13.728,13.142,24.451,27.258,24.451h64.799c14.117,0,25.772-10.723,27.258-24.451h15.715v29.875     c0,9.042,7.356,16.399,16.399,16.399h52.87c9.042,0,16.399-7.356,16.399-16.399v-29.875h6.923c4.142,0,7.5-3.358,7.5-7.5V165.998     C364.626,165.592,364.593,165.186,364.528,164.785z M232.506,16.896h7.092c3.98,0,7.326,3.11,7.617,7.08l1.021,13.92h-15.73     V16.896z M147.121,16.896h70.384v21h-70.384V16.896z M117.412,23.974c0.291-3.97,3.637-7.08,7.618-7.08h7.092v21h-15.73     L117.412,23.974z M85.091,346.333c0,0.771-0.627,1.399-1.399,1.399h-52.87c-0.771,0-1.399-0.627-1.399-1.399v-29.875h55.668     V346.333z M221.562,325.908h-64.799c-5.824,0-10.711-4.034-12.048-9.451h88.895C232.273,321.874,227.386,325.908,221.562,325.908     z M335.203,346.333L335.203,346.333c0,0.771-0.627,1.399-1.399,1.399h-52.87c-0.771,0-1.399-0.627-1.399-1.399v-29.875h55.668     V346.333z M349.628,301.457H15v-16.861h297.338c4.142,0,7.5-3.358,7.5-7.5c0-4.142-3.358-7.5-7.5-7.5H15V166.609L31.623,65.186     c1.167-7.122,7.252-12.292,14.47-12.292h272.442c7.217,0,13.303,5.169,14.47,12.292l16.623,101.422V301.457z" fill="#000000"/>
			<path d="M318.674,59.896H45.954c-3.674,0-6.807,2.661-7.401,6.287L22.098,166.576c-0.356,2.172,0.26,4.391,1.685,6.068     c1.425,1.679,3.515,2.645,5.717,2.645h305.627c2.201,0,4.291-0.967,5.716-2.645c1.425-1.677,2.041-3.896,1.685-6.068     L326.075,66.183C325.481,62.558,322.347,59.896,318.674,59.896z M38.329,160.289l13.996-85.394h259.978l13.995,85.394H38.329z" fill="#000000"/>
			<path d="M341.596,274.222c-0.088-0.208-0.053-0.124-0.01-0.021c-1.758-4.124-6.822-5.821-10.705-3.57     c-4.221,2.447-4.86,8.325-1.515,11.771c2.484,2.411,6.312,2.883,9.272,1.052c3.078-1.904,4.331-5.863,2.968-9.205     C341.649,274.353,341.684,274.436,341.596,274.222z" fill="#000000"/>
			<path d="M58.362,195.095c-18.472,0-33.5,15.028-33.5,33.5c0,18.472,15.028,33.5,33.5,33.5s33.5-15.028,33.5-33.5     C91.862,210.123,76.834,195.095,58.362,195.095z M58.362,247.095c-10.201,0-18.5-8.299-18.5-18.5c0-10.201,8.299-18.5,18.5-18.5     s18.5,8.299,18.5,18.5C76.862,238.797,68.563,247.095,58.362,247.095z" fill="#000000"/>
			<path d="M339.764,228.595c0-18.472-15.028-33.5-33.5-33.5c-18.472,0-33.5,15.028-33.5,33.5c0,18.472,15.028,33.5,33.5,33.5     C324.736,262.095,339.764,247.068,339.764,228.595z M306.264,247.095c-10.201,0-18.5-8.299-18.5-18.5     c0-10.201,8.299-18.5,18.5-18.5s18.5,8.299,18.5,18.5C324.764,238.797,316.465,247.095,306.264,247.095z" fill="#000000"/>
			<path d="M215.588,202.81h-12.405v-12.405c0-4.142-3.358-7.5-7.5-7.5h-26.739c-4.142,0-7.5,3.358-7.5,7.5v12.405h-12.406     c-4.142,0-7.5,3.358-7.5,7.5v26.739c0,4.142,3.358,7.5,7.5,7.5h12.406v12.405c0,4.142,3.358,7.5,7.5,7.5h26.739     c4.142,0,7.5-3.358,7.5-7.5v-12.405h12.405c4.142,0,7.5-3.358,7.5-7.5V210.31C223.088,206.167,219.73,202.81,215.588,202.81z      M208.088,229.548h-12.405c-4.142,0-7.5,3.358-7.5,7.5v12.405h-11.739v-12.405c0-4.142-3.358-7.5-7.5-7.5h-12.406V217.81h12.406     c4.142,0,7.5-3.358,7.5-7.5v-12.405h11.739v12.405c0,4.142,3.358,7.5,7.5,7.5h12.405V229.548z" fill="#000000"/>
		</g>
	</g>
</g>
<g>
</g>
<g>
</g>
<g>
</g>
<g>
</g>
<g>
</g>
<g>
</g>
<g>
</g>
<g>
</g>
<g>
</g>
<g>
</g>
<g>
</g>
<g>
</g>
<g>
</g>
<g>
</g>
<g>
</g>
</svg>
