<?xml version="1.0" encoding="iso-8859-1"?>
<!-- Generator: Adobe Illustrator 19.0.0, SVG Export Plug-In . SVG Version: 6.00 Build 0)  -->
<svg xmlns="http://www.w3.org/2000/svg" xmlns:xlink="http://www.w3.org/1999/xlink" version="1.1" id="Layer_1" x="0px" y="0px" viewBox="0 0 511.999 511.999" style="enable-background:new 0 0 511.999 511.999;" xml:space="preserve" width="512px" height="512px">
<g>
	<g>
		<path d="M508.064,354.089l-48.32-26.602l14.225-83.693c0.375-2.209-0.241-4.47-1.686-6.182s-3.571-2.699-5.811-2.699H433.35    c0.001-0.347,0.008-0.695,0.008-1.04V122.299c0-2.799-1.537-5.372-4.002-6.697L261.621,25.351c-2.25-1.21-4.958-1.21-7.207,0    L86.677,115.602c-2.465,1.326-4.002,3.899-4.002,6.697v111.574c0,0.345,0.007,0.695,0.008,1.04H42.755    c-2.24,0-4.367,0.988-5.811,2.699c-1.444,1.711-2.062,3.973-1.686,6.182l14.461,85.091L3.937,354.089    c-2.38,1.31-3.88,3.79-3.936,6.506c-0.057,2.716,1.341,5.256,3.664,6.663l43.377,26.265l-1.005,50.698    c-0.054,2.716,1.346,5.255,3.67,6.66c1.208,0.73,2.571,1.096,3.935,1.096c1.262,0,2.524-0.314,3.668-0.943l85.27-46.946    c29.567,36.762,68.472,65.589,112.655,82.94c0.893,0.352,1.837,0.527,2.78,0.527s1.886-0.175,2.78-0.527    c43.551-17.103,81.996-45.377,111.41-81.406l82.484,45.41c1.144,0.629,2.406,0.943,3.668,0.943c1.364,0,2.726-0.366,3.935-1.096    c2.324-1.406,3.724-3.945,3.669-6.66l-1.004-50.698l43.377-26.265c2.323-1.408,3.721-3.948,3.664-6.663    C511.944,357.88,510.443,355.4,508.064,354.089z M405.63,120.108l12.517,6.735v107.03c0,0.347-0.007,0.694-0.008,1.04H405.63    V120.108z M129.402,109.887l128.615-69.201l132.402,71.238v122.99H129.402V109.887z M97.887,126.844l16.304-8.772v116.843H97.895    c-0.001-0.346-0.008-0.697-0.008-1.04V126.844z M457.463,250.126l-18.293,107.63H70.055l-18.292-107.63H457.463z M61.509,431.362    l0.831-41.921c0.054-2.714-1.343-5.251-3.665-6.656l-35.867-21.72l29.61-16.301l3.717,21.871c0.621,3.656,3.789,6.331,7.498,6.331    h57.315c3.856,6.474,7.976,12.768,12.343,18.874L61.509,431.362z M258.017,471.762c-48.828-19.844-90.635-54.587-119.17-98.794    h238.341C348.655,417.17,306.83,451.923,258.017,471.762z M453.327,382.784c-2.322,1.406-3.719,3.943-3.665,6.656l0.831,41.921    l-68.885-37.925c4.793-6.601,9.286-13.434,13.477-20.47h50.508c3.709,0,6.877-2.675,7.498-6.331l3.955-23.268l32.149,17.698    L453.327,382.784z" fill="#000000"/>
	</g>
</g>
<g>
	<g>
		<path d="M334.072,120.944H180.847c-11.122,0-20.17,9.049-20.17,20.17v0.739c0,11.122,9.049,20.169,20.17,20.169h153.226    c11.122,0,20.169-9.048,20.169-20.169v-0.739C354.241,129.993,345.194,120.944,334.072,120.944z M339.031,141.853L339.031,141.853    c-0.001,2.687-2.271,4.958-4.959,4.958H180.847c-2.687,0-4.959-2.27-4.959-4.958v-0.739c0-2.687,2.271-4.959,4.959-4.959h153.226    c2.687,0,4.958,2.271,4.958,4.959V141.853z" fill="#000000"/>
	</g>
</g>
<g>
	<g>
		<path d="M296.476,174.908h-76.912c-11.122,0-20.17,9.049-20.17,20.17v0.738c0,11.122,9.049,20.17,20.17,20.17h76.912    c11.122,0,20.169-9.049,20.169-20.17v-0.738C316.646,183.957,307.598,174.908,296.476,174.908z M301.434,195.816    c0,2.687-2.27,4.959-4.958,4.959h-76.912c-2.687,0-4.959-2.271-4.959-4.959v-0.738c0-2.687,2.271-4.959,4.959-4.959h76.912    c2.687,0,4.958,2.271,4.958,4.959V195.816z" fill="#000000"/>
	</g>
</g>
<g>
	<g>
		<path d="M356.408,282.255H158.422c-11.847,0-21.485,9.637-21.485,21.484v0.815c0.001,11.847,9.639,21.485,21.485,21.485h197.985    c11.847,0,21.484-9.638,21.484-21.485v-0.815C377.891,291.892,368.254,282.255,356.408,282.255z M362.681,304.555    c0,3.459-2.813,6.273-6.272,6.273H158.422c-3.459,0-6.273-2.813-6.273-6.273v-0.815h0.001c0-3.458,2.813-6.272,6.273-6.272    h197.986c3.458,0,6.272,2.813,6.272,6.272V304.555z" fill="#000000"/>
	</g>
</g>
<g>
</g>
<g>
</g>
<g>
</g>
<g>
</g>
<g>
</g>
<g>
</g>
<g>
</g>
<g>
</g>
<g>
</g>
<g>
</g>
<g>
</g>
<g>
</g>
<g>
</g>
<g>
</g>
<g>
</g>
</svg>
