<?xml version="1.0" encoding="iso-8859-1"?>
<!-- Generator: Adobe Illustrator 19.0.0, SVG Export Plug-In . SVG Version: 6.00 Build 0)  -->
<svg xmlns="http://www.w3.org/2000/svg" xmlns:xlink="http://www.w3.org/1999/xlink" version="1.1" id="Layer_1" x="0px" y="0px" viewBox="0 0 512 512" style="enable-background:new 0 0 512 512;" xml:space="preserve" width="512px" height="512px">
<g>
	<g>
		<circle cx="191.038" cy="266.381" r="11.026" fill="#000000"/>
	</g>
</g>
<g>
	<g>
		<circle cx="228.716" cy="228.688" r="11.026" fill="#000000"/>
	</g>
</g>
<g>
	<g>
		<circle cx="266.409" cy="191.009" r="11.026" fill="#000000"/>
	</g>
</g>
<g>
	<g>
		<circle cx="237.154" cy="274.819" r="11.026" fill="#000000"/>
	</g>
</g>
<g>
	<g>
		<circle cx="274.847" cy="237.141" r="11.026" fill="#000000"/>
	</g>
</g>
<g>
	<g>
		<circle cx="245.593" cy="320.935" r="11.026" fill="#000000"/>
	</g>
</g>
<g>
	<g>
		<circle cx="283.286" cy="283.257" r="11.026" fill="#000000"/>
	</g>
</g>
<g>
	<g>
		<circle cx="320.964" cy="245.579" r="11.026" fill="#000000"/>
	</g>
</g>
<g>
	<g>
		<path d="M478.625,317.45L271.592,110.418L333.07,48.94c35.829-35.829,94.128-35.83,129.96,0    c17.357,17.357,26.916,40.438,26.916,64.99c0,24.553-9.556,47.629-26.906,64.979l-42.731,42.731    c-4.306,4.306-4.306,11.287,0,15.592c2.152,2.152,4.975,3.23,7.796,3.23s5.644-1.076,7.796-3.23l42.731-42.731    c21.516-21.515,33.365-50.13,33.365-80.572c0-30.443-11.853-59.059-33.375-80.583c-44.426-44.427-116.717-44.426-161.145,0    l-61.477,61.478l-18.945-18.945c-4.306-4.306-11.287-4.306-15.592,0c-4.306,4.306-4.306,11.287,0,15.592l241.569,241.569    c17.357,17.357,26.917,40.435,26.917,64.982s-9.559,47.625-26.917,64.982c-35.833,35.83-94.133,35.83-129.964,0L48.969,178.908    c-35.83-35.832-35.83-94.134,0-129.964c35.832-35.832,94.133-35.832,129.964,0l17.544,17.544c4.306,4.306,11.287,4.306,15.592,0    c4.306-4.306,4.306-11.287,0-15.592l-17.544-17.544c-44.429-44.429-116.72-44.429-161.149,0    c-44.429,44.429-44.429,116.72,0,161.149l61.475,61.475l-61.472,61.472C11.855,338.969,0.001,367.587,0,398.027    c-0.001,30.44,11.85,59.055,33.37,80.574c22.216,22.217,51.399,33.325,80.583,33.325c29.183,0,58.365-11.108,80.581-33.325    l61.472-61.472l61.47,61.47c21.522,21.522,50.137,33.375,80.574,33.375c30.438,0,59.052-11.853,80.575-33.375    C500.148,457.077,512,428.462,512,398.024S500.147,338.972,478.625,317.45z M178.942,463.008    c-35.836,35.835-94.144,35.835-129.981,0c-17.354-17.353-26.91-40.432-26.91-64.979c0.001-24.55,9.561-47.631,26.92-64.99    l61.472-61.472l129.97,129.969L178.942,463.008z" fill="#000000"/>
	</g>
</g>
<g>
	<g>
		<path d="M245.382,129.804c-4.304-4.304-11.286-4.304-15.592,0l-99.961,99.961c-4.306,4.306-4.306,11.287,0,15.592    c2.152,2.152,4.975,3.23,7.796,3.23c2.821,0,5.644-1.076,7.796-3.23l99.961-99.961    C249.688,141.09,249.688,134.108,245.382,129.804z" fill="#000000"/>
	</g>
</g>
<g>
	<g>
		<path d="M382.169,266.594c-4.306-4.306-11.287-4.306-15.592,0l-99.96,99.96c-4.306,4.304-4.306,11.286,0,15.592    c2.152,2.152,4.975,3.23,7.796,3.23c2.821,0,5.644-1.076,7.796-3.23l99.96-99.96C386.475,277.88,386.475,270.898,382.169,266.594z    " fill="#000000"/>
	</g>
</g>
<g>
</g>
<g>
</g>
<g>
</g>
<g>
</g>
<g>
</g>
<g>
</g>
<g>
</g>
<g>
</g>
<g>
</g>
<g>
</g>
<g>
</g>
<g>
</g>
<g>
</g>
<g>
</g>
<g>
</g>
</svg>
