<?xml version="1.0" encoding="iso-8859-1"?>
<!-- Generator: Adobe Illustrator 19.1.0, SVG Export Plug-In . SVG Version: 6.00 Build 0)  -->
<svg xmlns="http://www.w3.org/2000/svg" xmlns:xlink="http://www.w3.org/1999/xlink" version="1.1" id="Capa_1" x="0px" y="0px" viewBox="0 0 31.058 31.058" style="enable-background:new 0 0 31.058 31.058;" xml:space="preserve" width="512px" height="512px">
<g>
	<g>
		<path d="M15.529,31.058c-0.244,0-0.477-0.1-0.646-0.277C14.416,30.284,3.431,18.567,3.431,12.098    C3.431,5.427,8.858,0,15.529,0c6.67,0,12.098,5.427,12.098,12.098c0,6.47-10.984,18.187-11.452,18.683    C16.007,30.958,15.773,31.058,15.529,31.058z M15.529,1.774c-5.692,0-10.323,4.631-10.323,10.323    c0,4.479,6.933,13.035,10.323,16.767c3.391-3.733,10.323-12.287,10.323-16.767C25.853,6.405,21.221,1.774,15.529,1.774z" fill="#000000"/>
	</g>
	<g>
		<path d="M15.529,15.884c-2.822,0-5.117-2.295-5.117-5.117c0-2.821,2.295-5.117,5.117-5.117    c2.821,0,5.117,2.296,5.117,5.117C20.646,13.589,18.351,15.884,15.529,15.884z M15.529,7.425c-1.844,0-3.343,1.499-3.343,3.342    c0,1.844,1.499,3.343,3.343,3.343c1.843,0,3.342-1.499,3.342-3.343C18.871,8.924,17.372,7.425,15.529,7.425z" fill="#000000"/>
	</g>
</g>
<g>
</g>
<g>
</g>
<g>
</g>
<g>
</g>
<g>
</g>
<g>
</g>
<g>
</g>
<g>
</g>
<g>
</g>
<g>
</g>
<g>
</g>
<g>
</g>
<g>
</g>
<g>
</g>
<g>
</g>
</svg>
