<?xml version="1.0" encoding="iso-8859-1"?>
<!-- Generator: Adobe Illustrator 18.1.1, SVG Export Plug-In . SVG Version: 6.00 Build 0)  -->
<svg xmlns="http://www.w3.org/2000/svg" xmlns:xlink="http://www.w3.org/1999/xlink" version="1.1" id="Capa_1" x="0px" y="0px" viewBox="0 0 791.911 791.911" style="enable-background:new 0 0 791.911 791.911;" xml:space="preserve" width="512px" height="512px">
<g>
	<path d="M669.618,119.852C669.618,118.964,669.618,118.964,669.618,119.852V47.941C669.618,22.017,648.488,0,621.677,0H170.145   c-25.924,0-47.941,21.129-47.941,47.941v68.094c0,0.977-0.977,2.841-0.977,3.818v530.19c0,1.953,0,2.841,0.977,3.818v90.111   c0,25.924,21.129,47.941,47.941,47.941h452.597c25.924,0,47.941-21.129,47.941-47.941v-92.863v-0.977V119.852H669.618z    M157.628,137.164h476.567v494.767H157.628V137.164z M170.145,35.512h452.597c6.747,0,12.429,5.771,12.429,12.429v54.688H157.628   V47.941C157.628,40.306,163.398,35.512,170.145,35.512z M622.653,756.577H170.145c-6.747,0-12.429-5.771-12.429-12.429v-76.705   h476.567v76.705C634.195,750.806,629.401,756.577,622.653,756.577z M413.667,712.454c0,10.565-8.612,20.153-20.153,20.153   c-10.565,0-20.153-8.612-20.153-20.153c0-10.565,8.612-20.153,20.153-20.153C405.055,692.301,413.667,701.889,413.667,712.454z" fill="#000000"/>
</g>
<g>
</g>
<g>
</g>
<g>
</g>
<g>
</g>
<g>
</g>
<g>
</g>
<g>
</g>
<g>
</g>
<g>
</g>
<g>
</g>
<g>
</g>
<g>
</g>
<g>
</g>
<g>
</g>
<g>
</g>
</svg>
