<?xml version="1.0" standalone="no"?>
<!DOCTYPE svg PUBLIC "-//W3C//DTD SVG 20010904//EN"
 "http://www.w3.org/TR/2001/REC-SVG-20010904/DTD/svg10.dtd">
<svg version="1.0" xmlns="http://www.w3.org/2000/svg"
 width="512.000000pt" height="512.000000pt" viewBox="0 0 512.000000 512.000000"
 preserveAspectRatio="xMidYMid meet">
<metadata>
Created by potrace 1.11, written by Peter Selinger 2001-2013
</metadata>
<g transform="translate(0.000000,512.000000) scale(0.100000,-0.100000)"
fill="#000000" stroke="none">
<path d="M1097 5064 c-1 -1 -27 -5 -57 -8 -430 -51 -800 -360 -934 -781 -25
-80 -31 -110 -45 -218 -4 -32 -7 -720 -6 -1530 1 -1470 1 -1472 23 -1572 71
-329 271 -599 565 -764 85 -47 231 -100 325 -116 20 -4 48 -9 62 -12 14 -3
691 -6 1505 -7 1591 -3 1558 -4 1730 49 232 71 451 232 593 438 66 95 102 167
140 282 58 171 57 142 56 1747 -1 810 -4 1493 -8 1518 -44 297 -203 567 -435
744 -141 106 -284 171 -470 213 -69 15 -204 17 -1559 18 -815 1 -1483 1 -1485
-1z m2998 -435 c130 -33 242 -97 343 -195 17 -18 32 -34 32 -37 0 -4 11 -18
24 -32 13 -14 43 -61 65 -104 37 -72 49 -106 71 -206 5 -22 9 -689 9 -1485 0
-1615 4 -1522 -71 -1680 -42 -88 -84 -146 -153 -214 -90 -87 -239 -163 -360
-184 -22 -4 -706 -7 -1520 -7 -1419 0 -1482 1 -1540 19 -85 26 -199 84 -240
122 -19 17 -35 30 -35 27 0 -3 -15 10 -33 28 -99 102 -164 215 -197 344 -19
79 -20 104 -17 1565 l2 1485 28 80 c48 136 155 286 251 351 93 63 118 76 181
98 39 13 88 28 110 34 25 6 594 10 1505 10 1443 2 1466 1 1545 -19z"/>
<path d="M2010 3924 c0 -6 -119 -9 -295 -9 l-295 0 0 -100 c-2 -1177 1 -2589
5 -2594 3 -3 139 -5 301 -6 287 0 295 1 299 20 2 11 3 247 2 523 -1 277 1 509
4 514 7 12 487 17 505 5 6 -3 15 -3 21 1 14 9 521 7 530 -2 4 -3 7 -244 7
-534 l1 -527 303 0 c262 0 302 2 302 15 0 22 0 2174 0 2450 l0 235 -300 0
c-165 0 -301 -2 -302 -5 0 -3 -2 -252 -4 -555 -1 -302 -3 -554 -3 -560 -1 -7
-185 -10 -531 -10 -469 -1 -530 1 -531 15 0 8 -1 263 -2 567 -1 303 -5 555 -9
559 -5 4 -8 3 -8 -2z"/>
</g>
</svg>
