<svg xmlns="http://www.w3.org/2000/svg" style="display: none;"><symbol id="substract" viewBox="0 0 42 42"><title>substract</title><rect y="20" width="42" height="2" fill="#000000"/></symbol><symbol id="add" viewBox="0 0 42 42"><title>add</title><polygon points="42,20 22,20 22,0 20,0 20,20 0,20 0,22 20,22 20,42 22,42 22,22 42,22 " fill="#000000"/></symbol><symbol id="research" viewBox="0 0 470 470"><title>research</title><path d="M194.96,15h82.137c4.142,0,7.5-3.358,7.5-7.5s-3.358-7.5-7.5-7.5H194.96c-4.142,0-7.5,3.358-7.5,7.5S190.818,15,194.96,15z " fill="#000000"/><path d="M414.378,455h-23.06v-44.166c23.748-3.625,42-24.187,42-48.932s-18.252-45.307-42-48.932V208.935 c0-46.682-37.979-84.661-84.661-84.661h-22.06V37.5c0-4.142-3.358-7.5-7.5-7.5H194.96c-4.142,0-7.5,3.358-7.5,7.5v156.295h-2.5 c-4.142,0-7.5,3.358-7.5,7.5s3.358,7.5,7.5,7.5h13.687v27.3c0,4.142,3.358,7.5,7.5,7.5h59.764c4.142,0,7.5-3.358,7.5-7.5v-27.3 h13.687c4.142,0,7.5-3.358,7.5-7.5s-3.358-7.5-7.5-7.5h-2.5v-54.521h22.06c38.411,0,69.661,31.25,69.661,69.661V312.97 c-23.748,3.625-42,24.187-42,48.932s18.252,45.307,42,48.932V455H52.984c3.083-8.575,11.297-14.723,20.92-14.723h279.914 c4.142,0,7.5-3.358,7.5-7.5s-3.358-7.5-7.5-7.5H273.41V293.596h62.16v2.5c0,4.142,3.358,7.5,7.5,7.5s7.5-3.358,7.5-7.5v-87.161 c0-24.214-19.7-43.914-43.914-43.914c-4.142,0-7.5,3.358-7.5,7.5s3.358,7.5,7.5,7.5c15.943,0,28.914,12.971,28.914,28.914v69.661 H153.984c-4.142,0-7.5,3.358-7.5,7.5s3.358,7.5,7.5,7.5H258.41v100.622h-52.264c-4.142,0-7.5,3.358-7.5,7.5s3.358,7.5,7.5,7.5 h52.264v16.06H73.904c-20.524,0-37.222,16.698-37.222,37.223c0,4.142,3.358,7.5,7.5,7.5h370.196c4.142,0,7.5-3.358,7.5-7.5 S418.52,455,414.378,455z M258.41,228.596h-44.764v-19.8h44.764V228.596z M202.46,193.795V45h67.137v148.795H202.46z M349.318,361.902c0-19.021,15.473-34.496,34.494-34.5c0.002,0,0.004,0,0.006,0s0.004,0,0.006,0 c19.021,0.003,34.494,15.479,34.494,34.5c0,19.023-15.477,34.5-34.5,34.5S349.318,380.926,349.318,361.902z" fill="#000000"/></symbol><symbol id="stethoscope-1" viewBox="0 0 512 512"><title>stethoscope-1</title><g> <g> <path d="M304.959,285.207c-4.913,1.776-7.454,7.198-5.678,12.112c1.777,4.913,7.202,7.454,12.112,5.677 c28.086-10.157,52.244-29.766,68.023-55.212c2.807-4.524,3.6-10.049,2.18-15.159c-1.388-4.993-4.806-9.212-9.384-11.629 c18.872-39.954,28.818-84.107,28.818-128.304c0-14.929-7.775-28.881-22.584-40.716l0.994-1.945 c2.289-4.476,2.676-9.562,1.09-14.325c-1.603-4.809-5.013-8.694-9.605-10.939l-12.436-6.079 C352.41,6.926,339.946-0.461,326.274,0.022h-0.001c-17.813,0.614-32.525,14.803-33.492,32.302 c-0.518,9.391,2.773,18.345,9.269,25.208c6.559,6.932,15.842,10.907,25.464,10.907c1.386,0,2.788-0.087,4.197-0.26l13.918,6.805 c2.68,1.309,5.531,1.93,8.345,1.93c6,0,11.825-2.825,15.442-7.794c6.84,6.124,12.697,14.116,12.697,23.571 c0,41.208-9.234,82.372-26.748,119.664l-0.238-0.122c-8.75-4.482-19.295-1.638-24.526,6.604 c-14.298,22.517-38.041,35.433-65.139,35.433c-27.097,0-50.84-12.915-65.137-35.432c-5.234-8.248-15.78-11.088-24.526-6.606 l-0.24,0.122c-17.514-37.292-26.749-78.456-26.749-119.664c0-9.456,5.858-17.447,12.697-23.571 c3.618,4.969,9.442,7.794,15.442,7.794c2.812,0,5.665-0.62,8.345-1.929l13.918-6.805c1.409,0.173,2.811,0.26,4.197,0.26 c9.623,0,18.905-3.975,25.464-10.907c6.495-6.863,9.787-15.817,9.269-25.209c-0.967-17.498-15.679-31.687-33.492-32.301h-0.001 c-13.691-0.483-26.135,6.901-32.215,18.667l-12.438,6.08c-4.59,2.244-8,6.128-9.602,10.938c-1.586,4.763-1.199,9.851,1.088,14.324 l0.995,1.946c-14.81,11.836-22.584,25.787-22.584,40.715c0,44.197,9.945,88.349,28.818,128.304 c-4.578,2.418-7.995,6.637-9.384,11.629c-1.421,5.111-0.627,10.639,2.18,15.164c19.437,31.337,50.728,53.072,86.64,60.452 c6.7,44.107,45.04,77.66,90.368,77.66c19.12,0,34.678,15.555,34.68,34.674c0.001,9.019-3.648,17.613-10.274,24.197 c-6.718,6.674-15.879,10.487-25.168,10.487c-0.077,0-0.154,0-0.231-0.001c-29.167-0.198-57.055-9.119-80.651-25.797 c-4.269-3.014-10.168-2-13.184,2.265c-3.015,4.266-2,10.168,2.265,13.184c26.771,18.92,58.39,29.039,91.443,29.265 c0.119,0,0.236,0.001,0.354,0.001c14.25,0,28.266-5.814,38.503-15.984c10.229-10.162,15.862-23.521,15.86-37.619 c-0.005-29.549-24.048-53.588-53.597-53.588c-37.939,0-69.704-29.636-72.316-67.47c-0.305-4.428-3.65-8.048-8.04-8.703 c-33.414-4.989-62.784-24.303-80.578-52.993c-0.016-0.025-0.052-0.083-0.052-0.1l16.887-8.635 c17.847,28.033,47.377,44.106,81.042,44.106s63.2-16.078,81.047-44.113l8.67,4.428c0.049,0.026,0.092,0.057,0.143,0.082 c0.043,0.023,0.088,0.037,0.131,0.058l7.917,4.043c0.023,0.048-0.013,0.103-0.026,0.127 C349.792,259.659,329.059,276.491,304.959,285.207z M357.991,50.44c-0.005,0.01-0.011,0.021-0.016,0.032l-3.832,7.509 c-0.003,0.001-0.102,0.062-0.207,0.01l-16.648-8.138c-1.302-0.636-2.723-0.961-4.154-0.961c-0.685,0-1.371,0.074-2.048,0.224 c-1.223,0.271-2.425,0.409-3.573,0.409c-4.513,0-8.679-1.773-11.726-4.993c-2.885-3.051-4.35-7.016-4.121-11.165 c0.433-7.816,7.134-14.16,15.257-14.441c6.901-0.19,13.129,3.819,15.489,10.091c0.85,2.259,2.531,4.107,4.7,5.168l15.348,7.502 L357.991,50.44z M183.807,34.186c2.169-1.061,3.85-2.909,4.7-5.168c2.359-6.274,8.559-10.321,15.489-10.091 c8.122,0.282,14.824,6.625,15.257,14.44c0.229,4.15-1.235,8.115-4.121,11.166c-3.047,3.22-7.212,4.993-11.726,4.993 c-1.148,0-2.349-0.137-3.573-0.409c-2.093-0.465-4.278-0.204-6.202,0.737l-16.648,8.138c-0.071,0.035-0.139,0.02-0.165,0.02 c-0.006,0-0.01,0-0.011,0.003l-8.349-16.325L183.807,34.186z" fill="#000000"/> </g> </g><g> <g> <path d="M393.41,356.229c-17.316-17.463-40.364-27.08-64.896-27.08c-17.405,0-32.187-13.011-34.388-30.267 c-0.66-5.182-5.415-8.855-10.578-8.186c-5.182,0.66-8.848,5.396-8.186,10.578c3.4,26.675,26.25,46.792,53.151,46.792 c19.449,0,37.726,7.63,51.464,21.483c13.736,13.849,21.209,32.192,21.047,51.648c-0.159,18.957-7.895,36.886-21.781,50.485 c-13.921,13.631-32.883,21.401-52.157,21.401c-0.301,0-0.604-0.001-0.904-0.005c-45.098-0.569-87.994-17.893-120.784-48.781 c-0.039-0.038-0.079-0.076-0.121-0.112l-1.912-1.739c-3.09-2.81-7.656-3.261-11.236-1.111c-8.293,4.984-17.823,7.618-27.56,7.618 c-29.554,0-53.597-24.043-53.597-53.597c0-29.554,24.043-53.597,53.597-53.597c29.554,0,53.597,24.043,53.597,53.597 c0,6.591-1.18,13.021-3.507,19.115c-1.864,4.88,0.583,10.346,5.462,12.211c4.884,1.861,10.347-0.584,12.211-5.462 c3.153-8.256,4.752-16.958,4.752-25.864c0-39.985-32.529-72.514-72.514-72.514s-72.514,32.529-72.514,72.514 s32.529,72.514,72.514,72.514c10.757,0,21.334-2.381,30.971-6.934c35.829,32.347,81.968,50.445,130.402,51.055 c0.38,0.005,0.758,0.008,1.136,0.008c24.187,0,47.965-9.731,65.397-26.801c17.509-17.145,27.261-39.817,27.463-63.843 C420.146,396.816,410.725,373.688,393.41,356.229z" fill="#000000"/> </g> </g><g> <g> <path d="M164.57,360.677c-19.122,0-34.68,15.558-34.68,34.68c0,19.122,15.558,34.68,34.68,34.68 c7.505,0,14.654-2.368,20.675-6.849c4.191-3.12,5.06-9.045,1.941-13.234c-3.12-4.191-9.045-5.06-13.234-1.941 c-2.732,2.033-5.975,3.107-9.38,3.107c-8.693,0-15.764-7.071-15.764-15.764c0-8.693,7.071-15.764,15.763-15.764 c8.693,0,15.764,7.071,15.764,15.764c0,5.225,4.234,9.458,9.458,9.458s9.458-4.234,9.458-9.458 C199.25,376.235,183.692,360.677,164.57,360.677z" fill="#000000"/> </g> </g></symbol><symbol id="stethoscope" viewBox="0 0 60 60"><title>stethoscope</title><path d="M46.5,31c-4.072,0-7.436,3.06-7.931,7H27.5v-6.125c1.04-0.259,1.939-0.918,2.506-1.873l12.92-21.851 c0.756-1.275,0.769-2.806,0.035-4.094S40.904,2,39.421,2h-2.272C36.585,0.822,35.391,0,34,0c-1.596,0-5.5,1.227-5.5,3.5 S32.404,7,34,7c1.758,0,3.204-1.308,3.449-3h1.971c0.755,0,1.429,0.392,1.802,1.048c0.374,0.655,0.367,1.435-0.018,2.085 l-12.92,21.851C27.907,29.62,27.24,30,26.5,30s-1.407-0.38-1.791-1.026L11.428,7.132c-0.385-0.649-0.392-1.429-0.018-2.084 C11.784,4.392,12.458,4,13.212,4h2.338C15.796,5.692,17.242,7,19,7c1.596,0,5.5-1.227,5.5-3.5S20.596,0,19,0 c-1.391,0-2.585,0.822-3.149,2h-2.639c-1.483,0-2.806,0.77-3.54,2.058S8.951,6.876,9.713,8.161l13.282,21.842 c0.566,0.955,1.465,1.613,2.505,1.872V38h-9c-6.065,0-11,4.935-11,11s4.935,11,11,11s11-4.935,11-11v-9h11.069 c0.495,3.94,3.859,7,7.931,7c4.411,0,8-3.589,8-8S50.911,31,46.5,31z M34,5c-1.234,0-3.358-0.989-3.498-1.5 C30.642,2.989,32.766,2,34,2c0.827,0,1.5,0.673,1.5,1.5S34.827,5,34,5z M19,2c1.234,0,3.358,0.989,3.498,1.5 C22.358,4.011,20.234,5,19,5c-0.827,0-1.5-0.673-1.5-1.5S18.173,2,19,2z M25.5,49c0,4.963-4.038,9-9,9s-9-4.037-9-9s4.038-9,9-9h9 V49z M46.5,45c-3.309,0-6-2.691-6-6s2.691-6,6-6s6,2.691,6,6S49.809,45,46.5,45z" fill="#000000"/><path d="M46.5,35c-2.206,0-4,1.794-4,4s1.794,4,4,4s4-1.794,4-4S48.706,35,46.5,35z M46.5,41c-1.103,0-2-0.897-2-2s0.897-2,2-2 s2,0.897,2,2S47.603,41,46.5,41z" fill="#000000"/></symbol><symbol id="heart" viewBox="0 0 59.882 59.882"><title>heart</title><path d="M52.045,26.18l-0.352-0.082l0.246-0.263c0.921-0.988,0.868-2.542-0.119-3.466l-0.802-0.748 c-0.479-0.446-1.104-0.686-1.757-0.657c-0.655,0.022-1.262,0.298-1.709,0.776l-2.439,2.614c-1.469-2.093-3.421-4.004-6.088-5.634 c0.96-0.171,1.739-0.377,2.409-0.759h5.506c2.206,0,4-1.794,4-4s-1.794-4-4-4h-5.999c-0.721-0.343-1.583-0.515-2.763-0.528 c-0.207-0.002-0.394-0.141-0.463-0.346c-0.162-0.471-0.347-0.932-0.554-1.377l0.921-0.921c1.56-1.56,1.56-4.097,0-5.656 c-1.511-1.511-4.145-1.513-5.657,0l-1.079,1.079c-2.013-0.593-4.131-0.275-6.029,0.915c-0.161,0.103-0.398,0.04-0.53-0.134 c-0.481-0.643-1.063-1.363-1.875-1.776c-1.179-0.598-2.931-0.039-3.799,0.551c-0.793,0.54-0.809,1.708-0.589,3.297 c0.08,0.579,0.27,1.172,0.452,1.746c0.114,0.359,0.282,0.888,0.35,1.24l0.005,0.226c0.002,0.066-0.001,0.103,0.002,0.112 c-0.022,0.031-0.057,0.061-0.086,0.092c-0.032,0.033-0.059,0.067-0.1,0.099c-0.038,0.031-0.087,0.059-0.132,0.089 c-0.049,0.032-0.093,0.065-0.149,0.096c-0.052,0.029-0.113,0.055-0.171,0.082c-0.06,0.029-0.116,0.058-0.181,0.085 c-0.068,0.028-0.142,0.052-0.215,0.078c-0.063,0.022-0.123,0.047-0.19,0.067c-0.085,0.026-0.176,0.048-0.265,0.071 c-0.059,0.015-0.116,0.033-0.176,0.046c-0.104,0.023-0.209,0.04-0.315,0.057c-0.048,0.008-0.096,0.019-0.145,0.026 C17.09,9.293,16.97,9.302,16.85,9.31c-0.033,0.002-0.067,0.008-0.099,0.009c-0.152,0.007-0.301,0.006-0.444-0.004 c-0.229-0.014-0.449-0.022-0.662-0.02l-4.742-4.742C9.975,3.627,8.358,3.629,7.435,4.553L6.658,5.329 c-0.956,0.956-0.956,2.511,0,3.467l4.828,4.827c-0.006,0.103-0.011,0.207-0.014,0.316c-0.073,3.128-0.148,6.363-1.19,9.102 c-0.191,0.502-0.37,1.018-0.542,1.55c-0.146,0.443-0.275,0.883-0.399,1.322c-0.014,0.05-0.03,0.095-0.044,0.145l-0.087,0.312 c-0.038,0.142-0.084,0.286-0.12,0.428l-0.252,0.904l0.055-0.013c-1.791,8.142,0.227,15.418,6.06,21.676 c6.581,7.06,15.168,10.519,26.168,10.519c1.27,0,2.573-0.046,3.908-0.138c3.628-0.251,5.834-2.583,5.902-6.238 c0.049-2.648-0.128-5.515-0.525-8.517v-0.001c-0.158-1.196-0.293-2.404-0.428-3.614c-0.371-3.326-0.754-6.693-1.63-9.894 l2.335,0.543c0.186,0.044,0.374,0.065,0.561,0.065c0.452,0,0.896-0.127,1.29-0.371c0.556-0.347,0.943-0.889,1.092-1.526 l0.249-1.068C54.183,27.808,53.362,26.487,52.045,26.18z M39.941,11.962h3.556c-0.344,0.591-0.556,1.268-0.556,2 s0.212,1.409,0.556,2h-3.556c-1.103,0-2-0.897-2-2S38.838,11.962,39.941,11.962z M48.941,13.962c0,1.103-0.897,2-2,2s-2-0.897-2-2 s0.897-2,2-2S48.941,12.859,48.941,13.962z M8.073,7.382C8.019,7.328,7.99,7.27,7.97,7.216c-0.018-0.049-0.03-0.101-0.03-0.153 l0-0.001c0-0.052,0.012-0.104,0.03-0.154C7.99,6.855,8.019,6.798,8.073,6.744L8.85,5.967c0.114-0.114,0.248-0.132,0.318-0.132 c0.069,0,0.204,0.018,0.319,0.133l5.369,5.369l0.451-0.029c0.264-0.018,0.555-0.018,0.875,0.004 c0.169,0.01,0.352,0.012,0.545,0.006c0.115-0.004,0.239-0.016,0.36-0.026c0.083-0.007,0.162-0.011,0.248-0.021 c0.125-0.015,0.252-0.037,0.38-0.059c0.091-0.015,0.18-0.028,0.272-0.047c0.121-0.024,0.24-0.056,0.361-0.087 c0.102-0.026,0.204-0.051,0.305-0.082c0.112-0.034,0.221-0.073,0.331-0.112c0.109-0.039,0.216-0.079,0.322-0.124 c0.1-0.042,0.197-0.088,0.294-0.135c0.109-0.053,0.214-0.11,0.316-0.17c0.087-0.051,0.171-0.104,0.252-0.16 c0.1-0.068,0.193-0.141,0.284-0.217c0.073-0.061,0.143-0.121,0.209-0.187c0.03-0.03,0.067-0.055,0.096-0.086 c1.679,1.364,3.095,3.335,2.236,5.831c-0.973,2.828-6.151,7.303-11.216,9.177c0.122-0.353,0.237-0.704,0.373-1.062 c1.164-3.06,1.247-6.622,1.321-9.767c0.005-0.234,0.024-0.441,0.044-0.649l0.043-0.468L8.073,7.382z M47.992,41.596 c0.136,1.224,0.272,2.445,0.433,3.655c0.385,2.904,0.556,5.669,0.508,8.218c-0.048,2.583-1.482,4.104-4.039,4.279 C32.629,58.596,23.322,55.405,16.417,48c-5.659-6.07-7.424-12.922-5.354-20.862c5.725-1.619,12.445-6.847,13.823-10.851 c1.082-3.144-0.202-6.177-3.606-8.588c-0.083-0.489-0.239-0.995-0.398-1.495c-0.157-0.493-0.319-1.004-0.377-1.413 c-0.121-0.879-0.111-1.293-0.09-1.477c0.574-0.311,1.365-0.426,1.591-0.313c0.429,0.218,0.834,0.729,1.182,1.193 c0.752,1.001,2.153,1.28,3.192,0.628c1.568-0.982,3.251-1.167,4.867-0.531l0.61,0.24l1.982-1.983c0.779-0.781,2.05-0.779,2.829,0 s0.779,2.049,0,2.828l-1.952,1.952l0.348,0.653c0.294,0.553,0.55,1.144,0.759,1.754c0.218,0.639,0.678,1.147,1.254,1.437 c-0.087,0.089-0.156,0.193-0.234,0.29c-0.076,0.094-0.161,0.182-0.229,0.283c-0.08,0.119-0.139,0.25-0.205,0.378 c-0.052,0.1-0.114,0.193-0.158,0.297c-0.064,0.153-0.104,0.316-0.149,0.478c-0.025,0.09-0.063,0.174-0.081,0.266 c-0.053,0.258-0.081,0.525-0.081,0.798c0,0.297,0.038,0.585,0.1,0.864c0.02,0.091,0.055,0.175,0.082,0.263 c0.054,0.184,0.113,0.365,0.192,0.536c0.045,0.097,0.099,0.186,0.151,0.279c0.085,0.151,0.174,0.297,0.276,0.435 c0.066,0.089,0.137,0.171,0.21,0.254c0.111,0.126,0.228,0.244,0.354,0.355c0.047,0.041,0.083,0.093,0.132,0.132 c-0.426,0.253-0.729,0.678-0.822,1.192c-0.137,0.747,0.202,1.476,0.863,1.855c2.686,1.548,4.623,3.384,6.05,5.431l0.26,0.402 c0.028,0.042,0.053,0.086,0.081,0.128c0.84,1.306,1.519,2.729,2.073,4.348l0.18,0.525l0.005,0.001 C47.177,34.276,47.58,37.891,47.992,41.596z M51.929,28.67l-0.249,1.068c-0.037,0.159-0.143,0.244-0.201,0.281 c-0.06,0.037-0.182,0.092-0.341,0.057l-3.489-0.813c-0.002-0.005-0.004-0.009-0.005-0.013c-0.395-1.079-0.858-2.134-1.422-3.151 l2.795-2.993c0.11-0.119,0.244-0.141,0.313-0.144c0.07,0.005,0.206,0.01,0.324,0.122l0.802,0.747 c0.182,0.17,0.191,0.457,0.021,0.639l-2.605,2.792l3.719,0.865C51.833,28.185,51.985,28.428,51.929,28.67z" fill="#000000"/><path d="M43.386,44.13l-2.503,1.669c-1.7-0.897-3.228-1.843-4.584-2.837h3.641c0.553,0,1-0.447,1-1s-0.447-1-1-1h-6 c-0.022,0-0.04,0.011-0.062,0.012c-2.598-2.42-4.278-5.082-5.016-7.964c-0.379-1.482-0.467-2.902-0.388-4.212 c0.012-0.008,0.027-0.009,0.039-0.017c1.757-1.228,3.807-1.224,6.099,0.005c0.81,0.434,1.631,1.019,2.44,1.721 c-0.071,0.139-0.111,0.293-0.111,0.453v4c0,0.553,0.447,1,1,1s1-0.447,1-1v-2.56c0.578,0.658,1.141,1.367,1.675,2.132 c0.194,0.278,0.505,0.428,0.821,0.428c0.197,0,0.396-0.059,0.571-0.18c0.453-0.316,0.563-0.939,0.248-1.393 c-0.697-0.998-1.442-1.918-2.215-2.754l2.499-1.874c0.442-0.331,0.532-0.958,0.2-1.399c-0.331-0.443-0.959-0.531-1.399-0.2 l-2.74,2.055c-1.001-0.898-2.027-1.647-3.045-2.193c-2.386-1.28-4.682-1.485-6.735-0.654c0.652-2.89,1.925-4.813,1.946-4.845 c0.31-0.456,0.192-1.078-0.264-1.389c-0.454-0.312-1.076-0.195-1.388,0.26c-0.16,0.235-3.82,5.709-2.296,12.607 c-0.156,0.038-0.306,0.1-0.433,0.214c-4.425,3.971-4.586,11.064-0.43,15.982l-0.016,2.756c-0.003,0.553,0.442,1.003,0.994,1.006 c0.002,0,0.004,0,0.006,0c0.55,0,0.997-0.444,1-0.994l0.011-2.006h1.989c0.553,0,1-0.447,1-1s-0.447-1-1-1h-2.4 c-3.403-3.972-3.444-9.622-0.135-12.938c1.033,2.828,2.88,5.435,5.535,7.801v5.137c0,0.553,0.447,1,1,1s1-0.447,1-1v-3.513 c1.478,1.099,3.144,2.14,5,3.121v2.393c0,0.553,0.447,1,1,1s1-0.447,1-1v-2.465l2.555-1.703c0.46-0.307,0.584-0.927,0.277-1.387 C44.467,43.947,43.847,43.824,43.386,44.13z" fill="#000000"/></symbol><symbol id="kidneys" viewBox="0 0 216.837 216.837"><title>kidneys</title><path d="M210.11,48.914c-13.344-33.361-37.267-33.108-58.298-32.911c-1.673,0.018-3.338,0.034-4.995,0.034 c-14.603,0-27.434,7.236-31.211,17.598c-2.596,7.134-0.331,14.378,6.215,19.874c6.68,5.611,12.255,7.169,16.738,8.424 c5.788,1.62,9.616,2.691,14.678,12.425c1.914,3.679,2.367,7.479,2.089,11.315c-3.901-0.302-10.488,0.083-17.347,4.582 c-11.399,7.473-18.722,22.922-21.773,45.918c-7.568,57.084,11.139,63.948,13.297,64.542c0.359,0.101,0.722,0.148,1.077,0.148 c1.772-0.002,3.397-1.178,3.891-2.969c0.592-2.15-0.671-4.376-2.821-4.968c-0.142-0.04-13.889-6.98-7.434-55.692 c2.671-20.143,8.901-34.012,18.024-40.11c4.577-3.061,8.933-3.556,11.651-3.471c-0.577,2.125-1.253,4.245-1.925,6.347 c-2.805,8.783-5.989,18.738,2.454,24.988c3.524,2.61,7.939,3.689,12.713,3.689c14.859,0,33.183-10.45,38.905-17.673 C210.785,105.008,225.242,86.757,210.11,48.914z M199.902,105.729c-5.538-5.768-9.332-9.248-21.255-9.248 c-2.233,0-4.04,1.809-4.04,4.04c0,2.231,1.807,4.04,4.04,4.04c8.391,0,10.411,1.56,15.126,6.453 c-9.716,6.524-26.905,13.131-34.547,7.48c-3.448-2.553-2.568-6.635,0.438-16.032c2.936-9.178,6.585-20.598,0.742-31.834 c-3.6-6.923-7.179-10.637-10.714-12.883c2.055-4.939,3.928-6.883,9.605-9.164c2.072-0.833,3.074-3.184,2.241-5.256 c-0.829-2.072-3.192-3.082-5.256-2.241c-8.139,3.271-11.284,6.998-14.015,13.502c-0.513-0.149-1.025-0.295-1.535-0.438 c-4.116-1.152-8.373-2.342-13.715-6.828c-2.722-2.286-5.595-6.037-3.815-10.924c2.221-6.102,11.048-12.281,23.615-12.281 c1.685,0,3.377-0.018,5.074-0.034c1.705-0.018,3.393-0.034,5.078-0.034c12.859,0,25.014,1.021,34.701,10.501 c-1.727,3.473-2.753,6.622-3.632,9.42c-1.345,4.281-2.32,7.375-5.331,10.34c-1.59,1.566-1.606,4.125-0.04,5.714 c0.789,0.803,1.831,1.205,2.876,1.205c1.026,0,2.048-0.387,2.837-1.162c4.443-4.38,5.931-9.105,7.366-13.674 c0.486-1.546,0.989-3.124,1.611-4.752c1.888,2.931,3.654,6.288,5.247,10.272C215.797,84.913,204.109,100.411,199.902,105.729z" fill="#000000"/><path d="M79.14,90.255c-7.034-4.613-13.771-4.898-17.626-4.554c-0.283-3.846,0.166-7.656,2.084-11.344 c5.066-9.734,8.894-10.805,14.682-12.425c4.482-1.255,10.058-2.813,16.742-8.424c6.542-5.497,8.807-12.741,6.211-19.874 c-3.776-10.362-16.607-17.598-31.211-17.598c-1.657,0-3.322-0.016-4.995-0.034c-14.05-0.134-29.357-0.233-41.963,9.603 c-1.12,0.322-2.105,1.07-2.608,2.222c-0.003,0.006-0.004,0.012-0.007,0.018c-5.219,4.829-9.91,11.545-13.72,21.07 C-5.81,80.278,1.962,98.153,7.697,106.779c0.237,0.657,0.627,1.231,1.17,1.691c0.727,1,1.397,1.857,1.933,2.533 c5.721,7.225,24.045,17.675,38.905,17.675c4.774,0,9.189-1.079,12.713-3.689c8.444-6.25,5.259-16.205,2.454-24.988 c-0.669-2.093-1.342-4.204-1.917-6.319c2.663-0.116,7.109,0.285,11.753,3.33c9.213,6.041,15.507,19.949,18.194,40.223 c6.581,49.647-7.469,55.692-7.434,55.692c-2.15,0.592-3.413,2.817-2.821,4.968c0.493,1.793,2.119,2.969,3.891,2.969 c0.355,0,0.718-0.047,1.077-0.148c2.158-0.594,20.865-7.457,13.297-64.542C97.862,113.179,90.539,97.729,79.14,90.255z M57.612,118.494c-9.699,7.175-34.864-5.419-40.475-12.506c0,0,0,0,0-0.002c-0.281-0.355-0.61-0.775-0.96-1.233 c2.573-5.001,6.18-6.28,11.345-8.081c2.778-0.968,5.922-2.067,9.146-3.91c1.937-1.107,2.612-3.575,1.503-5.512 c-1.109-1.937-3.579-2.612-5.512-1.503c-2.581,1.474-5.232,2.401-7.801,3.297c-4.681,1.633-9.462,3.354-13.257,8.019 c-3.823-8.583-6.278-22.861,2.632-45.146c1.821-4.552,3.856-8.33,6.058-11.523c0.446,1.138,0.955,2.2,1.435,3.198 c1.464,3.052,2.853,5.933,2.446,10.227c-0.205,2.222,1.424,4.191,3.646,4.4c0.13,0.012,0.257,0.018,0.383,0.018 c2.063,0,3.823-1.571,4.021-3.663c0.612-6.528-1.511-10.937-3.216-14.483c-1.543-3.21-2.236-5.065-1.598-7.534 c9.293-7.619,20.573-8.506,32.462-8.506c1.681,0,3.377,0.016,5.078,0.034c1.697,0.016,3.389,0.034,5.074,0.034 c12.567,0,21.394,6.179,23.615,12.281c1.779,4.887-1.093,8.637-3.812,10.924c-4.264,3.578-7.832,5.051-11.191,6.089 c-0.667-0.348-1.404-0.578-2.225-0.502c-5.027,0.476-9.016-0.994-13.242-2.545c-4.092-1.503-8.325-3.058-13.636-3.058 c-2.233,0-4.04,1.809-4.04,4.04s1.807,4.04,4.04,4.04c3.875,0,7.264,1.245,10.851,2.563c1.402,0.514,2.891,1.028,4.432,1.507 c-2.775,2.325-5.573,5.768-8.385,11.172c-5.84,11.236-2.19,22.656,0.746,31.834C60.181,111.861,61.061,115.942,57.612,118.494z" fill="#000000"/></symbol><symbol id="down-arrow-direction" viewBox="0 0 312.757 312.757"><title>down-arrow-direction</title><polygon points="244.062,184.792 170.623,258.23 170.623,0 142.139,0 142.139,258.247 68.69,184.792 48.549,204.939 156.379,312.757 264.208,204.939 " fill="#000000"/></symbol><symbol id="right-arrow" viewBox="0 0 31.49 31.49"><title>right-arrow</title><path d="M21.205,5.007c-0.429-0.444-1.143-0.444-1.587,0c-0.429,0.429-0.429,1.143,0,1.571l8.047,8.047H1.111 C0.492,14.626,0,15.118,0,15.737c0,0.619,0.492,1.127,1.111,1.127h26.554l-8.047,8.032c-0.429,0.444-0.429,1.159,0,1.587 c0.444,0.444,1.159,0.444,1.587,0l9.952-9.952c0.444-0.429,0.444-1.143,0-1.571L21.205,5.007z" fill="#000000"/></symbol><symbol id="medical-2" viewBox="0 0 512 512"><title>medical-2</title><g> <g> <path d="M461.913,100.174h-83.478V50.087C378.435,22.469,355.966,0,328.348,0H183.652c-27.618,0-50.087,22.469-50.087,50.087 v50.087H50.087C22.469,100.174,0,122.643,0,150.261c0,13.601,0,295.377,0,311.652C0,489.531,22.469,512,50.087,512 c14.964,0,397.152,0,411.826,0C489.531,512,512,489.531,512,461.913c0-16.281,0-298.041,0-311.652 C512,122.643,489.531,100.174,461.913,100.174z M166.957,50.087c0-9.206,7.49-16.696,16.696-16.696h144.696 c9.206,0,16.696,7.49,16.696,16.696v50.087H166.957V50.087z M83.478,478.609H50.087c-9.206,0-16.696-7.49-16.696-16.696V211.478 h50.087V478.609z M395.13,478.609H116.87v-267.13H395.13V478.609z M478.609,461.913c0,9.206-7.49,16.696-16.696,16.696h-33.391 v-267.13h50.087V461.913z M478.609,178.087c-16.603,0-421.328,0-445.217,0v-27.826c0-9.206,7.49-16.696,16.696-16.696 c10.753,0,400.542,0,411.826,0c9.206,0,16.696,7.49,16.696,16.696V178.087z" fill="#000000"/> </g> </g><g> <g> <path d="M339.478,294.957h-33.391v-33.391c0-9.22-7.475-16.696-16.696-16.696h-66.783c-9.22,0-16.696,7.475-16.696,16.696v33.391 h-33.391c-9.22,0-16.696,7.475-16.696,16.696v66.783c0,9.22,7.475,16.696,16.696,16.696h33.391v33.391 c0,9.22,7.475,16.696,16.696,16.696h66.783c9.22,0,16.696-7.475,16.696-16.696V395.13h33.391c9.22,0,16.696-7.475,16.696-16.696 v-66.783C356.174,302.432,348.699,294.957,339.478,294.957z M322.783,361.739h-33.391c-9.22,0-16.696,7.475-16.696,16.696v33.391 h-33.391v-33.391c0-9.22-7.475-16.696-16.696-16.696h-33.391v-33.391h33.391c9.22,0,16.696-7.475,16.696-16.696v-33.391h33.391 v33.391c0,9.22,7.475,16.696,16.696,16.696h33.391V361.739z" fill="#000000"/> </g> </g></symbol><symbol id="technology-3" viewBox="0 0 490 490"><title>technology-3</title><path d="M489.997,224.578C489.997,100.748,387.555,0,261.635,0C197.775,0,137.371,26.08,94.18,71.905 c-7.576-7.859-25.966-16.977-46.222-1.942L21.779,90.744c-12.062,9.581-19.196,24.036-21.204,42.962 c-5.738,54.052,32.085,139.472,96.35,217.624C165.14,434.273,247.793,490,302.593,490h0.005c14.884,0,27.45-3.982,37.339-11.838 l26.18-20.781c7.176-5,18.793-20.848,11.061-39.058C447.043,378.024,489.997,304.753,489.997,224.578z M353.42,441.391 l-26.178,20.781c-6.191,4.919-14.486,7.411-24.649,7.411c-48.265,0-126.353-53.957-189.896-131.223 c-60.029-72.993-96.93-154.37-91.821-202.502c1.406-13.279,5.987-23.078,13.598-29.124l26.178-20.78 c8.885-6.427,16.527-2.606,19.48,0.912l49.95,60.736c6.168,8.423,0.045,15.906-3.131,18.423 c-14.265,11.33-22.958,28.197-25.141,48.773c-3.48,32.809,10.193,71.543,36.571,103.614 c29.064,35.345,69.245,57.302,104.855,57.297c16.843,0,32.015-4.98,43.869-14.395c6.001-4.76,15.198-4.292,19.49,0.917 l49.95,60.727C363.204,433.021,354.96,439.851,353.42,441.391z M365.375,401.553l-43.009-52.291 c-7.529-8.3-25.417-20.076-47.956-3.937c-8.647,6.192-18.817,9.968-31.178,9.968c-29.659,0.005-63.793-19.101-89.084-49.85 c-22.974-27.933-34.946-61.01-32.031-88.49c1.59-15.008,7.785-26.931,17.531-34.937c8.913-7.322,22.035-27.073,6.205-47.383 L107.31,87.765c39.448-42.886,95.251-67.348,154.325-67.348c5.145,0,10.245,0.192,15.297,0.554v32.115h20.417V23.44 c90.338,15.417,160.851,88.262,170.969,178.698h-32.159v20.417h33.395c0.007,0.675,0.026,1.347,0.026,2.023 C469.58,298.012,429.855,365.096,365.375,401.553z" fill="#000000"/><path d="M216.206,256.499l10.695-9.702c28.171-26.671,46.065-46.27,46.065-70.515c0-18.795-12.138-38.193-40.922-38.193 c-15.42,0-28.579,5.662-37.833,13.338l5.756,12.525c6.166-5.05,16.239-11.114,28.375-11.114c19.94,0,26.525,12.329,26.525,25.663 c-0.205,19.804-15.625,36.775-49.767,68.702l-14.183,13.534v10.913h85.331V256.9h-60.043V256.499z" fill="#000000"/><path d="M369.401,140.315h-19.54l-59.625,83.854v11.716h62.098v35.766h17.066v-35.766h18.713v-13.941h-18.713V140.315z M352.335,178.1v43.844H308.53v-0.401l32.7-44.658c3.702-6.059,6.985-11.716,11.105-19.397h0.615 C352.54,164.359,352.335,171.227,352.335,178.1z" fill="#000000"/></symbol><symbol id="technology-2" viewBox="0 0 490.128 490.128"><title>technology-2</title><path d="M388.089,238.332c-2.602-2.857-64.6-69.979-143.024-69.979s-140.423,67.121-143.024,69.979 c-3.473,3.816-3.473,9.648,0,13.463c2.602,2.857,64.6,69.98,143.024,69.98s140.423-67.123,143.024-69.98 C391.561,247.98,391.561,242.148,388.089,238.332z M245.064,293.707c-26.821,0-48.643-21.822-48.643-48.643 c0-26.822,21.821-48.643,48.643-48.643s48.643,21.82,48.643,48.643C293.707,271.884,271.886,293.707,245.064,293.707z M194.512,198.687c-11.225,12.225-18.09,28.512-18.09,46.377s6.865,34.152,18.09,46.377 c-33.014-13.092-59.146-35.281-70.908-46.377C135.37,233.964,161.502,211.777,194.512,198.687z M295.617,291.441 c11.225-12.225,18.09-28.514,18.09-46.377c0-17.865-6.865-34.152-18.09-46.377c33.014,13.09,59.147,35.279,70.908,46.377 C354.759,256.164,328.627,278.351,295.617,291.441z" fill="#000000"/><path d="M466.028,139.384C437.8,80.363,388.277,35.865,326.582,14.091C300.21,4.783,272.783,0.064,245.064,0.064 c-103.639,0-196.46,65.697-230.973,163.48C-7.683,225.24-4.129,291.722,24.1,350.744s77.752,103.518,139.447,125.293 c26.372,9.307,53.799,14.027,81.518,14.027c103.641,0,196.462-65.699,230.973-163.482 C497.811,264.886,494.257,198.406,466.028,139.384z M245.064,74.38c94.115,0,170.684,76.568,170.684,170.684 S339.18,415.746,245.064,415.746c-94.115,0-170.684-76.566-170.684-170.682S150.949,74.38,245.064,74.38z M235.064,20.296v34.352 C160,58.546,96.289,106.056,68.837,172.263l-32.341-11.416C69.413,79.322,147.281,24.207,235.064,20.296z M245.064,470.064 c-25.445,0-50.633-4.336-74.861-12.889c-56.658-19.996-102.137-60.859-128.06-115.061C17.662,290.929,13.4,233.638,29.839,179.707 l32.326,11.41c-5.057,17.113-7.784,35.217-7.784,53.947c0,105.143,85.54,190.682,190.684,190.682 c52.098,0,99.375-21.008,133.826-54.99l26.586,21.922C364.029,444.812,306.629,470.064,245.064,470.064z M457.178,319.925 c-8.882,25.166-21.971,48.016-38.305,67.875l-26.471-21.826c27.071-32.928,43.346-75.055,43.346-120.91 c0-101.789-80.17-185.203-180.684-190.422v-34.35c22.038,0.986,43.812,5.231,64.861,12.658 C436.885,74.23,498.455,202.966,457.178,319.925z" fill="#000000"/></symbol><symbol id="shapes" viewBox="0 0 187.059 187.06"><title>shapes</title><path d="M159.84,26.951c1.619-3.117,0.408-6.941-2.71-8.601c-21.294-11.043-46.983-7.052-63.601,8.513 C76.538,10.988,49.602,7.438,28.777,18.85C11.037,28.632,0,47.308,0,67.548c0,5.8,0.935,11.591,2.588,16.587 c1.839,8.104,6.33,16.797,13.749,26.563c1.215,1.59,3.087,2.527,5.082,2.527c0.094,0,0.186,0,0.28,0 c22.572-0.969,44.771-6.783,66.031-17.221C119.153,80.643,144.751,56.112,159.84,26.951z M24.536,100.292 c-5.051-7.118-8.263-13.509-9.633-19.562c-1.403-4.271-2.122-8.72-2.122-13.177c0-15.588,8.482-29.974,22.137-37.512 c6.36-3.499,13.53-5.325,20.7-5.325c12.784,0,24.816,5.645,33.015,15.527c2.433,2.929,7.417,2.929,9.822,0 c11.161-13.5,30.025-19.093,46.765-13.159c-14.157,24.101-36.322,44.366-63.132,57.461C63.507,93.697,44.146,98.983,24.536,100.292 z M60.825,37.836c0,1.778-1.434,3.188-3.209,3.188c-4.771,0-9.542,1.208-13.844,3.51c-9.104,5.021-14.778,14.565-14.778,24.941 c0,1.775-1.434,3.179-3.179,3.179c-1.778,0-3.212-1.403-3.212-3.179c0-12.689,6.954-24.405,18.112-30.54 c5.271-2.807,11.101-4.277,16.901-4.277C59.391,34.657,60.825,36.066,60.825,37.836z M178.046,37.556 c-1.218-1.909-3.641-2.518-5.517-2.938c-2.24,0.064-4.274,1.279-5.395,3.246c-16.679,29.222-42.368,52.973-74.261,68.664 c-16.087,7.916-33.515,13.372-51.815,16.265c-2.399,0.383-4.396,2.082-5.112,4.42c-0.719,2.339-0.034,4.896,1.775,6.564 c24.006,22.25,51.256,39.5,52.409,40.201c1.029,0.657,2.214,0.998,3.398,0.998c1.181,0,2.368-0.341,3.397-0.998 c3.215-1.979,78.599-49.749,87.354-89.252c1.839-5.581,2.777-11.377,2.777-17.177C187.059,57.017,183.941,46.653,178.046,37.556z M172,81.327c-6.145,27.539-55.808,64.847-78.44,79.655c-6.641-4.396-22.04-14.937-37.537-28.059 c14.873-3.373,29.088-8.354,42.493-14.937c30.488-14.998,55.71-36.916,73.551-63.79c1.462,4.335,2.211,8.817,2.211,13.351 C174.278,72.005,173.559,76.465,172,81.327z" fill="#000000"/></symbol><symbol id="earth-grid" viewBox="0 0 360.33 360.33"><title>earth-grid</title><g> <g> <path d="M308.689,54.053c-16.571-16.935-35.963-30.241-57.64-39.546c-22.424-9.625-46.273-14.506-70.884-14.506 c-24.612,0-48.461,4.88-70.885,14.506c-21.677,9.305-41.069,22.61-57.628,39.534C18.344,87.85,0,132.642,0,180.165 s18.343,92.316,51.64,126.112c16.571,16.937,35.964,30.242,57.64,39.547c22.424,9.625,46.273,14.506,70.885,14.506 c24.612,0,48.461-4.88,70.884-14.506c21.677-9.305,41.071-22.61,57.628-39.534c33.308-33.809,51.653-78.601,51.653-126.125 S341.985,87.85,308.689,54.053z M301.296,299.043c-32.14,32.851-75.159,50.943-121.131,50.943 c-45.972,0-88.99-18.092-121.145-50.956c-31.39-31.862-48.677-74.076-48.677-118.865s17.288-87.004,48.69-118.878 c32.143-32.851,75.162-50.943,121.132-50.943c45.971,0,88.989,18.091,121.144,50.955c31.391,31.862,48.678,74.075,48.678,118.865 C349.987,224.954,332.699,267.168,301.296,299.043z" fill="#000000"/> </g> </g><g> <g> <path d="M301.296,54.054c-32.141,32.851-75.159,50.943-121.131,50.943c-45.971,0-88.99-18.092-121.132-50.943l-7.394,7.233 c16.571,16.937,35.964,30.242,57.64,39.547c22.424,9.625,46.273,14.506,70.885,14.506s48.461-4.881,70.885-14.506 c21.677-9.305,41.07-22.611,57.64-39.547L301.296,54.054z" fill="#000000"/> </g> </g><g> <g> <path d="M251.048,259.497c-22.424-9.625-46.273-14.506-70.884-14.506c-24.612,0-48.461,4.88-70.885,14.506 c-21.676,9.305-41.069,22.61-57.64,39.546l7.394,7.233c32.143-32.851,75.162-50.943,121.131-50.943 c45.971,0,88.989,18.092,121.131,50.943l7.393-7.233C292.118,282.107,272.725,268.803,251.048,259.497z" fill="#000000"/> </g> </g><g> <g> <path d="M250.722,53.993C232.153,19.175,207.095,0,180.165,0c-26.93,0-51.988,19.175-70.557,53.993 C91.588,87.78,81.664,132.59,81.664,180.165c0,47.576,9.924,92.385,27.944,126.172c18.57,34.818,43.627,53.993,70.557,53.993 c26.93,0,51.988-19.175,70.557-53.992c18.02-33.787,27.945-78.596,27.945-126.172S268.742,87.78,250.722,53.993z M241.595,301.47 c-16.687,31.286-38.503,48.516-61.431,48.516c-22.927,0-44.744-17.23-61.43-48.516c-17.235-32.317-26.727-75.397-26.727-121.305 c0-45.908,9.491-88.988,26.727-121.305c16.686-31.286,38.502-48.517,61.43-48.517s44.744,17.23,61.43,48.516 c17.235,32.317,26.727,75.396,26.727,121.305S258.831,269.154,241.595,301.47z" fill="#000000"/> </g> </g><g> <g> <rect x="174.99" y="5.172" width="10.343" height="349.98" fill="#000000"/> </g> </g><g> <g> <rect x="5.172" y="174.99" width="349.98" height="10.343" fill="#000000"/> </g> </g></symbol><symbol id="calendar" viewBox="0 0 60 60"><title>calendar</title><path d="M57,4h-7V1c0-0.553-0.447-1-1-1h-7c-0.553,0-1,0.447-1,1v3H19V1c0-0.553-0.447-1-1-1h-7c-0.553,0-1,0.447-1,1v3H3 C2.447,4,2,4.447,2,5v11v43c0,0.553,0.447,1,1,1h54c0.553,0,1-0.447,1-1V16V5C58,4.447,57.553,4,57,4z M43,2h5v3v3h-5V5V2z M12,2h5 v3v3h-5V5V2z M4,6h6v3c0,0.553,0.447,1,1,1h7c0.553,0,1-0.447,1-1V6h22v3c0,0.553,0.447,1,1,1h7c0.553,0,1-0.447,1-1V6h6v9H4V6z M4,58V17h52v41H4z" fill="#000000"/><path d="M38,23h-7h-2h-7h-2h-9v9v2v7v2v9h9h2h7h2h7h2h9v-9v-2v-7v-2v-9h-9H38z M31,25h7v7h-7V25z M38,41h-7v-7h7V41z M22,34h7v7h-7 V34z M22,25h7v7h-7V25z M13,25h7v7h-7V25z M13,34h7v7h-7V34z M20,50h-7v-7h7V50z M29,50h-7v-7h7V50z M38,50h-7v-7h7V50z M47,50h-7 v-7h7V50z M47,41h-7v-7h7V41z M47,25v7h-7v-7H47z" fill="#000000"/></symbol><symbol id="battery" viewBox="0 0 60 60"><title>battery</title><path d="M42.536,4H36V0H24v4h-6.536C15.554,4,14,5.554,14,7.464v49.072C14,58.446,15.554,60,17.464,60h25.072 C44.446,60,46,58.446,46,56.536V7.464C46,5.554,44.446,4,42.536,4z M16,19h28v12H16V19z M16,33h28v12H16V33z M26,2h8v2h-8V2z M17.464,6H24h12h6.536C43.344,6,44,6.656,44,7.464V17H16V7.464C16,6.656,16.656,6,17.464,6z M42.536,58H17.464 C16.656,58,16,57.344,16,56.536V47h28v9.536C44,57.344,43.344,58,42.536,58z" fill="#000000"/></symbol><symbol id="avatar-1" viewBox="0 0 482.9 482.9"><title>avatar-1</title><path d="M239.7,260.2c0.5,0,1,0,1.6,0c0.2,0,0.4,0,0.6,0c0.3,0,0.7,0,1,0c29.3-0.5,53-10.8,70.5-30.5 c38.5-43.4,32.1-117.8,31.4-124.9c-2.5-53.3-27.7-78.8-48.5-90.7C280.8,5.2,262.7,0.4,242.5,0h-0.7c-0.1,0-0.3,0-0.4,0h-0.6 c-11.1,0-32.9,1.8-53.8,13.7c-21,11.9-46.6,37.4-49.1,91.1c-0.7,7.1-7.1,81.5,31.4,124.9C186.7,249.4,210.4,259.7,239.7,260.2z M164.6,107.3c0-0.3,0.1-0.6,0.1-0.8c3.3-71.7,54.2-79.4,76-79.4h0.4c0.2,0,0.5,0,0.8,0c27,0.6,72.9,11.6,76,79.4 c0,0.3,0,0.6,0.1,0.8c0.1,0.7,7.1,68.7-24.7,104.5c-12.6,14.2-29.4,21.2-51.5,21.4c-0.2,0-0.3,0-0.5,0l0,0c-0.2,0-0.3,0-0.5,0 c-22-0.2-38.9-7.2-51.4-21.4C157.7,176.2,164.5,107.9,164.6,107.3z" fill="#000000"/><path d="M446.8,383.6c0-0.1,0-0.2,0-0.3c0-0.8-0.1-1.6-0.1-2.5c-0.6-19.8-1.9-66.1-45.3-80.9c-0.3-0.1-0.7-0.2-1-0.3 c-45.1-11.5-82.6-37.5-83-37.8c-6.1-4.3-14.5-2.8-18.8,3.3c-4.3,6.1-2.8,14.5,3.3,18.8c1.7,1.2,41.5,28.9,91.3,41.7 c23.3,8.3,25.9,33.2,26.6,56c0,0.9,0,1.7,0.1,2.5c0.1,9-0.5,22.9-2.1,30.9c-16.2,9.2-79.7,41-176.3,41 c-96.2,0-160.1-31.9-176.4-41.1c-1.6-8-2.3-21.9-2.1-30.9c0-0.8,0.1-1.6,0.1-2.5c0.7-22.8,3.3-47.7,26.6-56 c49.8-12.8,89.6-40.6,91.3-41.7c6.1-4.3,7.6-12.7,3.3-18.8c-4.3-6.1-12.7-7.6-18.8-3.3c-0.4,0.3-37.7,26.3-83,37.8 c-0.4,0.1-0.7,0.2-1,0.3c-43.4,14.9-44.7,61.2-45.3,80.9c0,0.9,0,1.7-0.1,2.5c0,0.1,0,0.2,0,0.3c-0.1,5.2-0.2,31.9,5.1,45.3 c1,2.6,2.8,4.8,5.2,6.3c3,2,74.9,47.8,195.2,47.8s192.2-45.9,195.2-47.8c2.3-1.5,4.2-3.7,5.2-6.3 C447,415.5,446.9,388.8,446.8,383.6z" fill="#000000"/></symbol><symbol id="user-silhouette" viewBox="0 0 409.165 409.164"><title>user-silhouette</title><path d="M204.583,216.671c50.664,0,91.74-48.075,91.74-107.378c0-82.237-41.074-107.377-91.74-107.377 c-50.668,0-91.74,25.14-91.74,107.377C112.844,168.596,153.916,216.671,204.583,216.671z" fill="#000000"/><path d="M407.164,374.717L360.88,270.454c-2.117-4.771-5.836-8.728-10.465-11.138l-71.83-37.392 c-1.584-0.823-3.502-0.663-4.926,0.415c-20.316,15.366-44.203,23.488-69.076,23.488c-24.877,0-48.762-8.122-69.078-23.488 c-1.428-1.078-3.346-1.238-4.93-0.415L58.75,259.316c-4.631,2.41-8.346,6.365-10.465,11.138L2.001,374.717 c-3.191,7.188-2.537,15.412,1.75,22.005c4.285,6.592,11.537,10.526,19.4,10.526h362.861c7.863,0,15.117-3.936,19.402-10.527 C409.699,390.129,410.355,381.902,407.164,374.717z" fill="#000000"/></symbol><symbol id="minus-symbol" viewBox="0 0 31.427 31.427"><title>minus-symbol</title><path d="M1.111,16.832C0.492,16.832,0,16.325,0,15.706c0-0.619,0.492-1.111,1.111-1.111H30.3 c0.619,0,1.127,0.492,1.127,1.111c0,0.619-0.508,1.127-1.127,1.127H1.111z" fill="#000000"/></symbol><symbol id="plus-symbol" viewBox="0 0 31.444 31.444"><title>plus-symbol</title><path d="M1.119,16.841c-0.619,0-1.111-0.508-1.111-1.127c0-0.619,0.492-1.111,1.111-1.111h13.475V1.127 C14.595,0.508,15.103,0,15.722,0c0.619,0,1.111,0.508,1.111,1.127v13.476h13.475c0.619,0,1.127,0.492,1.127,1.111 c0,0.619-0.508,1.127-1.127,1.127H16.833v13.476c0,0.619-0.492,1.127-1.111,1.127c-0.619,0-1.127-0.508-1.127-1.127V16.841H1.119z" fill="#000000"/></symbol><symbol id="vagina-1" viewBox="0 0 186.204 186.204"><title>vagina-1</title><path d="M95.517,0.799c-1.428-1.065-3.401-1.065-4.829,0c-24.681,18.399-40.01,53.768-40.01,92.302s15.329,73.903,40.009,92.302 c0.714,0.533,1.566,0.801,2.415,0.801c0.848,0,1.701-0.268,2.415-0.801c24.68-18.399,40.009-53.768,40.009-92.302 S120.197,19.198,95.517,0.799z M93.102,177.038c-21.255-17.393-34.343-49.203-34.343-83.937 c0-34.734,13.087-66.544,34.343-83.937c21.255,17.393,34.343,49.203,34.343,83.937S114.357,159.645,93.102,177.038z" fill="#000000"/><path d="M90.687,51.391c-14.453,10.776-23.429,31.4-23.429,53.831c0,22.431,8.977,43.055,23.429,53.831 c0.718,0.533,1.566,0.802,2.415,0.802c0.848,0,1.697-0.268,2.415-0.801c14.453-10.776,23.429-31.4,23.429-53.831 c0-22.431-8.977-43.055-23.429-53.831C94.08,50.326,92.123,50.326,90.687,51.391z M110.865,105.222 c0,18.608-6.739,35.657-17.764,45.392c-11.024-9.734-17.764-26.783-17.764-45.392s6.739-35.657,17.764-45.392 C104.126,69.565,110.865,86.614,110.865,105.222z" fill="#000000"/><path d="M48.673,11.819l-6.854-4.281l-2.139,3.425C25.926,32.964,18.354,62.135,18.354,93.101s7.572,60.137,21.326,82.138 l2.139,3.425l6.854-4.281l-2.143-3.429c-12.958-20.731-20.095-48.378-20.095-77.853c0-29.475,7.138-57.122,20.095-77.853 L48.673,11.819z" fill="#000000"/><path d="M146.523,10.963l-2.139-3.425l-6.854,4.281l2.143,3.429c12.958,20.731,20.095,48.379,20.095,77.853 s-7.138,57.122-20.095,77.853l-2.143,3.429l6.854,4.281l2.139-3.425c13.755-22.001,21.326-51.172,21.326-82.138 S160.278,32.964,146.523,10.963z" fill="#000000"/></symbol><symbol id="neurology" viewBox="0 0 512.001 512.001"><title>neurology</title><path d="M509.61,192.336c-0.918-2.538-2.156-5.031-3.782-7.615c-0.037-0.057-0.072-0.113-0.11-0.17l-1.203-1.81 c-0.031-0.046-0.064-0.094-0.096-0.14c-0.41-0.589-0.831-1.16-1.268-1.718c-0.909-1.16-1.873-2.248-2.864-3.232l-2.618-2.6 l2.404-2.801c1.611-1.879,2.956-4.125,4.356-7.286c0.023-0.052,0.045-0.103,0.068-0.156c0.609-1.455,1.184-2.876,1.516-4.22 c0.4-1.575,0.716-3.175,0.956-4.841c0.983-6.48,0.127-13.603-2.501-20.671c-0.646-1.687-1.481-3.31-2.281-4.828 c-0.028-0.053-0.056-0.105-0.085-0.157l-0.236-0.425c-0.789-1.423-1.535-2.767-2.348-3.82l-0.08-0.105 c-1.046-1.401-2.17-2.767-3.312-4.029c-1.257-1.403-2.32-2.423-3.395-3.266c-3.167-2.524-5.427-3.985-7.731-5.011 c-2.726-1.246-5.483-2.147-8.191-2.679l-3.58-0.704l0.403-3.627c0.305-2.749,0.274-5.672-0.084-8.618 c-0.284-2.514-0.959-5.094-2.261-8.626c-0.021-0.056-0.041-0.111-0.063-0.166c-2.31-5.869-6.193-11.361-11.164-15.825 c-2.675-2.453-5.706-4.317-8.049-5.667c-0.055-0.031-0.111-0.064-0.167-0.094c-2.427-1.324-5.16-2.405-8.593-3.404 c-2.402-0.7-5.133-1.097-8.595-1.251c-0.045-0.002-0.091-0.003-0.136-0.004c-0.439-0.012-0.874-0.019-1.307-0.019 c-0.693,0-1.718,0.018-2.759,0.114c-1.409,0.147-2.807,0.369-4.155,0.661l-3.838,0.832l-0.871-3.83 c-2.52-11.089-11.136-21.184-22.479-26.344c-5.557-2.53-11.384-3.814-17.318-3.814c-6.059,0-11.954,1.383-17.049,3.999 l-3.515,1.804l-1.819-3.509c-5.336-10.289-15.625-17.866-27.498-20.266c-2.873-0.59-5.795-0.889-8.685-0.889 c-9.16,0-17.872,2.979-24.531,8.388l-3.127,2.54l-2.492-3.166c-1.678-2.132-3.652-4.089-5.83-5.787 c-2.164-1.708-4.553-3.233-7.1-4.528c-0.092-0.046-0.184-0.092-0.279-0.135c-5.742-2.649-11.578-4.009-17.345-4.04 c-0.231-0.004-0.994-0.018-1.267-0.018c-5.415,0-10.942,1.173-16.426,3.486c-0.095,0.04-0.189,0.082-0.282,0.125 c-2.584,1.209-5.037,2.665-7.257,4.301c-2.239,1.633-4.258,3.509-6.001,5.577l-2.596,3.081l-3.042-2.644 c-6.867-5.972-16.002-9.26-25.722-9.26c-2.385,0-4.802,0.203-7.181,0.603c-11.937,2.003-22.471,9.187-28.178,19.216l-1.95,3.424 l-3.437-1.925c-5.511-3.087-11.947-4.719-18.614-4.719c-5.298,0-10.527,1.021-15.541,3.032c-0.048,0.019-0.098,0.04-0.147,0.06 c-3.069,1.302-5.839,2.787-8.231,4.416c-0.06,0.041-0.119,0.082-0.178,0.125c-2.441,1.759-4.691,3.721-6.686,5.831 c-0.064,0.067-0.125,0.134-0.185,0.203c-4.047,4.582-6.823,9.5-8.249,14.617l-1.05,3.768l-3.781-0.996 c-2.906-0.765-5.665-1.184-8.203-1.241c-0.038-0.001-0.074-0.001-0.111-0.001l-0.601-0.005c-2.628,0-5.332,0.259-8.037,0.77 c-0.063,0.012-0.124,0.024-0.186,0.038c-2.725,0.581-5.549,1.527-8.699,2.921c-2.503,1.133-5.216,2.8-8.298,5.096 c-0.055,0.041-0.11,0.083-0.164,0.126c-2.267,1.782-4.511,4.002-6.862,6.791c-0.059,0.07-0.117,0.142-0.175,0.214 c-1.765,2.244-3.398,4.854-4.855,7.76c-0.044,0.087-0.086,0.176-0.127,0.264c-2.547,5.572-3.741,11.38-3.454,16.797l0.203,3.81 l-3.798,0.35c-1.325,0.122-2.685,0.324-4.042,0.603c-0.095,0.019-0.19,0.041-0.284,0.064c-1.186,0.287-2.483,0.69-3.906,1.215 c-3.243,1.22-5.859,2.574-7.95,4.104l-0.109,0.084c-3.085,2.169-5.393,4.229-7.203,6.411l-0.115,0.136 c-1.076,1.241-2.119,2.559-3.101,3.914c-0.089,0.124-0.176,0.25-0.259,0.379c-0.848,1.324-1.696,2.806-2.573,4.499 c-3.138,5.994-4.79,13.099-4.651,20.048c0.071,2.805,0.563,5.908,1.462,9.225c0.019,0.071,0.04,0.142,0.06,0.212 c0.76,2.527,1.97,5.144,3.6,7.78l1.882,3.044l-2.836,2.184c-7.476,5.757-15.259,18.566-12.593,35.716 c0.023,0.141,0.047,0.282,0.078,0.423c0.402,1.909,0.894,3.824,1.487,5.774l0.182,0.576c0.314,1.005,0.46,1.459,0.7,2.026 c0.414,0.953,0.847,1.888,1.273,2.752c0.82,1.633,1.706,3.357,2.721,4.889c0.06,0.091,0.122,0.18,0.185,0.268 c1.081,1.499,2.25,2.966,3.433,4.303l0.312,0.345c0.518,0.577,0.916,1.013,1.316,1.396c0.077,0.073,0.154,0.144,0.234,0.214 c0.654,0.579,1.315,1.132,1.975,1.656c1.271,1.01,2.578,1.937,3.885,2.756c0.155,0.097,0.314,0.19,0.474,0.276 c2.702,1.45,5.496,2.496,8.302,3.113l3.146,0.692l-0.031,3.222c-0.029,3.008,0.36,6.078,1.125,8.878 c0.028,0.105,0.059,0.208,0.092,0.312c0.47,1.481,1.046,2.991,1.708,4.479c0.314,0.706,0.648,1.414,1.006,2.121 c0.069,0.136,0.141,0.27,0.218,0.401c0.375,0.649,0.774,1.282,1.191,1.926c0.939,1.439,1.979,2.875,3.094,4.268 c0.069,0.087,0.141,0.172,0.213,0.255c0.955,1.097,2.077,2.236,3.676,3.722c0.698,0.641,1.416,1.274,2.123,1.866 c0.592,0.484,1.125,0.85,1.554,1.144l0.591,0.409c1.489,1.015,3.055,1.985,4.655,2.882c0.119,0.067,0.239,0.13,0.361,0.191 c6.095,3.023,12.422,4.622,18.295,4.622c0.341,0,0.678-0.004,1.103-0.019c1.53-0.036,3.05-0.144,4.52-0.327 c0.058-0.006,0.116-0.015,0.175-0.023c1.514-0.221,3.037-0.61,4.13-0.906c3.05-0.857,5.574-1.887,7.713-3.152l3.409-2.013 l2.02,3.405c5.766,9.724,16.867,16.803,28.955,18.474c1.964,0.276,3.953,0.415,5.909,0.415c9.82,0,19.171-3.481,26.333-9.802 l3.04-2.682l2.616,3.096c7.284,8.618,18.178,13.783,29.893,14.173c0.551,0.017,1.098,0.004,1.647,0.001 c-3.008,5.793-4.655,12.299-4.655,19.072c0,20.098,14.41,36.888,33.441,40.597c1.954,36.836,24.031,70.489,57.384,86.75 l29.562,14.415l0.234,0.113c10.163,4.898,16.478,14.741,16.478,25.688c0,15.114,12.297,27.411,27.411,27.411h9.853 c15.114,0,27.411-12.297,27.411-27.411c0-21.804-7.886-42.651-21.448-59.093c2.464,0.172,4.937,0.269,7.413,0.269 c1.458,0,2.919-0.03,4.378-0.091c56.463-2.342,100.665-48.494,100.629-105.07c-0.002-4.464-3.622-8.079-8.084-8.079 c-0.001,0-0.003,0-0.005,0c-4.465,0.002-8.082,3.625-8.079,8.09c0.03,47.871-37.364,86.924-85.131,88.905 c-14.783,0.614-29.559-2.451-42.713-8.865l-29.562-14.415c-10.235-4.991-17.575-14.428-20.17-25.28 c0.069-0.005,0.138-0.003,0.206-0.009c6.341-0.507,12.016-2.109,16.84-4.746c5.092-2.755,9.358-6.313,12.684-10.575l2.465-3.161 l3.135,2.499c4.189,3.34,9.257,5.893,14.657,7.385c0.093,0.026,0.186,0.05,0.28,0.072c3.382,0.805,6.814,1.213,10.201,1.213 c2.46,0,4.977-0.22,7.28-0.636c0.036-0.006,0.071-0.013,0.107-0.021c6.424-1.25,12.051-3.593,16.652-6.914 c2.389-1.686,4.536-3.54,6.378-5.51c0.046-0.05,0.092-0.099,0.136-0.15c1.864-2.094,3.488-4.346,4.828-6.694l1.944-3.409 l3.429,1.908c2.672,1.487,5.224,2.577,7.622,3.25c2.748,0.758,5.651,1.236,8.569,1.422l0.136,0.01 c2.596,0.213,5.522,0.024,9.03-0.594c3.548-0.62,6.471-1.486,9.193-2.728l0.214-0.094c11.969-5.108,21.12-15.679,23.319-26.946 l0.721-3.696l3.729,0.528c1.288,0.182,2.661,0.36,4.146,0.36c0.001,0,0.003,0,0.005,0c1.435-0.015,2.916-0.117,4.405-0.308 c1.499-0.191,3.031-0.472,4.568-0.84c1.42-0.342,2.933-0.951,4.267-1.487c0.029-0.012,0.073-0.03,0.102-0.042 c1.5-0.624,3.014-1.343,4.5-2.137c0.055-0.029,0.11-0.059,0.164-0.089c1.32-0.746,2.62-1.69,4.062-2.758 c0.047-0.036,0.094-0.07,0.14-0.107c1.264-0.98,2.697-2.091,3.921-3.302c0.044-0.044,0.088-0.088,0.132-0.133 c1.294-1.34,2.541-2.752,3.709-4.204c0.522-0.65,1.033-1.302,1.52-1.965c0.108-0.148,0.211-0.299,0.309-0.453 c0.446-0.702,0.876-1.409,1.295-2.127c0.885-1.52,1.706-3.084,2.443-4.648c0.066-0.14,0.127-0.281,0.185-0.425 c1.315-3.269,2.227-6.432,2.71-9.398c0.021-0.127,0.039-0.254,0.053-0.383c0.299-2.626,0.585-6.041,0.14-9.192 c-0.475-3.331-1.19-6.078-2.184-8.398l-1.438-3.359l3.229-1.71c2.466-1.305,4.813-2.935,6.976-4.844 c0.082-0.072,0.163-0.147,0.241-0.222c2.278-2.181,4.22-4.473,5.817-6.886c3.599-5.558,5.942-12.11,6.595-18.393l0.014-0.124 C512.465,204.693,511.767,198.418,509.61,192.336z M299,396.014l29.563,14.415c0.011,0.005,0.023,0.011,0.034,0.016 c26.682,12.859,43.924,40.093,43.924,69.383c0,6.199-5.043,11.242-11.242,11.242h-9.853c-6.199,0-11.242-5.043-11.242-11.242 c0-17.213-9.82-32.636-25.661-40.27l-29.695-14.478c-27.857-13.581-46.375-41.568-48.284-72.288 c0.635-0.128,1.27-0.259,1.898-0.416c4.329-1.093,6.951-5.489,5.859-9.817c-1.094-4.329-5.489-6.95-9.817-5.859 c-2.011,0.509-4.097,0.765-6.198,0.765c-13.895,0-25.199-11.304-25.199-25.199c0-4.759,1.328-9.305,3.735-13.213 c6.198,14.171,19.455,24.446,34.904,26.641l2.507,0.357l0.733,2.423c2.005,6.632,5.801,12.63,10.978,17.343 c3.884,3.538,8.419,6.271,13.136,7.942C271.21,371.795,282.478,387.958,299,396.014z M495.64,209.173l-0.028,0.258 c-0.4,3.851-1.852,7.876-4.043,11.26c-0.853,1.287-2.01,2.651-3.353,3.952c-1.174,1.02-2.425,1.885-3.721,2.571l-8.118,4.298 c-0.232-0.021-0.466-0.036-0.703-0.036h-14.033c-9.365,0-16.982-7.617-16.982-16.982c0-18.279-14.872-33.151-33.151-33.151h-1.178 c-18.279,0-33.151,14.871-33.151,33.151c0,8.301-6.753,15.054-15.054,15.054c-9.365,0-16.982-7.617-16.982-16.982v-7.071 c0-4.465-3.62-8.084-8.084-8.084c-4.465,0-8.084,3.62-8.084,8.084v7.071c0,18.279,14.871,33.151,33.151,33.151 c17.216,0,31.222-14.006,31.222-31.222c0-9.365,7.617-16.982,16.982-16.982h1.178c9.365,0,16.982,7.617,16.982,16.982 c0,18.279,14.871,33.151,33.151,33.151h11.497l2.267,5.294c0.421,0.985,0.772,2.437,1.038,4.304 c0.136,0.967,0.078,2.61-0.175,4.886c-0.29,1.685-0.84,3.555-1.635,5.565c-0.511,1.07-1.078,2.141-1.684,3.183 c-0.265,0.454-0.538,0.905-0.819,1.354c-0.304,0.405-0.619,0.804-0.936,1.198c-0.836,1.04-1.732,2.057-2.661,3.023 c-0.534,0.513-1.518,1.279-2.336,1.912c-0.665,0.494-1.701,1.258-2.259,1.586c-0.992,0.527-1.991,1-2.908,1.382 c-0.585,0.235-1.675,0.674-2.006,0.765c-0.959,0.229-1.917,0.405-2.841,0.523c-0.868,0.111-1.718,0.17-2.457,0.179 c-0.372,0-1.437-0.152-1.786-0.202l-11.328-1.606c-4.262-0.606-8.245,2.234-9.069,6.456l-2.191,11.228 c-1.186,6.072-6.743,12.175-13.832,15.186c-0.034,0.015-0.07,0.03-0.104,0.045l-0.307,0.136c-0.033,0.015-0.068,0.03-0.1,0.045 c-1.443,0.662-3.126,1.146-5.308,1.527c-1.662,0.292-3.007,0.435-4.11,0.435c-0.266,0-0.531-0.008-0.887-0.037l-0.29-0.021 c-1.875-0.119-3.678-0.415-5.323-0.868c-0.787-0.221-2.136-0.713-4.091-1.8l-10.42-5.798c-3.874-2.156-8.758-0.79-10.954,3.059 l-5.907,10.355c-0.766,1.343-1.706,2.649-2.796,3.883c-1.079,1.143-2.368,2.245-3.896,3.323c-2.745,1.98-6.209,3.391-10.294,4.193 c-3.25,0.579-7.046,0.472-10.671-0.371c-3.26-0.919-6.28-2.439-8.742-4.402l-5.425-4.326c0.027-0.267,0.041-0.538,0.041-0.812 v-1.178c0-18.279-14.872-33.151-33.151-33.151c-8.301,0-15.054-6.753-15.054-15.054c0-9.365,7.617-16.982,16.982-16.982h7.07 c4.465,0,8.084-3.62,8.084-8.084s-3.62-8.084-8.084-8.084h-7.07c-18.279,0-33.151,14.871-33.151,33.151 c0,17.216,14.006,31.222,31.222,31.222c9.365,0,16.982,7.617,16.982,16.982v0.86l-6.876,8.815 c-1.945,2.493-4.512,4.612-7.66,6.316c-2.843,1.554-6.343,2.507-10.391,2.831c-2.021,0.158-4.149,0.009-6.362-0.439 c-0.033-0.008-0.067-0.015-0.101-0.023c-1.2-0.248-2.423-0.578-3.67-1.004c-2.786-0.946-5.512-2.588-7.883-4.747 c-3.019-2.75-5.229-6.231-6.389-10.069l-2.226-7.362c-0.911-3.012-3.486-5.221-6.601-5.664l-7.614-1.082 c-10.855-1.544-20.042-9.309-23.405-19.784l-3.375-10.513c-1.093-3.405-4.25-5.614-7.693-5.614c-0.593,0-1.194,0.066-1.795,0.202 l-10.771,2.446c-2.109,0.48-4.331,0.681-6.504,0.61c-7.15-0.238-13.739-3.319-18.077-8.452l-7.946-9.404 c-1.403-1.661-3.416-2.686-5.585-2.845c-2.17-0.155-4.309,0.563-5.939,2.001l-9.232,8.148c-5.07,4.475-12.051,6.514-19.315,5.496 c-7.232-0.999-14.014-5.202-17.279-10.707l-6.135-10.347c-2.274-3.836-7.225-5.104-11.065-2.837l-10.357,6.117 c-0.904,0.534-2.204,1.041-3.787,1.486c-0.902,0.244-1.605,0.405-2.09,0.482c-0.906,0.109-1.854,0.175-2.885,0.198 c-0.279,0.009-0.467,0.013-0.656,0.013c-3.341,0-7.116-0.985-10.93-2.849c-1.126-0.638-2.223-1.319-3.209-1.992l-0.627-0.433 c-0.152-0.105-0.307-0.203-0.371-0.25c-0.46-0.387-0.99-0.853-1.468-1.292c-1.063-0.988-1.796-1.719-2.351-2.344 c-0.747-0.942-1.44-1.902-2.051-2.84c-0.219-0.336-0.435-0.675-0.642-1.022c-0.194-0.391-0.378-0.785-0.556-1.184 c-0.398-0.894-0.74-1.78-1.02-2.639c-0.35-1.341-0.528-2.825-0.514-4.304l0.095-9.787c0.038-3.825-2.612-7.153-6.348-7.974 l-9.561-2.102c-1.273-0.279-2.581-0.764-3.889-1.442c-0.725-0.467-1.459-0.995-2.188-1.574c-0.372-0.295-0.742-0.603-1.109-0.922 c-0.133-0.142-0.291-0.321-0.455-0.503l-0.269-0.297c-0.744-0.841-1.525-1.82-2.267-2.838c-0.508-0.792-1.104-1.963-1.65-3.049 c-0.267-0.542-0.555-1.163-0.805-1.73c-0.06-0.185-0.136-0.431-0.216-0.689l-0.165-0.521c-0.41-1.347-0.766-2.725-1.063-4.1 c-1.596-10.762,3.33-17.764,6.513-20.215l8.616-6.634c3.283-2.529,4.124-7.131,1.945-10.656l-5.717-9.248 c-0.85-1.376-1.485-2.702-1.84-3.841c-0.534-1.996-0.834-3.82-0.871-5.243c-0.083-4.17,0.942-8.611,2.827-12.213 c0.618-1.191,1.184-2.193,1.726-3.055c0.667-0.91,1.371-1.795,2.139-2.681l0.226-0.267c0.93-1.121,2.24-2.259,4.195-3.635 l0.234-0.169c0.925-0.677,2.32-1.369,4.099-2.038c0.731-0.269,1.379-0.477,1.929-0.618c0.729-0.143,1.448-0.249,2.14-0.313 l11.543-1.065c4.325-0.399,7.561-4.143,7.33-8.481L62.89,95.757c-0.148-2.782,0.527-5.92,1.953-9.083 c0.929-1.833,1.926-3.44,2.965-4.78c1.565-1.845,2.979-3.263,4.32-4.328c2.07-1.537,3.824-2.635,5.154-3.238 c1.989-0.88,3.796-1.501,5.374-1.846c1.686-0.313,3.346-0.471,4.869-0.472l0.465,0.004c0.88,0.024,2.344,0.168,4.403,0.71 l11.265,2.967c6.521,6.629,6.494,17.325-0.094,23.913c-6.261,6.262-9.71,14.586-9.71,23.441c0,8.855,3.448,17.18,9.71,23.441 l0.833,0.833c6.261,6.261,14.586,9.71,23.441,9.71s17.18-3.448,23.441-9.71c5.87-5.869,15.42-5.869,21.289,0 c6.622,6.621,6.622,17.395,0,24.017l-4.999,4.999c-3.157,3.157-3.156,8.276,0,11.433c1.579,1.578,3.648,2.367,5.716,2.367 c2.068,0,4.138-0.789,5.717-2.368l4.998-4.999c12.925-12.925,12.925-33.956,0-46.882c-12.174-12.174-31.981-12.174-44.155,0 c-3.208,3.208-7.472,4.974-12.009,4.974c-4.536,0-8.8-1.767-12.008-4.974l-0.833-0.833c-3.208-3.208-4.974-7.472-4.974-12.009 c0-4.536,1.767-8.8,4.974-12.008c12.822-12.823,12.917-33.615,0.302-46.565l1.62-5.814c0.755-2.708,2.336-5.449,4.701-8.15 c1.25-1.31,2.665-2.54,4.207-3.659c1.483-0.999,3.261-1.943,5.285-2.807c3.07-1.221,6.249-1.841,9.45-1.841 c3.905,0,7.61,0.919,10.712,2.657l10.442,5.848c3.876,2.173,8.778,0.807,10.976-3.054l5.922-10.401 c3.33-5.85,9.612-10.062,16.805-11.269c1.497-0.252,3.012-0.379,4.502-0.379c5.821,0,11.188,1.88,15.113,5.292l6.38,5.548 c-0.001,0.053-0.008,0.105-0.008,0.157v25.038c0,18.279,14.871,33.151,33.151,33.151c9.365,0,16.982,7.617,16.982,16.982v1.178 c0,9.365-7.619,16.982-16.982,16.982c-17.216,0-31.222,14.006-31.222,31.222c0,18.279,14.871,33.151,33.151,33.151h7.07 c4.465,0,8.084-3.62,8.084-8.084c0-4.465-3.62-8.084-8.084-8.084h-7.07c-9.365,0-16.982-7.619-16.982-16.982 c0-8.301,6.753-15.054,15.054-15.054c18.279,0,33.151-14.872,33.151-33.151v-1.178c0-18.279-14.872-33.151-33.151-33.151 c-9.365,0-16.982-7.617-16.982-16.982V36.603c0-0.229-0.015-0.454-0.034-0.678l6.104-7.247c0.906-1.076,1.97-2.062,3.197-2.957 c1.357-1.001,2.84-1.885,4.409-2.629c3.434-1.429,6.796-2.155,9.995-2.155c0.255,0,1.001,0.016,1.009,0.016 c0.045,0.001,0.089,0.001,0.134,0.001c3.409,0.013,6.959,0.849,10.555,2.488c1.547,0.798,2.987,1.719,4.314,2.767 c1.205,0.94,2.221,1.943,3.106,3.069l7.57,9.616c1.34,1.702,3.305,2.795,5.457,3.034c2.151,0.239,4.31-0.395,5.992-1.76 l9.499-7.717c5.035-4.091,12.413-5.72,19.793-4.206c7.148,1.444,13.268,5.88,16.371,11.864l5.524,10.656 c2.049,3.953,6.906,5.505,10.87,3.471l10.679-5.482c2.821-1.449,6.161-2.214,9.663-2.214c3.608,0,7.181,0.793,10.622,2.361 c6.743,3.068,12.008,9.038,13.411,15.211l0.971,4.272c-5.664,2.505-10.54,6.631-14.113,12.057 c-4.897,7.439-6.72,16.324-5.132,25.018c0.722,3.956-0.139,7.956-2.425,11.264c-2.286,3.308-5.724,5.527-9.68,6.25 c-4.462,0.815-8.976-0.157-12.706-2.737c-3.732-2.579-6.236-6.457-7.051-10.919l-1.27-6.956c-0.802-4.393-5.014-7.298-9.405-6.501 c-4.392,0.802-7.303,5.012-6.501,9.405l1.27,6.956c1.59,8.71,6.477,16.281,13.761,21.315c5.604,3.874,12.109,5.89,18.779,5.89 c2,0,4.015-0.181,6.024-0.549c8.204-1.498,15.334-6.101,20.076-12.962s6.529-15.157,5.031-23.361 c-0.825-4.514,0.171-9.335,2.731-13.224c2.561-3.89,6.365-6.469,10.711-7.264c0.11-0.02,0.216-0.052,0.323-0.077 c0.28-0.031,0.562-0.075,0.844-0.136l11.66-2.529c0.771-0.167,1.577-0.294,2.305-0.371c0.042-0.003,0.429-0.038,1.184-0.038 c0.264,0,0.528,0.004,0.794,0.012c2.074,0.095,3.62,0.297,4.725,0.62c2.245,0.653,3.932,1.301,5.297,2.034 c1.493,0.862,3.606,2.148,5.165,3.579c3.152,2.83,5.554,6.181,6.953,9.696c0.796,2.168,1.207,3.639,1.342,4.828 c0.219,1.803,0.243,3.423,0.073,4.955l-1.222,11.017c-0.464,4.177,2.351,8.013,6.475,8.825l10.879,2.139 c1.468,0.288,3.01,0.799,4.654,1.55c1.009,0.45,2.336,1.35,4.354,2.957c0.348,0.274,0.787,0.709,1.411,1.406 c0.842,0.93,1.617,1.871,2.41,2.934l0.106,0.137c0.208,0.299,0.743,1.263,1.099,1.906l0.194,0.349 c0.537,1.02,1.124,2.16,1.417,2.923c1.623,4.367,2.206,8.819,1.635,12.594c-0.167,1.153-0.374,2.21-0.637,3.25 c-0.105,0.375-0.526,1.389-0.722,1.859c-0.701,1.572-1.293,2.63-1.812,3.234l-7.3,8.505c-2.76,3.215-2.569,8.016,0.438,11.002 l7.956,7.901c0.517,0.513,1.03,1.093,1.516,1.714c0.234,0.3,0.465,0.61,0.689,0.93l1.094,1.645c0.977,1.562,1.7,3.007,2.193,4.373 C495.687,201.451,496.111,205.257,495.64,209.173z" fill="#000000"/></symbol><symbol id="vagina" viewBox="0 0 60 60"><title>vagina</title><circle cx="31" cy="23" r="1" fill="#000000"/><circle cx="28" cy="21" r="1" fill="#000000"/><circle cx="34" cy="21" r="1" fill="#000000"/><circle cx="34" cy="18" r="1" fill="#000000"/><circle cx="31" cy="20" r="1" fill="#000000"/><circle cx="34" cy="24" r="1" fill="#000000"/><circle cx="28" cy="24" r="1" fill="#000000"/><circle cx="31" cy="17" r="1" fill="#000000"/><circle cx="28" cy="18" r="1" fill="#000000"/><path d="M52.459,10.142c-0.017-0.022-0.024-0.049-0.043-0.07c-0.014-0.015-0.032-0.02-0.047-0.034C46.871,3.884,38.882,0,30,0 C22.009,0,14.744,3.146,9.362,8.257C9.341,8.276,9.315,8.283,9.295,8.303C9.28,8.318,9.275,8.338,9.261,8.354 C3.56,13.818,0,21.499,0,30c0,16.542,13.458,30,30,30s30-13.458,30-30C60,22.389,57.146,15.436,52.459,10.142z M28.457,32.928 C28.977,32.97,29.494,33,30,33c0.28,0,0.561-0.02,0.841-0.032C30.895,32.977,30.944,33,31,33c0.082,0,0.156-0.028,0.232-0.047 c0.749-0.047,1.498-0.143,2.246-0.276C32.513,34.401,32,36.291,32,38.178v19.743C31.339,57.968,30.673,58,30,58V38.914 C30,36.858,29.455,34.802,28.457,32.928z M34,57.71V38.178c0-1.692,0.504-3.398,1.458-4.933c0.228-0.366,0.491-0.785,0.782-1.242 l0.002,0l0.198-0.312c0.54-0.846,1.089-1.687,1.642-2.518c0.026-0.039,0.052-0.078,0.078-0.116 c0.551-0.827,1.106-1.645,1.662-2.446c0,0,0-0.001,0-0.001c0.009-0.013,0.018-0.026,0.027-0.039 c0.315-0.454,0.203-1.077-0.251-1.392c-0.454-0.316-1.076-0.202-1.392,0.251c-0.566,0.815-1.096,1.597-1.594,2.342 c-0.038,0.057-0.076,0.114-0.114,0.172c-0.567,0.851-1.084,1.643-1.543,2.356c-0.982,0.279-1.966,0.451-2.955,0.563V27 c0-0.553-0.447-1-1-1s-1,0.447-1,1v3.975c-0.909-0.002-1.824-0.049-2.762-0.197c-0.019-0.032-0.041-0.068-0.06-0.1 c-0.121-0.205-0.253-0.424-0.381-0.638c-0.076-0.126-0.146-0.245-0.224-0.375c-0.23-0.382-0.469-0.777-0.719-1.185 c-0.288-0.47-0.902-0.618-1.375-0.33c-0.353,0.216-0.525,0.617-0.467,1.002c0.019,0.129,0.064,0.256,0.136,0.374 c0.286,0.468,0.559,0.918,0.819,1.352c0.031,0.052,0.061,0.102,0.092,0.153c0.21,0.351,0.41,0.688,0.602,1.012 c0.312,0.529,0.605,1.03,0.863,1.477C27.489,35.195,28,37.061,28,38.914v19.007C13.491,56.891,2,44.766,2,30 c0-7.608,3.054-14.513,7.996-19.565c1.577,1.624,3.229,3.529,4.936,5.696c0.382,0.485,0.762,0.962,1.148,1.472 c0,0,0.001,0.001,0.001,0.001c0,0,0,0.001,0,0.001C16.278,17.863,16.577,18,16.88,18c0.21,0,0.423-0.066,0.604-0.203 c0.439-0.334,0.526-0.961,0.192-1.401c-0.436-0.575-0.865-1.115-1.295-1.659c-1.701-2.151-3.352-4.049-4.936-5.68 C16.389,4.671,22.887,2,30,2c7.973,0,15.172,3.355,20.276,8.72c-1.406,1.363-2.862,2.915-4.36,4.654 c-1.074,1.246-2.168,2.585-3.278,4.012c-0.339,0.437-0.261,1.064,0.175,1.403C42.995,20.932,43.212,21,43.426,21 c0.298,0,0.593-0.133,0.79-0.386l0-0.001l0.001,0c2.581-3.318,5.062-6.135,7.392-8.401C55.6,17.053,58,23.251,58,30 C58,44.081,47.551,55.763,34,57.71z" fill="#000000"/></symbol><symbol id="lungs" viewBox="0 0 512 512"><title>lungs</title><path d="M70.767,326.767L53.7,343.834c-3.337,3.336-3.337,8.73,0,12.066c1.664,1.664,3.849,2.5,6.033,2.5s4.369-0.836,6.033-2.5 l17.067-17.067c3.337-3.336,3.337-8.73,0-12.066C79.497,323.43,74.103,323.43,70.767,326.767z" fill="#000000"/><path d="M230.4,162.133c-4.71,0-8.533,3.823-8.533,8.533V284.86l-21.786-10.897c-4.224-2.116-9.335-0.393-11.452,3.823 c-2.108,4.215-0.393,9.335,3.823,11.452l29.414,14.703V409.6h-5.001l-31.633-31.633c-3.337-3.336-8.73-3.336-12.066,0 c-3.337,3.337-3.337,8.73,0,12.066l19.567,19.567H179.2c-4.71,0-8.533,3.823-8.533,8.533s3.823,8.533,8.533,8.533h42.667v8.533 c0,24.064-7.322,46.234-77.653,55.347L116.966,463.3c-3.337-3.337-8.73-3.337-12.066,0c-3.337,3.336-3.337,8.73,0,12.066 l17.425,17.425c-17.613,1.382-38.263,2.142-62.592,2.142c-29.107,0-42.667-37.965-42.667-119.467 c0-74.889,32.418-146.637,52.096-183.296L79.3,202.3c1.664,1.664,3.849,2.5,6.033,2.5c2.185,0,4.369-0.836,6.033-2.5 c3.337-3.337,3.337-8.73,0-12.066L77.85,176.708c3.635-6.17,5.931-9.66,6.05-9.847c0.188-0.282,0.367-0.597,0.529-0.896 c0.316-0.64,32.734-63.565,94.771-63.565c9.387,0,17.57,3.132,24.303,9.301c3.473,3.174,8.883,2.944,12.058-0.538 c3.183-3.473,2.944-8.875-0.529-12.058c-9.847-9.011-22.238-13.773-35.831-13.773c-70.366,0-106.197,65.562-109.781,72.491 C63.932,166.161,0,265.719,0,375.467C0,439.031,6.784,512,59.733,512c132.309,0,179.2-20.096,179.2-76.8V170.667 C238.933,165.956,235.11,162.133,230.4,162.133z" fill="#000000"/><path d="M332.8,187.733c2.185,0,4.369-0.836,6.033-2.5c3.337-3.337,3.337-8.73,0-12.066l-74.3-74.3V8.533 C264.533,3.823,260.71,0,256,0s-8.533,3.823-8.533,8.533v90.334l-74.3,74.3c-3.337,3.337-3.337,8.73,0,12.066 c3.337,3.336,8.73,3.336,12.066,0L256,114.466l70.767,70.767C328.431,186.897,330.615,187.733,332.8,187.733z" fill="#000000"/><path d="M442.581,157.824c-3.593-6.929-39.424-72.491-109.781-72.491c-13.833,0-26.394,4.932-36.335,14.251 c-3.439,3.226-3.618,8.627-0.393,12.058c3.243,3.447,8.636,3.61,12.058,0.393c6.818-6.391,15.121-9.634,24.67-9.634 c62.037,0,94.447,62.925,94.771,63.565c0.154,0.307,0.341,0.614,0.529,0.905c0.119,0.179,2.415,3.669,6.059,9.839l-13.525,13.525 c-3.336,3.337-3.336,8.73,0,12.066c1.664,1.664,3.849,2.5,6.033,2.5s4.369-0.836,6.033-2.5l10.146-10.138 c19.678,36.634,52.087,108.314,52.087,183.305c0,81.502-13.559,119.467-42.667,119.467c-24.337,0-44.979-0.759-62.592-2.142 l17.425-17.425c3.337-3.337,3.337-8.73,0-12.066c-3.336-3.337-8.73-3.337-12.066,0l-27.238,27.247 c-70.34-9.114-77.662-31.283-77.662-55.347v-8.533H332.8c4.719,0,8.533-3.823,8.533-8.533s-3.814-8.533-8.533-8.533h-13.534 l19.567-19.567c3.337-3.336,3.337-8.73,0-12.066c-3.336-3.336-8.73-3.336-12.066,0L295.134,409.6h-5V303.94l29.414-14.703 c4.216-2.116,5.931-7.236,3.823-11.452c-2.125-4.216-7.245-5.931-11.452-3.823l-21.786,10.897V170.667 c0-4.71-3.814-8.533-8.533-8.533c-4.719,0-8.533,3.823-8.533,8.533V435.2c0,56.704,46.891,76.8,179.2,76.8 C505.207,512,512,439.031,512,375.467C512,265.719,448.068,166.161,442.581,157.824z" fill="#000000"/><path d="M452.267,358.4c2.185,0,4.369-0.836,6.033-2.5c3.337-3.337,3.337-8.73,0-12.066l-17.067-17.067 c-3.337-3.337-8.73-3.337-12.066,0c-3.336,3.336-3.336,8.73,0,12.066l17.067,17.067C447.898,357.564,450.082,358.4,452.267,358.4 z" fill="#000000"/></symbol><symbol id="cardiology" viewBox="0 0 512.005 512.005"><title>cardiology</title><g> <g> <path d="M411.324,322.86c2.483-11.154,3.762-22.654,3.799-34.179c0.167-51.29-25.574-100.102-69.06-131.417 c-0.078-10.777-1.027-21.254-2.825-31.26c7.477-4.141,12.553-12.112,12.553-21.247c0-13.385-10.888-24.273-24.273-24.273 c-1.503,0-2.998,0.058-4.486,0.159c-3.779-6.34-8.018-11.947-12.681-16.731l6.515-13.029c5.985-11.971,1.115-26.579-10.855-32.565 c-5.799-2.9-12.379-3.368-18.531-1.317c-4.467,1.489-8.319,4.177-11.203,7.757v-0.912h-0.01C280.064,10.664,269.282,0,256.051,0 c-13.231,0-24.013,10.664-24.216,23.848h-0.105v1.368c-2.886-3.589-6.729-6.294-11.203-7.785 c-6.151-2.051-12.732-1.584-18.53,1.317c-11.97,5.985-16.84,20.594-10.856,32.565c0.001,0.003,0.003,0.005,0.004,0.009 l9.118,18.236c-0.064,0.065-0.127,0.133-0.191,0.197c-3.686,3.765-7.13,7.893-10.269,12.347c-0.168,0.238-0.324,0.489-0.49,0.729 c-5.655-1.551-11.5-2.345-17.455-2.345c-13.385,0-24.273,10.888-24.273,24.273c0,12.77,9.914,23.261,22.449,24.197 c-1.985,9.596-3.03,19.58-3.03,29.742c0,8.265,3.487,16.217,9.567,21.82c1.555,1.434,3.52,2.141,5.481,2.141 c2.181,0,4.357-0.877,5.952-2.607c3.028-3.286,2.819-8.405-0.467-11.433c-2.806-2.585-4.351-6.109-4.351-9.921 c0-25.234,7.047-49.124,19.843-67.271c1.836-2.604,3.79-5.074,5.845-7.394l0.002,0.002l0.371-0.413 c0.398-0.443,0.798-0.88,1.199-1.306l0.325-0.343c0.436-0.458,0.876-0.912,1.324-1.361l0.229-0.23 c0.484-0.482,0.973-0.956,1.463-1.419l-0.004-0.004c0.043-0.041,0.087-0.082,0.13-0.123l0.003,0.004 c0.538-0.506,1.081-1.002,1.629-1.489c0.046-0.041,0.081-0.09,0.126-0.132c0.236-0.219,0.455-0.451,0.66-0.691 c0.079-0.093,0.159-0.185,0.233-0.281c0.217-0.279,0.414-0.57,0.59-0.87c0.055-0.095,0.104-0.191,0.155-0.288 c0.149-0.281,0.284-0.567,0.398-0.861c0.031-0.08,0.064-0.157,0.093-0.237c0.112-0.318,0.198-0.643,0.27-0.971 c0.024-0.111,0.049-0.22,0.068-0.332c0.059-0.339,0.098-0.681,0.113-1.025c0.005-0.108,0.003-0.216,0.004-0.325 c0.002-0.334-0.012-0.668-0.051-1.001c-0.008-0.066-0.015-0.131-0.025-0.196c-0.051-0.358-0.132-0.712-0.232-1.064 c-0.022-0.076-0.041-0.152-0.065-0.228c-0.117-0.37-0.262-0.732-0.435-1.086c-0.014-0.029-0.021-0.059-0.036-0.089l-11.796-23.591 c-0.001-0.002-0.002-0.005-0.003-0.009c-1.996-3.99-0.372-8.86,3.618-10.856c1.932-0.967,4.126-1.123,6.176-0.439 c2.051,0.684,3.712,2.124,4.678,4.057c1.328,2.657,1.096,5.823-0.608,8.265c-0.477,0.684-1.056,1.287-1.722,1.792 c-3.559,2.701-4.254,7.777-1.552,11.336c1.591,2.097,4.007,3.2,6.45,3.2c1.705,0,3.424-0.537,4.886-1.647 c0.994-0.754,1.922-1.581,2.783-2.474l0.886,1.771c1.398,2.796,4.234,4.474,7.237,4.474c0.738,0,1.487-0.101,2.227-0.314 c0.442-0.126,0.886-0.247,1.331-0.364c3.941-1.024,6.506-4.817,5.991-8.856c-0.056-0.44-0.082-0.772-0.082-1.047V25.4 c0.056-0.384,0.095-0.775,0.095-1.175c0-4.435,3.609-8.043,8.043-8.043c4.435,0,8.043,3.609,8.043,8.043 c0,3.712-2.618,7.01-6.226,7.84c-4.355,1.001-7.074,5.343-6.071,9.698c0.861,3.744,4.192,6.28,7.877,6.28 c0.601,0,1.21-0.067,1.821-0.207c0.892-0.205,1.754-0.473,2.6-0.768v5.91c0,4.468,3.623,8.091,8.091,8.091 c0.655,0,1.305,0.024,1.955,0.058c3.217,0.156,6.216-1.586,7.653-4.462l10.125-20.25c0.966-1.933,2.628-3.373,4.679-4.057 c2.05-0.684,4.243-0.528,6.176,0.439c3.99,1.996,5.614,6.865,3.619,10.856l-9.201,18.402c-1.656,3.311-0.853,7.323,1.948,9.741 c3.931,3.394,7.571,7.511,10.887,12.289c-5.726,1.977-11.186,4.746-16.24,8.282c-1.893,1.326-4.233,1.594-6.282,0.725 c-4.159-2-8.627-3.624-13.28-4.828l-0.997-0.258h-1.03c-22.149,0-45.863,28.407-45.863,70.695c0,7.436-6.049,13.485-13.485,13.485 c-4.468,0-8.091,3.623-8.091,8.091c0,4.468,3.623,8.091,8.091,8.091c16.359,0,29.667-13.308,29.667-29.667 c0-7.436,6.049-13.485,13.485-13.485s13.485,6.049,13.485,13.485c0,7.954,3.105,15.423,8.744,21.033 c5.601,5.572,13.024,8.634,20.92,8.634c0.053,0,0.108,0,0.16,0c7.806-0.041,15.168-3.194,20.728-8.878 c3.986-4.076,6.742-9.22,8-14.733c1.724,0.88,3.295,1.961,4.775,2.979l0.611,0.42c41.18,28.151,65.671,73.19,65.517,120.479 c-0.033,10.363-1.182,20.697-3.413,30.715c-8.037,36.097-7.559,72.322,1.384,104.756c1.427,5.176,2.108,10.556,2.023,15.99 c-0.48,30.729-26.314,55.729-57.587,55.729H320.73c-114.508,0-207.667-93.159-207.667-207.667 c0-38.731,15.238-74.992,42.906-102.103c3.191-3.127,3.244-8.25,0.117-11.442c-3.126-3.191-8.25-3.245-11.442-0.117 c-30.8,30.18-47.762,70.545-47.762,113.661c0,123.431,100.418,223.849,223.849,223.849h20.618 c40.059,0,73.151-32.146,73.767-71.659c0.109-6.972-0.767-13.884-2.603-20.542C404.271,389.906,403.86,356.385,411.324,322.86z M174.343,112.948c-0.825-0.06-1.654-0.1-2.486-0.1c-4.462,0-8.091-3.629-8.091-8.091c0-4.462,3.629-8.091,8.091-8.091 c3.005,0,5.971,0.269,8.88,0.792C178.297,102.409,176.152,107.582,174.343,112.948z M327.967,147.58 c-0.939-6.218-2.635-12.331-5.063-18.052c1.407-0.181,2.891-0.307,4.458-0.389c1.085,6.103,1.825,12.408,2.211,18.873 C329.05,147.856,328.515,147.711,327.967,147.58z M331.519,112.85c-4.16,0-7.871,0.235-11.345,0.719 c-4.951,0.688-9.187,3.57-11.624,7.906c-2.428,4.322-2.687,9.419-0.71,13.984c2.637,6.087,4.233,12.758,4.673,19.453 c0,0.004-0.001,0.01,0,0.014c0,0.016,0.003,0.031,0.003,0.047c0.059,0.914,0.099,1.827,0.115,2.74 c0.066,3.874-1.451,7.685-4.161,10.457c-2.513,2.569-5.795,3.994-9.243,4.011c-3.597,0.021-7.02-1.374-9.583-3.924 c-2.563-2.55-3.975-5.945-3.975-9.56c0-16.359-13.308-29.667-29.667-29.667c-3.017,0-5.931,0.456-8.677,1.298 c5.847-15.872,15.929-25.418,23.953-26.104c3.277,0.915,6.41,2.091,9.327,3.503l0.244,0.113 c7.189,3.188,15.701,2.338,22.212-2.218c1.38-0.966,2.802-1.847,4.256-2.661c-0.044,0.594-0.073,1.192-0.073,1.797 c0,4.468,3.623,8.091,8.091,8.091c4.468,0,8.091-3.623,8.091-8.091c0-4.462,3.629-8.091,8.091-8.091s8.091,3.629,8.091,8.091 C339.61,109.221,335.981,112.85,331.519,112.85z" fill="#000000"/> </g> </g><g> <g> <circle cx="202.071" cy="315.125" r="16.182" fill="#000000"/> </g> </g><g> <g> <circle cx="309.95" cy="315.125" r="16.182" fill="#000000"/> </g> </g></symbol><symbol id="uploading-arrow-signal" viewBox="0 0 342.694 342.694"><title>uploading-arrow-signal</title><path d="M140.551,239.964h70.277c3.075,0,5.561-2.486,5.561-5.561v-61.226h66.798c3.074,0,3.915-1.867,1.873-4.173L179.724,50.023 c-2.039-2.306-5.341-2.312-7.389-0.012L66.329,169.018c-2.048,2.305-1.213,4.161,1.861,4.161h66.797v61.237 C134.988,237.478,137.477,239.964,140.551,239.964z" fill="#000000"/><path d="M318.759,57.743h-44.363c-13.211,0-23.936,9.376-23.936,20.941c0,11.565,0,20.945,0,20.945h50.345v152.885H41.887V99.629 h59.042V78.684c0-11.565-10.719-20.941-23.938-20.941H23.938C10.719,57.743,0,68.458,0,81.672v188.791 c0,13.217,10.719,23.941,23.938,23.941h294.82c13.211,0,23.936-10.713,23.936-23.941V81.672 C342.694,68.458,331.97,57.743,318.759,57.743z" fill="#000000"/></symbol><symbol id="triangle-inside-circle" viewBox="0 0 16 16"><title>triangle-inside-circle</title><path d="M8,0C3.582,0,0,3.582,0,8s3.582,8,8,8s8-3.582,8-8S12.418,0,8,0z M8,14c-3.313,0-6-2.688-6-6 c0-3.313,2.687-6,6-6c3.312,0,6,2.687,6,6C14,11.312,11.312,14,8,14z" fill="#000000"/><polygon points="4,10 12,10 8,5 " fill="#000000"/></symbol><symbol id="arrow-up" viewBox="0 0 16 16"><title>arrow-up</title><path d="M8,0C3.582,0,0,3.582,0,8s3.582,8,8,8s8-3.582,8-8S12.418,0,8,0z M4,11l4-7l4,7H4z" fill="#000000"/></symbol><symbol id="clock" viewBox="0 0 510 510"><title>clock</title><path style="fill-opacity:0.9;" d="M255,0C114.75,0,0,114.75,0,255s114.75,255,255,255s255-114.75,255-255S395.25,0,255,0z M255,459c-112.2,0-204-91.8-204-204S142.8,51,255,51s204,91.8,204,204S367.2,459,255,459z" fill="#000000"/><polygon style="fill-opacity:0.9;" points="267.75,127.5 229.5,127.5 229.5,280.5 362.1,362.1 382.5,328.95 267.75,260.1 " fill="#000000"/></symbol><symbol id="technology-1" viewBox="0 0 487.766 487.766"><title>technology-1</title><path d="M345.487,487.566c2.2,0.1,4.3,0.2,6.5,0.2c23.5,0,43.1-8.5,58.5-25.2c0.1-0.1,0.3-0.3,0.4-0.4 c5.5-6.6,11.7-12.6,18.3-18.9c4.5-4.3,9.1-8.7,13.4-13.3c20.5-21.4,20.4-48.5-0.2-69.1l-57-57c-9.8-10.2-21.5-15.6-33.9-15.6 c-12.3,0-24.1,5.3-34.2,15.4l-33.7,33.7c-3-1.7-6.1-3.2-9.1-4.7c-3.8-1.9-7.3-3.7-10.4-5.6c-30.9-19.6-58.9-45.2-85.7-78.1 c-13.5-17-22.4-31.2-28.7-45.8c8.8-8,17-16.3,24.9-24.4c2.9-2.9,5.8-5.9,8.8-8.9c21.4-21.4,21.4-47.9,0-69.2l-28.3-28.3 c-3.3-3.3-6.5-6.6-9.7-9.8c-6.3-6.4-12.8-13.1-19.3-19.1c-9.8-9.8-21.4-14.9-33.7-14.9c-12.2,0-24,5.1-34.2,14.9l-35.5,35.4 c-13,13-20.4,28.8-22,47.1c-1.8,22.8,2.4,47,13.2,76.2c16.7,45.1,41.8,87,79,131.8c45.3,54,99.7,96.7,161.9,126.8 C278.487,472.066,310.187,485.266,345.487,487.566z M111.787,318.266c-35.4-42.6-59.1-82.2-74.8-124.6 c-9.7-26.1-13.3-46.4-11.8-65.7c1.1-12.5,5.9-22.9,14.9-31.8l35.3-35.3c5.4-5.2,11.3-7.9,17.1-7.9c5.7,0,11.3,2.7,16.7,8 c6.3,5.9,12.4,12.1,18.8,18.6c3.2,3.3,6.5,6.7,9.9,10l28.3,28.3c11.6,11.6,11.6,23,0,34.6c-3,3-6,6-8.9,9 c-8.8,8.9-17,17.3-26.1,25.4c-0.2,0.2-0.3,0.3-0.5,0.5c-8.1,8.1-6.9,15.9-4.9,21.7c0.1,0.3,0.2,0.5,0.3,0.8 c7.3,17.6,17.6,34.3,33.4,54.3c28.5,35.1,58.5,62.4,91.7,83.5c4.1,2.6,8.4,4.8,12.6,6.9c3.8,1.9,7.3,3.7,10.4,5.6 c0.4,0.2,0.7,0.4,1.1,0.6c3.2,1.6,6.3,2.4,9.5,2.4c7.9,0,12.9-5,14.5-6.7l35.5-35.5c5.4-5.4,11.2-8.2,16.9-8.2 c7,0,12.7,4.4,16.4,8.2l57.2,57.2c14,14,7.6,26.6-0.3,34.9c-4,4.3-8.2,8.3-12.6,12.6c-6.7,6.4-13.6,13.1-19.9,20.6 c-10.8,11.6-23.6,17-40.3,17c-1.6,0-3.3-0.1-4.9-0.2c-31.1-2-59.9-14.1-81.6-24.4 C206.487,410.166,154.787,369.666,111.787,318.266z" fill="#000000"/><path d="M268.087,89.266c-6.7-1.1-13,3.4-14.1,10c-1.1,6.7,3.4,13,10,14.1c27.5,4.7,52.5,17.7,72.5,37.6 c19.9,19.9,32.9,45,37.6,72.5c1,6,6.2,10.2,12.1,10.2c0.7,0,1.4-0.1,2.1-0.2c6.7-1.1,11.2-7.5,10-14.1 c-5.5-32.5-20.9-62.2-44.4-85.7C330.187,110.066,300.587,94.766,268.087,89.266z" fill="#000000"/><path d="M475.187,229.466c0.7,0,1.4-0.1,2.1-0.2c6.7-1.1,11.2-7.5,10-14.1c-9.1-53.8-34.5-102.7-73.4-141.6 c-39-38.9-87.9-64.3-141.7-73.4c-6.7-1.1-13,3.4-14.1,10c-1.1,6.7,3.4,13,10,14.1c48.7,8.3,93.1,31.3,128.4,66.6 s58.3,79.7,66.6,128.4C464.087,225.266,469.287,229.466,475.187,229.466z" fill="#000000"/></symbol><symbol id="interface" viewBox="0 0 129 129"><title>interface</title><path d="m6.5,110.9c0,0.1 0,0.2 0.1,0.4 0,0.1 0.1,0.3 0.1,0.4 0,0.1 0.1,0.2 0.1,0.4 0.1,0.1 0.1,0.2 0.2,0.4 0.1,0.1 0.1,0.2 0.2,0.3 0.1,0.1 0.2,0.2 0.2,0.3 0.1,0.1 0.2,0.2 0.3,0.3 0,0 0.1,0.1 0.1,0.1 0,0 0.1,0 0.1,0.1 0.3,0.3 0.7,0.5 1.1,0.6 0.1,0 0.1,0 0.2,0.1 0.4,0.1 0.8,0.2 1.2,0.2l0,0h107.9l0,0c0.4,0 0.8-0.1 1.2-0.2 0.1,0 0.1,0 0.2-0.1 0.4-0.2 0.8-0.4 1.1-0.6 0,0 0.1,0 0.1-0.1 0,0 0.1-0.1 0.1-0.1 0.1-0.1 0.2-0.2 0.3-0.3 0.1-0.1 0.2-0.2 0.2-0.3 0.1-0.1 0.1-0.2 0.2-0.3 0.1-0.1 0.1-0.2 0.2-0.4 0.1-0.1 0.1-0.2 0.1-0.4 0-0.1 0.1-0.3 0.1-0.4 0-0.1 0.1-0.2 0.1-0.4 0-0.1 0-0.3 0-0.4 0-0.1 0-0.1 0-0.2v-91.6c0-2.3-1.8-4.1-4.1-4.1h-107.6c-2.3,0-4.1,1.8-4.1,4.1v91.6c0,0.1 0,0.1 0,0.2 0.1,0.1 0.1,0.2 0.1,0.4zm12.8-4.7l30.3-36.2 12.6,8.8c0.7,0.5 1.5,0.7 2.3,0.7 0.8,0 1.6-0.2 2.3-0.7l12.6-8.8 30.3,36.2h-90.4zm95.1-7.2l-28.3-33.7 28.2-19.7v53.4zm-99.7-76.2h99.7v12.9l-49.8,34.7-49.9-34.7v-12.9zm-0,22.8l28.2,19.7-28.2,33.7v-53.4z" fill="#000000"/></symbol><symbol id="church" viewBox="0 0 480 480"><title>church</title><path d="M470,460h-40v-20c0-11.028-8.972-20-20-20h-10V189.889c11.215-1.125,20-10.618,20-22.124 c0-8.572-5.011-16.469-12.768-20.119L250,73.654V50h10c5.523,0,10-4.477,10-10s-4.477-10-10-10h-10V10c0-5.523-4.477-10-10-10 s-10,4.477-10,10v20h-10c-5.523,0-10,4.477-10,10s4.477,10,10,10h10v23.654L72.767,147.646C65.011,151.296,60,159.193,60,167.765 c0,11.506,8.785,21,20,22.124V420H70c-11.028,0-20,8.972-20,20v20H10c-5.523,0-10,4.477-10,10s4.477,10,10,10h460 c5.523,0,10-4.477,10-10S475.523,460,470,460z M81.283,165.742L240,91.052l158.716,74.69c0.78,0.367,1.284,1.161,1.284,2.023 c0,1.232-1.003,2.235-2.235,2.235H390c-5.523,0-10,4.477-10,10v240h-30v-20c0-11.028-8.972-20-20-20V260c0-11.028-8.972-20-20-20 H170c-11.028,0-20,8.972-20,20v120c-11.028,0-20,8.972-20,20v20h-30V180c0-5.523-4.477-10-10-10h-7.765 c-1.232,0-2.235-1.003-2.235-2.235C80,166.903,80.504,166.109,81.283,165.742z M310,260v120h-60V260H310z M230,260v120h-60V260 H230z M410,460H70v-20h70c5.523,0,10-4.477,10-10v-30h180v30c0,5.523,4.477,10,10,10h70V460z" fill="#000000"/><path d="M240,210c19.299,0,35-15.701,35-35s-15.701-35-35-35s-35,15.701-35,35S220.701,210,240,210z M240,160 c8.271,0,15,6.729,15,15s-6.729,15-15,15s-15-6.729-15-15S231.729,160,240,160z" fill="#000000"/></symbol><symbol id="avatar" viewBox="0 0 448 448"><title>avatar</title><g> <g> <path d="M248,315.996v24c0,13.236-10.764,24-24,24c-13.236,0-24-10.764-24-24v-24h-24v24c0,26.468,21.532,48,48,48 c26.464,0,48-21.532,48-48v-24H248z" fill="#000000"/> </g> </g><g> <g> <path d="M149.588,286.02c-16.252,10.296-36.924,16.212-61.58,17.632L88.004,170.16c0.028-2.008,0.076-4.336,0.132-6.092 l0.224-3.296c2.036-29.992,13.968-58.692,33.592-80.812L104,64.032c-23.132,26.072-37.192,59.852-39.588,95.116l0.16,0.008 c-0.464,3.176-0.516,6.86-0.572,10.84v158h12c34.62,0,63.696-7.3,86.432-21.704L149.588,286.02z" fill="#000000"/> </g> </g><g> <g> <path d="M379.996,169.832c-0.056-3.904-0.108-7.532-0.564-10.672l0.156-0.008c-2.28-33.58-15.272-65.04-37.564-90.976 l-18.2,15.648c18.892,21.972,29.892,48.58,31.82,76.952l0.224,3.304c0.056,1.74,0.104,4.016,0.132,5.916v133.66 c-24.656-1.42-45.328-7.336-61.572-17.628L281.58,306.3c22.72,14.396,51.796,21.696,86.42,21.696h12L379.996,169.832z" fill="#000000"/> </g> </g><g> <g> <path d="M335.408,158.016c-0.9-2.208-23.092-54.02-115.408-54.02c-93.124,0-111.572,67.456-111.748,68.14 c-0.168,0.652-0.252,1.324-0.252,1.996v38.444c0,62.86,51.14,114,114,114c62.856,0,114-51.144,114-114v-51.54 C336,160,335.8,158.972,335.408,158.016z M320,212.572c0,54.04-43.964,98-98,98s-98-43.96-98-98v-37.284 c2.256-6.996,20.608-55.292,96-55.292c74.128,0,96.252,35.552,100,42.824V212.572z" fill="#000000"/> </g> </g><g> <g> <circle cx="168" cy="212" r="12" fill="#000000"/> </g> </g><g> <g> <circle cx="280" cy="212" r="12" fill="#000000"/> </g> </g><g> <g> <path d="M192,251.996c0,16.572,13.428,32,30,32s30-15.428,30-32H192z" fill="#000000"/> </g> </g><g> <g> <path d="M185.264,343.976c-1.052-0.048-101.8-3.284-136.476,87.748c-2.36,6.196,0.748,13.128,6.94,15.488 c1.404,0.536,2.848,0.788,4.268,0.788c4.836,0,9.392-2.944,11.216-7.732c28.44-74.656,109.576-72.424,113.052-72.316 c6.544,0.364,12.192-4.86,12.476-11.476C197.02,349.856,191.884,344.256,185.264,343.976z" fill="#000000"/> </g> </g><g> <g> <path d="M399.212,431.72c-34.68-91.032-133.508-87.82-134.484-87.776c-6.62,0.284-11.756,5.888-11.468,12.508 c0.288,6.62,5.98,11.836,12.508,11.468c0.844-0.024,82.432-2.684,111.016,72.348c1.824,4.788,6.38,7.732,11.216,7.732 c1.42,0,2.864-0.252,4.272-0.792C398.464,444.848,401.572,437.916,399.212,431.72z" fill="#000000"/> </g> </g><g> <g> <path d="M328,7.996H116c-4.42,0-8,3.584-8,8v158.132c0,4.22,3.276,7.716,7.488,7.984c0.172,0.012,0.344,0.016,0.516,0.016 c3.992,0,7.412-2.964,7.928-6.976c0.072-0.556,8.12-55.156,96.068-55.156c87.66,0,99.708,49.572,100.168,51.62 c0.832,4.016,4.576,6.808,8.648,6.336c4.08-0.416,7.184-3.856,7.184-7.956v-154C336,11.58,332.416,7.996,328,7.996z M320,139.68 c-15.236-17.18-44.524-35.684-100-35.684c-53.088,0-81.22,18.584-96,36.48V23.996h196V139.68z" fill="#000000"/> </g> </g><g> <g> <path d="M220,39.996c-4.4,0-8,5.4-8,12v24c0,6.6,3.6,12,8,12c4.4,0,8-5.4,8-12v-24C228,45.396,224.4,39.996,220,39.996z" fill="#000000"/> </g> </g><g> <g> <path d="M232,55.996h-24c-6.6,0-12,3.6-12,8c0,4.4,5.4,8,12,8h24c6.6,0,12-3.6,12-8C244,59.596,238.6,55.996,232,55.996z" fill="#000000"/> </g> </g><g> <g> <path d="M332,0H112c-6.628,0-12,5.372-12,12v64c0,6.628,5.372,12,12,12c6.624,0,12-5.372,12-12V24h196v44c0,6.628,5.372,12,12,12 s12-5.372,12-12V12C344,5.372,338.628,0,332,0z" fill="#000000"/> </g> </g></symbol><symbol id="drink" viewBox="0 0 59 59"><title>drink</title><path d="M46.998,18.991c-0.001-0.115-0.037-0.226-0.078-0.335c-0.012-0.032-0.009-0.068-0.024-0.099l-0.001-0.004L40,4.763V1 c0-0.302-0.136-0.587-0.37-0.776c-0.234-0.19-0.542-0.264-0.836-0.202l-19,4C19.331,4.119,19,4.527,19,5v3.685l-6.819,9.742 c-0.006,0.009-0.006,0.021-0.012,0.03c-0.073,0.112-0.124,0.236-0.148,0.368c-0.004,0.02-0.005,0.038-0.007,0.058 C12.009,18.922,12,18.96,12,19v13v15v5c0,0.4,0.238,0.762,0.606,0.919l14,6c0.011,0.005,0.022,0.003,0.033,0.007 C26.755,58.97,26.875,59,27,59c0.085,0,0.17-0.011,0.254-0.033l19-5C46.694,53.851,47,53.454,47,53V38V22v-3L46.998,18.991z M33,5.241V3.285l2-0.421V4.82L33,5.241z M31,5.662l-2,0.421V4.127l2-0.421V5.662z M27,6.504l-2,0.421V5 c0-0.01-0.006-0.019-0.006-0.029L27,4.548V6.504z M21.439,9.719l9.721-2.047l7.291-1.535l6.104,12.209l-6.182,1.627L27.553,22.82 l-5.095-10.918L21.439,9.719z M45,21.535L28,35.851V24.77l17-4.474V21.535z M14,20.419l12,4.286v11.779l-12-5.143V20.419z M14,33.516l12,5.143v12.824l-12-5.143V33.516z M28,38.465l17-14.315v13.366L28,50.936V38.465z M38,4.188l-1,0.21V2.443l1-0.21 V4.188z M21,5.811l2-0.421v1.956l-2,0.421V5.811z M19.826,10.992l2.628,5.63l2.627,5.63l-10.51-3.754L19.826,10.992z M14,48.516 l12,5.143v2.824l-12-5.143V48.516z M28,56.703v-3.218l17-13.421v12.166L28,56.703z" fill="#000000"/><path d="M32.1,17.862c0.464,0.547,1.222,1.117,2.359,1.117c0.308,0,0.644-0.041,1.009-0.137c1.714-0.449,2.282-1.609,2.457-2.504 c0.194-0.993-0.027-2.037-0.21-2.735c-0.942-3.599-2.98-3.872-4.524-3.469c-1.545,0.404-3.188,1.642-2.247,5.24 C31.125,16.073,31.444,17.092,32.1,17.862z M33.696,12.07c0.167-0.044,0.335-0.078,0.502-0.078c0.57,0,1.13,0.392,1.582,2.117 c0.133,0.51,0.297,1.255,0.182,1.846c-0.074,0.378-0.246,0.755-1,0.952c-0.753,0.198-1.088-0.047-1.338-0.34 c-0.39-0.46-0.612-1.189-0.746-1.698C32.293,12.637,32.962,12.262,33.696,12.07z" fill="#000000"/></symbol><symbol id="transport" viewBox="0 0 364.626 364.626"><title>transport</title><path d="M364.528,164.785L347.807,62.761c-2.361-14.408-14.672-24.866-29.272-24.866h-55.259l-1.101-15.016 c-0.862-11.767-10.779-20.984-22.578-20.984H125.029c-11.798,0-21.715,9.217-22.578,20.983l-1.101,15.017H46.092 c-14.6,0-26.911,10.458-29.272,24.866L0.099,164.785C0.033,165.186,0,165.592,0,165.998v142.959c0,4.142,3.358,7.5,7.5,7.5h6.923 v29.875c0,9.042,7.356,16.399,16.399,16.399h52.87c9.042,0,16.399-7.356,16.399-16.399v-29.875h29.414 c1.486,13.728,13.142,24.451,27.258,24.451h64.799c14.117,0,25.772-10.723,27.258-24.451h15.715v29.875 c0,9.042,7.356,16.399,16.399,16.399h52.87c9.042,0,16.399-7.356,16.399-16.399v-29.875h6.923c4.142,0,7.5-3.358,7.5-7.5V165.998 C364.626,165.592,364.593,165.186,364.528,164.785z M232.506,16.896h7.092c3.98,0,7.326,3.11,7.617,7.08l1.021,13.92h-15.73 V16.896z M147.121,16.896h70.384v21h-70.384V16.896z M117.412,23.974c0.291-3.97,3.637-7.08,7.618-7.08h7.092v21h-15.73 L117.412,23.974z M85.091,346.333c0,0.771-0.627,1.399-1.399,1.399h-52.87c-0.771,0-1.399-0.627-1.399-1.399v-29.875h55.668 V346.333z M221.562,325.908h-64.799c-5.824,0-10.711-4.034-12.048-9.451h88.895C232.273,321.874,227.386,325.908,221.562,325.908 z M335.203,346.333L335.203,346.333c0,0.771-0.627,1.399-1.399,1.399h-52.87c-0.771,0-1.399-0.627-1.399-1.399v-29.875h55.668 V346.333z M349.628,301.457H15v-16.861h297.338c4.142,0,7.5-3.358,7.5-7.5c0-4.142-3.358-7.5-7.5-7.5H15V166.609L31.623,65.186 c1.167-7.122,7.252-12.292,14.47-12.292h272.442c7.217,0,13.303,5.169,14.47,12.292l16.623,101.422V301.457z" fill="#000000"/><path d="M318.674,59.896H45.954c-3.674,0-6.807,2.661-7.401,6.287L22.098,166.576c-0.356,2.172,0.26,4.391,1.685,6.068 c1.425,1.679,3.515,2.645,5.717,2.645h305.627c2.201,0,4.291-0.967,5.716-2.645c1.425-1.677,2.041-3.896,1.685-6.068 L326.075,66.183C325.481,62.558,322.347,59.896,318.674,59.896z M38.329,160.289l13.996-85.394h259.978l13.995,85.394H38.329z" fill="#000000"/><path d="M341.596,274.222c-0.088-0.208-0.053-0.124-0.01-0.021c-1.758-4.124-6.822-5.821-10.705-3.57 c-4.221,2.447-4.86,8.325-1.515,11.771c2.484,2.411,6.312,2.883,9.272,1.052c3.078-1.904,4.331-5.863,2.968-9.205 C341.649,274.353,341.684,274.436,341.596,274.222z" fill="#000000"/><path d="M58.362,195.095c-18.472,0-33.5,15.028-33.5,33.5c0,18.472,15.028,33.5,33.5,33.5s33.5-15.028,33.5-33.5 C91.862,210.123,76.834,195.095,58.362,195.095z M58.362,247.095c-10.201,0-18.5-8.299-18.5-18.5c0-10.201,8.299-18.5,18.5-18.5 s18.5,8.299,18.5,18.5C76.862,238.797,68.563,247.095,58.362,247.095z" fill="#000000"/><path d="M339.764,228.595c0-18.472-15.028-33.5-33.5-33.5c-18.472,0-33.5,15.028-33.5,33.5c0,18.472,15.028,33.5,33.5,33.5 C324.736,262.095,339.764,247.068,339.764,228.595z M306.264,247.095c-10.201,0-18.5-8.299-18.5-18.5 c0-10.201,8.299-18.5,18.5-18.5s18.5,8.299,18.5,18.5C324.764,238.797,316.465,247.095,306.264,247.095z" fill="#000000"/><path d="M215.588,202.81h-12.405v-12.405c0-4.142-3.358-7.5-7.5-7.5h-26.739c-4.142,0-7.5,3.358-7.5,7.5v12.405h-12.406 c-4.142,0-7.5,3.358-7.5,7.5v26.739c0,4.142,3.358,7.5,7.5,7.5h12.406v12.405c0,4.142,3.358,7.5,7.5,7.5h26.739 c4.142,0,7.5-3.358,7.5-7.5v-12.405h12.405c4.142,0,7.5-3.358,7.5-7.5V210.31C223.088,206.167,219.73,202.81,215.588,202.81z M208.088,229.548h-12.405c-4.142,0-7.5,3.358-7.5,7.5v12.405h-11.739v-12.405c0-4.142-3.358-7.5-7.5-7.5h-12.406V217.81h12.406 c4.142,0,7.5-3.358,7.5-7.5v-12.405h11.739v12.405c0,4.142,3.358,7.5,7.5,7.5h12.405V229.548z" fill="#000000"/></symbol><symbol id="ribbon" viewBox="0 0 511.999 511.999"><title>ribbon</title><g> <g> <path d="M508.064,354.089l-48.32-26.602l14.225-83.693c0.375-2.209-0.241-4.47-1.686-6.182s-3.571-2.699-5.811-2.699H433.35 c0.001-0.347,0.008-0.695,0.008-1.04V122.299c0-2.799-1.537-5.372-4.002-6.697L261.621,25.351c-2.25-1.21-4.958-1.21-7.207,0 L86.677,115.602c-2.465,1.326-4.002,3.899-4.002,6.697v111.574c0,0.345,0.007,0.695,0.008,1.04H42.755 c-2.24,0-4.367,0.988-5.811,2.699c-1.444,1.711-2.062,3.973-1.686,6.182l14.461,85.091L3.937,354.089 c-2.38,1.31-3.88,3.79-3.936,6.506c-0.057,2.716,1.341,5.256,3.664,6.663l43.377,26.265l-1.005,50.698 c-0.054,2.716,1.346,5.255,3.67,6.66c1.208,0.73,2.571,1.096,3.935,1.096c1.262,0,2.524-0.314,3.668-0.943l85.27-46.946 c29.567,36.762,68.472,65.589,112.655,82.94c0.893,0.352,1.837,0.527,2.78,0.527s1.886-0.175,2.78-0.527 c43.551-17.103,81.996-45.377,111.41-81.406l82.484,45.41c1.144,0.629,2.406,0.943,3.668,0.943c1.364,0,2.726-0.366,3.935-1.096 c2.324-1.406,3.724-3.945,3.669-6.66l-1.004-50.698l43.377-26.265c2.323-1.408,3.721-3.948,3.664-6.663 C511.944,357.88,510.443,355.4,508.064,354.089z M405.63,120.108l12.517,6.735v107.03c0,0.347-0.007,0.694-0.008,1.04H405.63 V120.108z M129.402,109.887l128.615-69.201l132.402,71.238v122.99H129.402V109.887z M97.887,126.844l16.304-8.772v116.843H97.895 c-0.001-0.346-0.008-0.697-0.008-1.04V126.844z M457.463,250.126l-18.293,107.63H70.055l-18.292-107.63H457.463z M61.509,431.362 l0.831-41.921c0.054-2.714-1.343-5.251-3.665-6.656l-35.867-21.72l29.61-16.301l3.717,21.871c0.621,3.656,3.789,6.331,7.498,6.331 h57.315c3.856,6.474,7.976,12.768,12.343,18.874L61.509,431.362z M258.017,471.762c-48.828-19.844-90.635-54.587-119.17-98.794 h238.341C348.655,417.17,306.83,451.923,258.017,471.762z M453.327,382.784c-2.322,1.406-3.719,3.943-3.665,6.656l0.831,41.921 l-68.885-37.925c4.793-6.601,9.286-13.434,13.477-20.47h50.508c3.709,0,6.877-2.675,7.498-6.331l3.955-23.268l32.149,17.698 L453.327,382.784z" fill="#000000"/> </g> </g><g> <g> <path d="M334.072,120.944H180.847c-11.122,0-20.17,9.049-20.17,20.17v0.739c0,11.122,9.049,20.169,20.17,20.169h153.226 c11.122,0,20.169-9.048,20.169-20.169v-0.739C354.241,129.993,345.194,120.944,334.072,120.944z M339.031,141.853L339.031,141.853 c-0.001,2.687-2.271,4.958-4.959,4.958H180.847c-2.687,0-4.959-2.27-4.959-4.958v-0.739c0-2.687,2.271-4.959,4.959-4.959h153.226 c2.687,0,4.958,2.271,4.958,4.959V141.853z" fill="#000000"/> </g> </g><g> <g> <path d="M296.476,174.908h-76.912c-11.122,0-20.17,9.049-20.17,20.17v0.738c0,11.122,9.049,20.17,20.17,20.17h76.912 c11.122,0,20.169-9.049,20.169-20.17v-0.738C316.646,183.957,307.598,174.908,296.476,174.908z M301.434,195.816 c0,2.687-2.27,4.959-4.958,4.959h-76.912c-2.687,0-4.959-2.271-4.959-4.959v-0.738c0-2.687,2.271-4.959,4.959-4.959h76.912 c2.687,0,4.958,2.271,4.958,4.959V195.816z" fill="#000000"/> </g> </g><g> <g> <path d="M356.408,282.255H158.422c-11.847,0-21.485,9.637-21.485,21.484v0.815c0.001,11.847,9.639,21.485,21.485,21.485h197.985 c11.847,0,21.484-9.638,21.484-21.485v-0.815C377.891,291.892,368.254,282.255,356.408,282.255z M362.681,304.555 c0,3.459-2.813,6.273-6.272,6.273H158.422c-3.459,0-6.273-2.813-6.273-6.273v-0.815h0.001c0-3.458,2.813-6.272,6.273-6.272 h197.986c3.458,0,6.272,2.813,6.272,6.272V304.555z" fill="#000000"/> </g> </g></symbol><symbol id="medical-1" viewBox="0 0 511.998 511.998"><title>medical-1</title><g> <g> <path d="M396.8,236.586h-93.175l-22.673-68.053c-1.775-5.325-6.929-9.523-12.424-8.747c-5.623,0.128-10.496,3.874-12.023,9.276 l-37.35,130.697l-40.252-181.146c-1.229-5.478-5.871-9.523-11.477-9.975c-5.572-0.375-10.829,2.773-12.902,7.996l-48,119.953H12.8 c-7.074,0-12.8,5.726-12.8,12.8c0,7.074,5.726,12.8,12.8,12.8h102.4c5.222,0.008,9.95-3.174,11.878-8.047l35.823-89.523 l42.197,189.952c1.271,5.726,6.272,9.847,12.126,10.027c0.128,0,0.247,0,0.375,0c5.7,0,10.726-3.772,12.297-9.276l39.851-139.426 l12.501,37.547c1.749,5.222,6.647,8.747,12.151,8.747h102.4c7.074,0,12.8-5.726,12.8-12.8 C409.6,242.311,403.874,236.586,396.8,236.586z" fill="#000000"/> </g> </g><g> <g> <path d="M467.012,64.374C437.018,34.38,397.705,19.387,358.4,19.387c-36.779,0-73.259,13.662-102.4,39.919 c-29.15-26.257-65.621-39.919-102.4-39.919c-39.313,0-78.618,14.993-108.612,44.988C5.214,104.157-7.595,160.187,5.385,211.011 h26.624c-13.653-43.972-3.678-93.773,31.078-128.529c24.175-24.175,56.32-37.487,90.513-37.487 c31.206,0,60.399,11.563,83.695,31.889L256,94.369l18.714-17.493c23.296-20.318,52.489-31.889,83.686-31.889 c34.193,0,66.33,13.312,90.513,37.487c49.911,49.903,49.903,131.115,0,181.018L256,456.404L87.407,287.811H51.2l204.8,204.8 l211.012-211.012C526.993,221.61,526.993,124.364,467.012,64.374z" fill="#000000"/> </g> </g></symbol><symbol id="smile" viewBox="0 0 16 16"><title>smile</title><path fill="#000000" d="M8 1c3.9 0 7 3.1 7 7s-3.1 7-7 7-7-3.1-7-7 3.1-7 7-7zM8 0c-4.4 0-8 3.6-8 8s3.6 8 8 8 8-3.6 8-8-3.6-8-8-8v0z"/><path fill="#000000" d="M8 13.2c-2 0-3.8-1.2-4.6-3.1l0.9-0.4c0.6 1.5 2.1 2.4 3.7 2.4s3.1-1 3.7-2.4l0.9 0.4c-0.8 2-2.6 3.1-4.6 3.1z"/><path fill="#000000" d="M7 6c0 0.552-0.448 1-1 1s-1-0.448-1-1c0-0.552 0.448-1 1-1s1 0.448 1 1z"/><path fill="#000000" d="M11 6c0 0.552-0.448 1-1 1s-1-0.448-1-1c0-0.552 0.448-1 1-1s1 0.448 1 1z"/></symbol><symbol id="medical" viewBox="0 0 512 512"><title>medical</title><g> <g> <circle cx="191.038" cy="266.381" r="11.026" fill="#000000"/> </g> </g><g> <g> <circle cx="228.716" cy="228.688" r="11.026" fill="#000000"/> </g> </g><g> <g> <circle cx="266.409" cy="191.009" r="11.026" fill="#000000"/> </g> </g><g> <g> <circle cx="237.154" cy="274.819" r="11.026" fill="#000000"/> </g> </g><g> <g> <circle cx="274.847" cy="237.141" r="11.026" fill="#000000"/> </g> </g><g> <g> <circle cx="245.593" cy="320.935" r="11.026" fill="#000000"/> </g> </g><g> <g> <circle cx="283.286" cy="283.257" r="11.026" fill="#000000"/> </g> </g><g> <g> <circle cx="320.964" cy="245.579" r="11.026" fill="#000000"/> </g> </g><g> <g> <path d="M478.625,317.45L271.592,110.418L333.07,48.94c35.829-35.829,94.128-35.83,129.96,0 c17.357,17.357,26.916,40.438,26.916,64.99c0,24.553-9.556,47.629-26.906,64.979l-42.731,42.731 c-4.306,4.306-4.306,11.287,0,15.592c2.152,2.152,4.975,3.23,7.796,3.23s5.644-1.076,7.796-3.23l42.731-42.731 c21.516-21.515,33.365-50.13,33.365-80.572c0-30.443-11.853-59.059-33.375-80.583c-44.426-44.427-116.717-44.426-161.145,0 l-61.477,61.478l-18.945-18.945c-4.306-4.306-11.287-4.306-15.592,0c-4.306,4.306-4.306,11.287,0,15.592l241.569,241.569 c17.357,17.357,26.917,40.435,26.917,64.982s-9.559,47.625-26.917,64.982c-35.833,35.83-94.133,35.83-129.964,0L48.969,178.908 c-35.83-35.832-35.83-94.134,0-129.964c35.832-35.832,94.133-35.832,129.964,0l17.544,17.544c4.306,4.306,11.287,4.306,15.592,0 c4.306-4.306,4.306-11.287,0-15.592l-17.544-17.544c-44.429-44.429-116.72-44.429-161.149,0 c-44.429,44.429-44.429,116.72,0,161.149l61.475,61.475l-61.472,61.472C11.855,338.969,0.001,367.587,0,398.027 c-0.001,30.44,11.85,59.055,33.37,80.574c22.216,22.217,51.399,33.325,80.583,33.325c29.183,0,58.365-11.108,80.581-33.325 l61.472-61.472l61.47,61.47c21.522,21.522,50.137,33.375,80.574,33.375c30.438,0,59.052-11.853,80.575-33.375 C500.148,457.077,512,428.462,512,398.024S500.147,338.972,478.625,317.45z M178.942,463.008 c-35.836,35.835-94.144,35.835-129.981,0c-17.354-17.353-26.91-40.432-26.91-64.979c0.001-24.55,9.561-47.631,26.92-64.99 l61.472-61.472l129.97,129.969L178.942,463.008z" fill="#000000"/> </g> </g><g> <g> <path d="M245.382,129.804c-4.304-4.304-11.286-4.304-15.592,0l-99.961,99.961c-4.306,4.306-4.306,11.287,0,15.592 c2.152,2.152,4.975,3.23,7.796,3.23c2.821,0,5.644-1.076,7.796-3.23l99.961-99.961 C249.688,141.09,249.688,134.108,245.382,129.804z" fill="#000000"/> </g> </g><g> <g> <path d="M382.169,266.594c-4.306-4.306-11.287-4.306-15.592,0l-99.96,99.96c-4.306,4.304-4.306,11.286,0,15.592 c2.152,2.152,4.975,3.23,7.796,3.23c2.821,0,5.644-1.076,7.796-3.23l99.96-99.96C386.475,277.88,386.475,270.898,382.169,266.594z " fill="#000000"/> </g> </g></symbol><symbol id="agenda" viewBox="0 0 365.473 365.473"><title>agenda</title><path d="M4.029,46.205V24.266c0-4.971,4.114-8.705,9.085-8.705h69.915V9c0-4.971,4.029-9,9-9s9,4.029,9,9v6.561h140V9 c0-4.971,4.029-9,9-9s9,4.029,9,9v6.561h70.27c4.971,0,8.73,3.734,8.73,8.705v21.939c0,4.971-4.029,9-9,9s-9-4.029-9-9V33.561h-61 v5.967c0,4.971-4.029,9-9,9s-9-4.029-9-9v-5.967h-140v5.967c0,4.971-4.029,9-9,9s-9-4.029-9-9v-5.967h-61v12.644 c0,4.971-4.029,9-9,9S4.029,51.176,4.029,46.205z M361.444,284.249c0,44.789-36.439,81.224-81.228,81.224 c-44.79,0-81.228-36.445-81.228-81.234c0-34.795,21.994-64.565,52.807-76.112c-1.168-1.519-1.864-3.448-1.864-5.512 c0-4.971,4.029-9.054,9-9.054h42.57c4.971,0,9,4.083,9,9.054c0,2.064-0.695,4.02-1.864,5.539c7.485,2.805,14.451,6.684,20.707,11.45 l4.445-4.445c3.515-3.515,9.214-3.513,12.728,0c3.515,3.515,3.514,9.213,0,12.728l-4.136,4.135 C354.273,246.154,361.444,264.377,361.444,284.249z M343.444,284.252c0-34.864-28.364-63.229-63.228-63.229 c-34.864,0-63.228,28.364-63.228,63.229c0,34.864,28.364,63.228,63.228,63.228C315.08,347.479,343.444,319.116,343.444,284.252z M292.394,262.017l-3.365,3.272v-13.921c0-4.971-4.029-9-9-9s-9,4.029-9,9v35.65c0,1.225,0.338,2.392,0.781,3.456 c0.439,1.058,1.135,2.048,1.995,2.908c0.881,0.881,1.923,1.542,3.01,1.98c0.002,0.001,0.015,0.001,0.017,0.002 c0.004,0.002,0.014-0.222,0.019-0.22c0.949,0.382,1.984,0.417,3.061,0.417c0.006,0,0.011,0,0.019,0c0.095,0,0.19,0.004,0.286,0.004 s0.19-0.004,0.285-0.004c0.006,0,0.013,0,0.019,0c1.096,0,2.142-0.043,3.104-0.437c1.076-0.439,2.084-0.983,2.957-1.856 l18.636-18.58c3.515-3.515,3.467-9.185-0.047-12.7C301.654,258.473,295.909,258.502,292.394,262.017z M196.534,231.561 c0,4.971-4.029,9-9,9h-7.505v66.138c0,4.971-3.941,8.966-8.912,8.966c-0.303,0-0.514-0.05-0.809-0.078 c-0.295,0.029-0.595-0.025-0.897-0.025H13.114c-4.971,0-9.085-3.892-9.085-8.862V80.369v-0.002c0-4.971,4.114-8.806,9.085-8.806 h316.185c4.971,0,8.73,3.835,8.73,8.806v97.588c0,4.971-4.029,9-9,9s-9-4.029-9-9v-13.394h-61v0.769c0,4.971-4.029,9-9,9 s-9-4.029-9-9v-0.769h-61v58h7.505C192.505,222.561,196.534,226.59,196.534,231.561z M83.029,240.561h-61v57h61V240.561z M83.029,164.561h-61v58h61V164.561z M162.029,240.561h-61v57h61V240.561z M162.029,164.561h-61v58h61V164.561z M180.029,109.228 v37.333h61v-37.333c0-4.971,4.029-9,9-9s9,4.029,9,9v37.333h61v-57h-298v57h61v-37.333c0-4.971,4.029-9,9-9s9,4.029,9,9v37.333h61 v-37.333c0-4.971,4.029-9,9-9S180.029,104.257,180.029,109.228z" fill="#000000"/></symbol><symbol id="pin" viewBox="0 0 31.058 31.058"><title>pin</title><g> <path d="M15.529,31.058c-0.244,0-0.477-0.1-0.646-0.277C14.416,30.284,3.431,18.567,3.431,12.098 C3.431,5.427,8.858,0,15.529,0c6.67,0,12.098,5.427,12.098,12.098c0,6.47-10.984,18.187-11.452,18.683 C16.007,30.958,15.773,31.058,15.529,31.058z M15.529,1.774c-5.692,0-10.323,4.631-10.323,10.323 c0,4.479,6.933,13.035,10.323,16.767c3.391-3.733,10.323-12.287,10.323-16.767C25.853,6.405,21.221,1.774,15.529,1.774z" fill="#000000"/> </g><g> <path d="M15.529,15.884c-2.822,0-5.117-2.295-5.117-5.117c0-2.821,2.295-5.117,5.117-5.117 c2.821,0,5.117,2.296,5.117,5.117C20.646,13.589,18.351,15.884,15.529,15.884z M15.529,7.425c-1.844,0-3.343,1.499-3.343,3.342 c0,1.844,1.499,3.343,3.343,3.343c1.843,0,3.342-1.499,3.342-3.343C18.871,8.924,17.372,7.425,15.529,7.425z" fill="#000000"/> </g></symbol><symbol id="technology" viewBox="0 0 791.911 791.911"><title>technology</title><path d="M669.618,119.852C669.618,118.964,669.618,118.964,669.618,119.852V47.941C669.618,22.017,648.488,0,621.677,0H170.145 c-25.924,0-47.941,21.129-47.941,47.941v68.094c0,0.977-0.977,2.841-0.977,3.818v530.19c0,1.953,0,2.841,0.977,3.818v90.111 c0,25.924,21.129,47.941,47.941,47.941h452.597c25.924,0,47.941-21.129,47.941-47.941v-92.863v-0.977V119.852H669.618z M157.628,137.164h476.567v494.767H157.628V137.164z M170.145,35.512h452.597c6.747,0,12.429,5.771,12.429,12.429v54.688H157.628 V47.941C157.628,40.306,163.398,35.512,170.145,35.512z M622.653,756.577H170.145c-6.747,0-12.429-5.771-12.429-12.429v-76.705 h476.567v76.705C634.195,750.806,629.401,756.577,622.653,756.577z M413.667,712.454c0,10.565-8.612,20.153-20.153,20.153 c-10.565,0-20.153-8.612-20.153-20.153c0-10.565,8.612-20.153,20.153-20.153C405.055,692.301,413.667,701.889,413.667,712.454z" fill="#000000"/></symbol><symbol id="phone" viewBox="0 0 612 612"><title>phone</title><path d="M339.296,19.573c-92.187,0-173.778,46.021-223.165,116.25c10.221,6.668,20.184,15.812,29.82,27.567 c36.844-55.091,96.417-93.743,165.344-102.052l27.997,47.377l27.997-47.378c105.952,12.769,190.17,96.983,202.945,202.934 l-47.385,28.001l47.386,28.002c-8.54,70.836-49.108,131.821-106.661,168.372c3.666,8.357,5.731,16.902,6.096,25.712 c0.269,6.438-0.395,12.521-1.73,18.296C553.609,486.622,612,396.153,612,292.277C612,141.904,489.669,19.573,339.296,19.573z M408.887,468.69c-62.865-50.523-80.444-25.688-108.968,2.832c-19.914,19.921-70.308-21.678-113.821-65.193 c-43.516-43.521-85.107-93.907-65.195-113.824c28.526-28.521,53.354-46.11,2.817-108.958 c-50.52-62.871-84.198-14.603-111.829,13.03c-31.9,31.889-1.681,150.726,115.769,268.194 c117.466,117.452,236.302,147.651,268.183,115.774C423.471,552.911,471.753,519.237,408.887,468.69z M217.426,334.954 c0-55.88,65.42-65.835,65.42-87.641c0-10.581-8.47-15.023-16.304-15.023c-14.397,0-22.434,16.083-22.434,16.083l-27.521-18.415 c0,0,13.973-32.6,53.346-32.6c24.766,0,51.65,14.185,51.65,46.36c0,47.208-60.968,56.314-62.028,75.789h64.36v31.751H219.123 C218.062,345.332,217.426,340.043,217.426,334.954z M339.391,292.199l58.434-92.305h45.301v84.047h17.991v30.691h-17.991v36.628 h-36.628v-36.628h-67.106V292.199L339.391,292.199z M406.497,283.94v-33.871c0-8.258,1.272-16.94,1.272-16.94h-0.424 c0,0-3.171,9.318-7.41,15.669l-22.857,34.72v0.424L406.497,283.94L406.497,283.94z" fill="#000000"/></symbol></svg>